<?xml version="1.0" standalone="no"?>
<!DOCTYPE svg PUBLIC "-//W3C//DTD SVG 1.1//EN" "http://www.w3.org/Graphics/SVG/1.1/DTD/svg11.dtd" >
<svg xmlns="http://www.w3.org/2000/svg">
<metadata>
This is a custom SVG webfont generated by Font Squirrel.
Designer    : Andreas Stoetzner
Foundry     : Andreas Stoetzner
</metadata>
<defs>
<font id="webfontv0nr2pr5" horiz-adv-x="500" >
<font-face units-per-em="1000" ascent="800" descent="-200" />
<missing-glyph horiz-adv-x="240" />
<glyph unicode=" "  horiz-adv-x="240" />
<glyph unicode="&#x09;" horiz-adv-x="240" />
<glyph unicode="&#xa0;" horiz-adv-x="240" />
<glyph unicode="!" horiz-adv-x="280" d="M183 226h-25l-46 405q0 13 16 28t47 15q15 0 26 -5t18.5 -12t11.5 -14.5t4 -11.5zM170 -10q-24 0 -41.5 17t-17.5 41q0 25 17.5 42t41.5 17t41.5 -17t17.5 -42q0 -24 -17.5 -41t-41.5 -17z" />
<glyph unicode="&#x22;" horiz-adv-x="365" d="M217 687q4 3 11 7q6 3 15 5.5t21 2.5q13 0 21.5 -2.5t13.5 -5.5q6 -4 9 -7l-37 -238h-29zM69 687q4 3 11 7q6 3 15 5.5t21 2.5q13 0 21.5 -2.5t13.5 -5.5q6 -4 9 -7l-37 -238h-29z" />
<glyph unicode="#" horiz-adv-x="639" d="M444 -200l-55 -10q2 31 3.5 70.5t2.5 74.5q1 41 1 83h-42h-30h-33l-33 -2h-28v-216l-55 -10q2 29 3 68l2 73q1 40 1 82q-24 -1 -49 -3q-21 -2 -45 -3.5t-44 -3.5l-9 8l17 88h130v258l-11 -1l-30 -2q-19 -2 -41 -3.5t-42 -3.5l-9 15l17 80h117l-2 80l-2 64q-1 31 -3 47 l55 6v-197h166l-2 80l-2 64q-1 31 -3 47l55 6v-197h138l-9 -86q-13 2 -34.5 2.5t-42.5 1.5q-25 1 -52 1v-262h118l-9 -87q-12 2 -30.5 2.5t-35.5 1.5q-20 1 -43 1v-217zM230 99h165q0 22 0.5 57.5t0.5 73.5v74v58h-32h-32l-36 -2h-36q-17 -1 -30 -1v-260z" />
<glyph unicode="$" horiz-adv-x="550" d="M375 307q11 -9 22.5 -19.5t20.5 -25.5t15 -35.5t6 -50.5q0 -32 -13 -63.5t-37 -56.5t-58.5 -41t-77.5 -18l-15 -152h-47l18 153q-36 1 -64 10.5t-47.5 23t-29.5 29.5t-10 30q0 21 7.5 36t17 25t19.5 15t16 5q7 0 10 -6.5t5 -17t4 -24t7 -28.5q7 -25 25 -42.5t44 -17.5 l11 112q5 57 10 129q-20 16 -41 30.5t-38 31.5q-19 18 -36.5 49.5t-17.5 76.5q0 26 10.5 54t31.5 51t52.5 38t73.5 15l11 133h46l9 -8l-14 -126q29 -1 54.5 -10t44 -21.5t29.5 -26t11 -23.5q0 -16 -6.5 -30t-16 -24.5t-19.5 -16.5t-17 -6t-9 10.5t-4 25.5t-6.5 32t-15.5 29 q-12 13 -25 17.5t-24 4.5l-25 -219q7 -4 18 -11l22 -15l24 -16zM266 584q-43 -1 -71 -27t-28 -71q0 -34 21 -59t59 -48zM257 35q51 0 83.5 30.5t32.5 77.5q0 43 -28 72t-64 48z" />
<glyph unicode="%" horiz-adv-x="726" d="M350 426q0 -30 -11 -56t-30 -45t-45 -29.5t-55 -10.5q-27 0 -53 10t-45.5 28t-31.5 43.5t-12 55.5t11 55.5t30 43.5t45.5 28.5t57.5 10.5q63 0 101 -36.5t38 -97.5zM216 333q34 0 56.5 26.5t22.5 66.5q0 45 -24.5 71.5t-57.5 26.5q-34 0 -56.5 -25t-22.5 -65 q0 -43 23.5 -72t58.5 -29zM119 -9l-2 5l473 565l53 -18v-6l-77 -83l-86 -97l-90 -105l-86 -103l-76 -95l-60 -78zM681 120q0 -30 -10.5 -55t-29.5 -43t-44 -28.5t-54 -10.5q-27 0 -52 9.5t-44.5 27t-31 42t-11.5 54.5q0 29 11 54t30 43t45 28t56 10q61 0 98 -35.5t37 -95.5z M550 30q33 0 55 26t22 64q0 44 -23.5 70t-55.5 26q-33 0 -55.5 -25t-22.5 -63q0 -42 23 -70t57 -28z" />
<glyph unicode="&#x26;" horiz-adv-x="756" d="M756 34q-18 -17 -37 -25t-36 -13q-19 -5 -37 -6q-19 0 -38 2.5t-37.5 11.5t-35.5 26t-33 46h-5q-48 -45 -106.5 -66t-115.5 -21q-51 0 -95 16.5t-77 45t-52 68t-19 86.5q0 65 44.5 117.5t125.5 82.5l1 5q-51 45 -51 113q0 19 9 39.5t29 37t52.5 27.5t80.5 11q33 0 59 -9 t44.5 -23.5t28 -32.5t9.5 -36q0 -24 -12.5 -44t-30.5 -36t-39 -26.5t-39 -16.5l-1 -5q56 -30 102.5 -84t93.5 -132h6q10 9 19 29.5t15.5 44.5t10 48t3.5 40q0 13 -1.5 23t-6.5 21t-22 24t-57 18l3 27q26 -2 47 -3t37 -2q18 -1 34 -1q14 0 32 1q14 1 33.5 2t40.5 3l3 -26 q-30 -4 -46.5 -17t-21.5 -22q-10 -19 -16 -46t-15.5 -59.5t-25.5 -70t-45 -77.5q16 -32 29 -54t26.5 -35.5t28 -19t32.5 -5.5q11 0 30.5 5.5t33.5 19.5zM325 605q-24 0 -40.5 -7t-26 -18t-13.5 -25t-4 -28q0 -23 11.5 -45t50.5 -47q23 7 41 20t30.5 28.5t19 31.5t6.5 31 q0 12 -7 23t-18 19t-24 12.5t-26 4.5zM319 43q51 0 90 20.5t70 52.5l-62 99q-27 41 -53.5 71t-55.5 52t-69 42q-33 -12 -54 -30t-33 -39.5t-16.5 -44t-4.5 -41.5q0 -37 12.5 -70t36.5 -58t59 -39.5t80 -14.5z" />
<glyph unicode="'" horiz-adv-x="226" d="M60 687l16 7q8 3 18 5.5t22 2.5q13 0 23 -2.5t17 -5.5q8 -4 13 -7l-42 -238h-35z" />
<glyph unicode="(" horiz-adv-x="307" d="M295 -199q-50 30 -94.5 77.5t-78.5 107t-54 127.5t-20 139q0 70 21 138.5t55 128.5t76.5 108t85.5 77l12 -23q-34 -32 -64.5 -73.5t-54 -93t-37 -114.5t-13.5 -137q0 -73 14 -139.5t38 -122.5t56.5 -101.5t69.5 -76.5z" />
<glyph unicode=")" horiz-adv-x="307" d="M0 -177q37 31 69.5 74.5t56.5 98.5t38 121.5t14 143.5q0 74 -13.5 137t-36.5 115.5t-54 94t-65 73.5l13 23q43 -29 85 -73t76 -99.5t55 -120t21 -134.5q0 -71 -20 -143t-54 -136t-79 -115.5t-94 -81.5z" />
<glyph unicode="*" horiz-adv-x="423" d="M177 571q3 2 6.5 3.5t6.5 3.5l33 138l20 -1l12 -139q6 -3 11 -8l135 44l9 -19l-114 -78v-7q0 -4 -1 -6l105 -97l-11 -17l-126 58q-5 -4 -13 -7l-30 -134l-20 2l-20 140q-8 4 -12 7l-127 -47l-9 18l107 83v13l-96 93l11 17z" />
<glyph unicode="+" horiz-adv-x="650" d="M576 277l5 -11l-13 -42q-30 2 -64 3t-63 2q-34 1 -68 1v-230h-92q3 44 4.5 85t3.5 73q1 38 2 71q-34 0 -70 -1q-31 -1 -70 -2.5t-78 -3.5l-6 11l26 44h198q0 37 -1 75q-1 32 -3 70.5t-6 73.5l86 12l14 -4l-8 -227h203z" />
<glyph unicode="," horiz-adv-x="240" d="M124 129q15 0 26.5 -8t19.5 -20t12.5 -26.5t4.5 -27.5q0 -30 -13 -58t-33.5 -51.5t-46.5 -42t-52 -28.5l-20 23q14 7 29.5 18.5t28 26t20.5 30t8 30.5q0 20 -12 39.5t-35 26.5q0 28 20 48t43 20z" />
<glyph unicode="-" horiz-adv-x="322" d="M278 233l-223 -19l-7 8l7 66l223 9v-64z" />
<glyph unicode="." horiz-adv-x="244" d="M122 -12q-26 0 -44.5 18.5t-18.5 44.5q0 27 18.5 45.5t44.5 18.5q27 0 45.5 -18.5t18.5 -45.5q0 -26 -18.5 -44.5t-45.5 -18.5z" />
<glyph unicode="/" horiz-adv-x="464" d="M0 -199l398 927h57l9 -13l-84 -177l-91 -203l-89 -203l-76 -177l-54 -125l-21 -48z" />
<glyph unicode="0" horiz-adv-x="578" d="M290 466q53 0 96.5 -16.5t75 -47t48.5 -74t17 -96.5t-19 -98t-51.5 -78t-76 -51.5t-93.5 -18.5q-47 0 -90 17.5t-77 49t-54 75t-20 96.5t18.5 97.5t51 76.5t77 50t97.5 18zM449 222q0 44 -13 79.5t-34.5 61t-50.5 39t-62 13.5t-62 -13t-50.5 -36t-33.5 -56t-12 -73 q0 -44 13 -81t35.5 -63.5t51.5 -41t62 -14.5q36 0 65 14.5t49 40t31 59t11 71.5z" />
<glyph unicode="1" horiz-adv-x="380" d="M279 457q-11 -19 -15.5 -39t-6.5 -60q-2 -39 -3 -81.5t-1 -84.5q0 -20 0.5 -41.5t1 -39.5t2 -30.5t4.5 -16.5q10 -14 38 -23t83 -14l-3 -30q-41 2 -84 5.5t-81 3.5t-80 -3.5t-93 -4.5l-3 27q58 8 87 19.5t39 21.5q3 3 6 18t4.5 36t2.5 45t1 47q0 24 -0.5 48.5t-1.5 45 t-2.5 34t-3.5 16.5q-9 11 -42 11h-17q-11 0 -23 -1h-26q-13 -1 -23 -2l-3 30q55 12 96.5 26t69.5 27q33 14 56 29z" />
<glyph unicode="2" horiz-adv-x="460" d="M204 170q26 32 44.5 68.5t18.5 74.5q0 24 -8.5 41t-21.5 28.5t-29.5 17t-32.5 5.5q-30 0 -61.5 -19.5t-54.5 -52.5l-22 28q23 38 53 58.5t58 29.5q33 11 66 12q22 0 47.5 -7.5t46.5 -23t35 -39t14 -54.5q0 -30 -10 -57.5t-34 -58t-64 -66.5t-99 -81l1 -8q25 1 56 2l60 2 q29 1 51 2.5t29 2.5q10 2 20 10t18.5 19t15 24t10.5 24l24 -7q-11 -35 -17 -61l-10 -46q-4 -22 -6 -38q-44 3 -112 3q-61 0 -126 -2t-111 -5l-6 38q39 28 68 52.5t49 43.5q23 22 40 40z" />
<glyph unicode="3" horiz-adv-x="428" d="M39 409q19 15 42.5 25t46 16t41.5 8.5t30 2.5q25 0 50 -6.5t44 -20.5t31 -36t12 -52q0 -19 -4.5 -35.5t-15 -33t-28 -34.5t-44.5 -39l3 -10q30 0 56 -10t45.5 -29t30.5 -45t11 -57q0 -44 -19 -82t-48 -68.5t-65 -54t-69 -36.5q-28 -11 -54 -15.5t-47 -4.5q-13 0 -26 4 t-23.5 10.5t-17.5 16t-7 21.5q0 20 14.5 35.5t29.5 15.5h5q8 -20 19.5 -30.5t23 -16t20 -6.5t11.5 -1q29 0 58.5 15.5t53 42.5t38 64t14.5 79q0 47 -26.5 71.5t-64.5 24.5q-9 0 -33 -5.5t-56 -28.5l-21 22q11 16 24 27t25 19q14 9 28 15q44 46 61 78.5t17 68.5q0 20 -7.5 36 t-19.5 27t-27 16.5t-30 5.5q-19 0 -37.5 -9t-33.5 -21.5t-26.5 -27t-15.5 -24.5l-11 1z" />
<glyph unicode="4" d="M364 456v-390q31 0 50 1.5t30.5 6.5t18 16t12.5 31l23 -4q0 -7 -3 -23.5t-7 -34.5l-9 -33q-4 -15 -7 -20h-108v-209h-87l3 85q2 38 3 66q1 33 1 58h-267l-10 39l-1 22q74 115 143.5 213t141.5 183zM62 68q9 -1 25 -1.5t37 -1t45 -0.5h50h67l2 80q1 41 1.5 78t1 68t0.5 51 v23l-9 1q-54 -63 -110 -138l-110 -150v-10z" />
<glyph unicode="5" horiz-adv-x="410" d="M111 448q57 -3 93.5 -4t57.5 -1q40 0 58.5 4.5t30.5 23.5l21 -3q-6 -29 -11 -47.5t-9 -29.5q-4 -12 -7 -19h-212l-33 -112l8 -10q31 2 50 2.5t36 0.5q34 0 63 -12t49 -33t31.5 -50t11.5 -62q0 -49 -16.5 -90t-43.5 -74t-62 -57.5t-72 -42t-73.5 -28t-65.5 -13.5l-6 36 q55 7 101 29.5t80 55t53 73.5t19 86q0 46 -20.5 72t-49.5 39q-23 10 -53.5 13t-62.5 3l-23 13l40 232z" />
<glyph unicode="6" d="M421 627q-54 -21 -105 -54.5t-90.5 -81t-63.5 -111.5t-24 -147q0 -51 11 -89.5t30.5 -64t44.5 -38.5t54 -13q21 0 41 9t35.5 27.5t25 47.5t9.5 69t-13.5 66.5t-33 42t-43 21.5t-42.5 6q-14 0 -27.5 -1t-21.5 -4l-5 25q29 12 48 18t31 9q14 4 22 4q34 0 64 -11.5t52 -32.5 t35 -51.5t13 -68.5q0 -54 -16 -94.5t-43.5 -67.5t-65.5 -41t-81 -14q-38 0 -76.5 15t-69.5 45t-50.5 74.5t-19.5 102.5q0 63 17.5 117t47 99t67.5 81t79 63t81.5 45t75.5 27z" />
<glyph unicode="7" horiz-adv-x="420" d="M422 427q-63 -162 -113.5 -280t-88.5 -196q-44 -92 -79 -154h-70l-4 17q27 36 55 81t61.5 108t72.5 148l90 200l-5 13q-15 1 -39 1h-37q-40 0 -70.5 -1.5t-51.5 -3.5q-25 -2 -43 -4q-10 -2 -20 -10q-8 -7 -17.5 -22t-15.5 -41l-25 4l27 159h367z" />
<glyph unicode="8" horiz-adv-x="472" d="M288 355q45 -32 72.5 -60t42.5 -54t20.5 -49.5t5.5 -44.5q0 -45 -18.5 -76.5t-46.5 -52t-61.5 -29.5t-63.5 -9q-42 0 -77 11.5t-61 33t-40.5 51.5t-14.5 66q0 47 32.5 98.5t104.5 93.5q-31 27 -51 50.5t-31.5 44t-16 38t-4.5 33.5q0 40 15.5 70t39.5 49.5t53.5 29 t56.5 9.5q36 0 65.5 -10.5t51.5 -28.5t34 -41.5t12 -49.5q0 -40 -27 -85.5t-93 -87.5zM151 528q0 -32 25 -68t84 -84q46 35 61 72.5t15 74.5q0 22 -8 39.5t-21 30t-29.5 19t-33.5 6.5q-41 0 -67 -25.5t-26 -64.5zM240 22q22 0 42 7t35.5 19.5t24.5 31t9 41.5q0 34 -26 76 t-96 96l-20 16q-49 -37 -67 -78.5t-18 -85.5q0 -32 11 -55t28 -38t37.5 -22.5t39.5 -7.5z" />
<glyph unicode="9" d="M31 239q0 55 20 97t51 70t69 42.5t74 14.5q46 0 86.5 -18t71 -50t48.5 -75.5t18 -93.5q0 -70 -19 -128.5t-49 -105.5t-68 -83t-76.5 -62.5t-73.5 -43t-59 -24.5l-13 27q56 27 104.5 61t84 80.5t56 107.5t20.5 140q0 63 -12 106.5t-32 70t-45.5 38.5t-52.5 12 q-21 0 -42 -9t-37.5 -27.5t-26.5 -48t-10 -70.5q0 -43 11.5 -73t30 -49t42 -28t48.5 -9q17 0 31.5 4t31.5 13l6 -28q-44 -22 -72 -28t-51 -6q-34 0 -64 12.5t-52.5 35t-35.5 55t-13 73.5z" />
<glyph unicode=":" horiz-adv-x="305" d="M162 -7q-22 0 -37 15.5t-15 37.5t15 37.5t37 15.5q23 0 38 -15.5t15 -37.5t-15 -37.5t-38 -15.5zM162 306q-23 0 -39.5 16.5t-16.5 39.5t16.5 39.5t39.5 16.5t39.5 -16.5t16.5 -39.5t-16.5 -39.5t-39.5 -16.5z" />
<glyph unicode=";" horiz-adv-x="305" d="M151 232q-20 0 -34.5 14.5t-14.5 34.5t14.5 34.5t34.5 14.5t35 -14.5t15 -34.5t-15 -34.5t-35 -14.5zM172 129q23 0 42.5 -26.5t19.5 -74.5q0 -24 -14.5 -48.5t-36 -46.5t-47.5 -39.5t-49 -26.5l-20 23q14 7 30.5 19t30.5 26t23 30t9 31q0 20 -15.5 39t-38.5 26 q0 14 6 26.5t15.5 21.5t21.5 14.5t23 5.5z" />
<glyph unicode="&#x3c;" horiz-adv-x="650" d="M564 461l16 -34l-364 -179v-8l364 -211l-16 -34l-524 228v17z" />
<glyph unicode="=" horiz-adv-x="776" d="M418 127l-27 -1q-27 0 -73 -1t-106 -3.5t-126 -6.5l-7 16l30 57h583l-12 -68q-34 3 -79.5 4t-86 1.5t-68.5 0.5zM680 311q-35 2 -80 3l-85 2q-48 1 -97 1q-46 -1 -100 -2q-46 -2 -106 -3.5t-126 -6.5l-7 14l30 55h583z" />
<glyph unicode="&#x3e;" horiz-adv-x="650" d="M88 -5l-16 34l367 184v6l-367 208l16 34l523 -224v-17z" />
<glyph unicode="?" horiz-adv-x="340" d="M134 673q37 0 76 -14.5t71 -41.5t53 -64.5t21 -83.5q0 -67 -30 -98q-14 -15 -34.5 -27.5t-42.5 -23.5l-40 -21q-19 -10 -28 -19q-3 -4 -6 -11.5t-3 -21.5q0 -8 1 -17.5t5 -20.5l-27 -7q-13 29 -20 49.5t-10 32.5q-4 14 -4 22t10 21t29 23q8 4 30 12l47 18q24 10 46.5 21 t31.5 22q5 5 6 13t1 17q0 26 -12.5 46t-30.5 38q-29 29 -59 37.5t-61 8.5q-20 0 -34.5 -4.5t-30.5 -13.5q-6 2 -10.5 10.5t-4.5 20.5t5 26t13 25t19 18.5t23 7.5zM165 -10q-25 0 -42 17t-17 41q0 25 17 42t42 17q24 0 41 -17t17 -42q0 -24 -17 -41t-41 -17z" />
<glyph unicode="@" horiz-adv-x="904" d="M522 100q1 20 1 50v58q0 6 -6 6q-1 0 -5 -2q-37 -23 -70.5 -39t-48.5 -37q-5 -8 -7 -17t-2 -20q0 -26 16 -41.5t39 -15.5q14 0 27 6t24 15t19.5 19t12.5 18zM732 540q29 -23 51 -54t36.5 -66t21.5 -73t7 -75q0 -70 -23.5 -123t-59 -88.5t-76.5 -53.5t-76 -18q-8 0 -20 1 t-25.5 7.5t-25.5 20t-19 37.5h-5q-4 -4 -17 -14.5t-31 -22t-37.5 -20t-37.5 -8.5q-15 0 -32 6.5t-30.5 19.5t-22.5 31.5t-9 42.5q0 18 8 37.5t34 37.5q10 7 29.5 15.5t43.5 17.5l48 20q25 10 48 21q7 4 8.5 8.5t1.5 22.5q0 21 -2.5 44t-11.5 36t-26 24.5t-46 11.5 q-28 0 -39 -12q-8 -8 -11 -19l-6 -21q-2 -9 -6 -15.5t-12 -6.5q-10 0 -21 4t-20.5 10.5t-15.5 15.5t-6 18t21 21t51 22t62.5 17t54.5 7q28 0 57 -14.5t44 -37.5q10 -15 12 -34.5t2 -40.5q0 -36 -1 -71t-1 -83q0 -30 0.5 -49t2.5 -32q3 -21 13 -26.5t27 -5.5q29 0 55 15 t45.5 45t31 74t11.5 101q0 73 -19.5 134.5t-67.5 104.5q-46 42 -102 63.5t-122 21.5q-71 0 -134 -27t-110.5 -74.5t-75 -111t-27.5 -136.5q0 -86 25.5 -157t71.5 -122t111 -79t144 -28q36 0 66.5 3.5t58.5 11.5t55.5 20.5t56.5 30.5l15 -22q-26 -22 -61 -38.5t-71 -27 t-70 -15.5t-58 -5q-90 0 -165 33t-129.5 89t-84.5 131t-30 159t32.5 156.5t88 126t130 84t158.5 30.5q154 0 259 -84z" />
<glyph unicode="A" horiz-adv-x="696" d="M236 -3q-29 2 -53.5 3.5t-43.5 2.5q-22 1 -41 1q-18 0 -36 -1q-15 -1 -32 -2.5t-30 -3.5l-4 29q11 2 20.5 6t17.5 8q9 4 17 9q14 9 28.5 30t26.5 48q5 12 17 43.5t33 93.5l56 162l84 246l97 13l66 -190l52 -146l41 -108l29 -76q29 -73 42 -94q9 -11 20 -20 q10 -8 23 -15.5t30 -9.5l-4 -29q-29 2 -53.5 3.5t-43.5 2.5q-22 1 -41 1t-40 -1q-18 -1 -41 -2.5t-48 -3.5l-2 28q27 4 44 9.5t26.5 12t12.5 13.5t3 14q0 8 -3 20.5t-9.5 32.5l-16.5 49l-26 70q-23 2 -59.5 3t-74.5 1q-40 0 -73.5 -1t-50.5 -3l-25 -70q-10 -30 -15.5 -50.5 t-8 -33t-2.5 -19.5q0 -5 2.5 -12t12.5 -13.5t28 -12.5t50 -10zM222 304q14 -1 30 -1.5t31 -0.5h35h36q16 0 36 0.5t40 1.5v1l2 6l-102 265h-11l-38 -95l-32 -85q-17 -45 -30 -85z" />
<glyph unicode="B" horiz-adv-x="627" d="M544 515q0 -27 -12 -50.5t-31 -43t-41.5 -34t-44.5 -23.5v-7q32 -8 63 -25t55.5 -41.5t39.5 -55.5t15 -67q0 -48 -25.5 -85.5t-69.5 -60.5q-12 -6 -30.5 -11t-38.5 -8t-40 -5t-36 -2q-51 0 -95 2.5t-78 2.5q-14 0 -49.5 -0.5t-82.5 -3.5l-3 27q26 4 42.5 10t26 13t14 14 t5.5 13q2 13 3.5 41t2.5 65.5t1.5 81t0.5 88.5t-0.5 87.5t-1 76.5t-2 56.5t-2.5 28.5q0 1 -3 5.5t-12 10t-25 10.5t-43 7l2 26q58 4 108 6.5t88 4t61 1.5h30q48 0 87.5 -12t67.5 -35q25 -21 39 -48.5t14 -59.5zM484 175q0 55 -24.5 92t-69.5 52q-25 8 -51.5 11t-49.5 3 q-22 0 -39 -1.5t-25 -2.5v-32q0 -41 0.5 -77.5t1.5 -65.5t2.5 -48t2.5 -25q4 -18 13 -26.5t21 -12.5q13 -4 25.5 -6t29.5 -2q16 0 38 2t37 7q45 15 66.5 52.5t21.5 79.5zM346 370q45 7 75 42.5t31 92.5v2q0 23 -8 45t-23 39.5t-37.5 29t-51.5 13.5q-8 1 -15 1h-15 q-23 0 -40.5 -2t-24.5 -4q-3 -6 -5 -30t-3.5 -60t-2.5 -80.5t-1 -90.5q5 -1 21 -1.5t36 -0.5q17 0 33.5 1t30.5 3z" />
<glyph unicode="C" horiz-adv-x="738" d="M647 497q-12 70 -76 107t-160 37q-41 0 -78.5 -10.5t-70 -30.5t-57.5 -50t-41 -70q-11 -29 -16 -60t-5 -63q0 -78 27.5 -150.5t79.5 -117.5q36 -31 82 -47.5t103 -16.5q33 0 64 5.5t58.5 22t50.5 46.5t40 79l25 -7q-8 -44 -13.5 -71t-9 -42t-5.5 -20l-2 -5 q-48 -28 -103.5 -42t-114.5 -14q-74 0 -145.5 23t-128.5 73q-54 46 -86.5 113t-32.5 160q0 54 17 101.5t46 87.5t67 70t81 48t92 25.5t94 7.5q34 0 72 -4q32 -3 73.5 -10t85.5 -20q9 -79 12 -115q2 -22 2 -36z" />
<glyph unicode="D" horiz-adv-x="802" d="M237 583q-2 -33 -3.5 -89.5t-1.5 -119.5v-40q0 -93 2 -158.5t7 -85.5q5 -17 15.5 -27t23.5 -15q14 -5 41 -7.5t55 -2.5q79 0 133.5 22.5t88.5 60.5t49 88.5t15 106.5q0 64 -15 121.5t-63 103.5q-41 39 -99 62.5t-131 23.5q-16 0 -48 -1.5t-66 -8.5q-1 -7 -1.5 -12.5 t-0.5 -10.5q-1 -5 -1 -11zM393 -5q-43 0 -94.5 3.5t-97.5 3.5q-13 0 -33.5 -0.5t-41.5 -1.5t-39 -1.5t-27 -1.5l-3 27q20 2 34.5 10t24.5 16q11 10 18 21q2 4 3.5 21.5t2.5 45t1.5 62.5t0.5 73q0 52 -0.5 106t-2 99t-3 75.5t-2.5 36.5q0 1 -3.5 7t-13.5 13t-28.5 13.5 t-48.5 8.5l1 26q37 3 77 5l80 4q40 2 77.5 3t69.5 1q42 0 81 -3.5t68 -9.5q66 -13 116.5 -45.5t85 -76.5t52.5 -95.5t18 -103.5q0 -85 -30 -149t-81.5 -107t-119 -64.5t-142.5 -21.5z" />
<glyph unicode="E" horiz-adv-x="644" d="M468 238q-3 22 -10.5 37.5t-17.5 25t-21 14.5t-23 7q-23 3 -58 3.5t-67 0.5h-51v-78q0 -38 1 -71t2 -59t3 -41q2 -17 14.5 -21t29.5 -6q23 -3 53.5 -4.5t60.5 -1.5q32 0 58.5 2t35.5 6q31 14 58 45.5t42 73.5l30 -5v1q-9 -48 -17 -79l-13 -50q-7 -23 -12 -36 q-25 -2 -52.5 -3t-62.5 -1q-20 0 -55 0.5t-74 1.5t-77.5 1.5t-66.5 0.5q-12 0 -30 -0.5t-37 -1.5t-36 -1.5t-27 -1.5q-1 6 -2 11t-1 9v7q23 6 37.5 12.5t23.5 14t12.5 16.5t5.5 22q1 15 2.5 39.5t2 55t1 66t0.5 72.5v74q0 36 -0.5 68.5t-1.5 59t-2 43.5q-1 15 -4.5 25.5 t-12.5 18.5t-25.5 14t-43.5 11l3 26q19 -2 58.5 -3t78.5 -1q29 0 66 0.5t73.5 1.5t68 1.5t49.5 0.5q57 0 122 -3l17 -156l-27 -3q-12 45 -33.5 77.5t-58.5 36.5q-20 2 -48.5 2.5t-57.5 0.5q-21 0 -41.5 -0.5t-37.5 -1t-29 -1t-16 -1.5q-2 -7 -3 -26.5t-2 -47t-1.5 -62 t-0.5 -70.5v-44h14q13 0 33 0.5t44.5 1t46.5 1.5t38.5 2.5t22.5 3.5q9 3 16 6.5t13 10.5t11.5 18.5t12.5 30.5l24 -3q-5 -27 -7.5 -52.5t-2.5 -50.5q0 -22 2 -44.5t6 -46.5z" />
<glyph unicode="F" horiz-adv-x="593" d="M227 610q-2 -5 -3.5 -23.5t-2 -45.5t-1 -61t-0.5 -70v-57h36h46q24 0 46.5 1t40.5 2t24 3q10 3 21 11q9 7 18 19t15 32l24 -3q-7 -46 -9 -70q-1 -14 -1 -23q0 -12 1 -27q1 -14 2.5 -32.5t4.5 -41.5l-26 -3q-3 26 -12 42t-19 25q-11 11 -25 15q-8 2 -21.5 3.5t-30.5 2 t-36.5 1t-37.5 0.5h-34q-16 0 -27 -1q0 -35 0.5 -68t1.5 -62t1.5 -52t2.5 -37q1 -13 5 -23t14.5 -17.5t30 -13t52.5 -9.5l-3 -30q-42 3 -78 4.5t-71 1.5q-64 0 -128 -6l-3 27q27 5 42.5 11.5t23.5 14.5t10.5 17.5t3.5 19.5q3 29 4 89.5t1 131.5q0 74 -1 143.5t-3 110.5 q-1 16 -4 27t-12 19.5t-25.5 15t-43.5 12.5l3 26q31 -2 52.5 -2.5t36.5 -1t25 -0.5h20q27 0 63.5 0.5t72.5 1.5t68.5 1.5t52.5 0.5h31q14 0 31 -0.5t35 -1.5l29 -161l-27 -6q-4 15 -12.5 34.5t-20.5 37.5t-27.5 32t-34.5 17q-8 1 -22 1.5t-33 0.5q-23 0 -48.5 -0.5t-48 -1.5 t-39 -2t-21.5 -2z" />
<glyph unicode="G" horiz-adv-x="746" d="M652 19q-11 -2 -27.5 -5.5t-33.5 -7.5q-19 -4 -40 -10q-27 -7 -59.5 -13t-75.5 -6q-68 0 -136 22t-123.5 67.5t-90 115t-34.5 164.5q0 54 17 101.5t45.5 87.5t66.5 70t80 48t90.5 25.5t93.5 7.5q36 0 75 -4q33 -3 74 -10t82 -20q9 -79 12 -115q2 -22 3 -36l-27 -5 q-14 72 -72.5 108.5t-157.5 36.5q-53 0 -101.5 -17.5t-86.5 -52.5t-60.5 -89t-22.5 -127q0 -76 21 -137t60 -104t93.5 -66t121.5 -23q13 0 31.5 3t36.5 8.5t31.5 12t17.5 14.5q5 11 7 27t2 33q0 36 -4.5 63.5t-12.5 43.5q-7 14 -34 23.5t-65 17.5l3 27q40 -3 70.5 -4 t50.5 -2q24 -1 41 -1q16 0 34 1q15 1 34 2t39 4v-29q-37 -9 -50 -22.5t-15 -30.5q-2 -12 -2 -31v-41q0 -31 1 -62t4 -50z" />
<glyph unicode="H" horiz-adv-x="840" d="M796 -3q-31 2 -55.5 2.5t-41.5 1.5q-20 1 -35 1q-16 0 -35 -1q-17 -1 -40.5 -1.5t-53.5 -2.5l-3 27q27 7 43 13.5t24 15t11 20.5t4 31q2 35 3 93t1 123q-11 1 -34 1.5t-52.5 1.5t-63 1.5t-66.5 0.5q-32 0 -61 -0.5t-53 -1.5t-41 -2t-26 -2q0 -34 0.5 -67t1.5 -62 t1.5 -53.5t2.5 -40.5q1 -14 4 -25t11.5 -19.5t25.5 -14.5t46 -10l-3 -30q-31 2 -55.5 2.5t-41.5 1.5q-20 1 -36 1t-35 -1q-17 -1 -41 -1.5t-54 -2.5l-3 27q26 6 41.5 13t24 16t11.5 20.5t4 27.5q2 28 3 73t1 99q0 44 -0.5 90t-1 86.5t-1.5 73.5t-2 51q-2 33 -21.5 44 t-62.5 20l3 26q32 -3 58 -4t44 -2q21 -1 37 -1q17 0 36 1q17 1 39 2t48 4l3 -26q-23 -6 -38.5 -11.5t-24.5 -13.5t-13.5 -19t-5.5 -27q-3 -26 -4 -77t-2 -114q19 -1 82 -2t175 -1q56 0 90.5 1t48.5 2q-1 66 -1.5 116.5t-2.5 79.5q-2 16 -5.5 26t-13 17t-25.5 12t-41 11l3 26 q55 -5 86 -5.5t49 -0.5q29 0 58 1t68 5l3 -26q-24 -7 -39 -12.5t-24 -12.5t-13.5 -17t-6.5 -25q-4 -35 -4.5 -96t-0.5 -130v-70q0 -35 0.5 -66.5t1.5 -58.5t2 -46t3.5 -31.5t11.5 -21t26 -14t47 -10.5z" />
<glyph unicode="I" horiz-adv-x="354" d="M309 -2q-38 2 -73.5 3t-70.5 1q-32 0 -62 -1t-59 -3l-3 27q26 4 41.5 10.5t24 15t11.5 18t4 20.5l2 43q2 27 2.5 60t1 70.5t0.5 75.5q0 72 -1 133.5t-4 96.5q-1 16 -4.5 26.5t-12.5 18t-25 13t-41 11.5l3 26q38 -4 68.5 -5t60.5 -1t61.5 1t73.5 5l3 -27q-26 -5 -42 -11 t-24.5 -13.5t-12 -18t-4.5 -23.5q-2 -18 -3 -46.5t-1.5 -63.5t-1 -74.5t-0.5 -79.5q0 -69 1.5 -128t3.5 -90q1 -15 4.5 -24.5t12.5 -16t25.5 -11t43.5 -8.5z" />
<glyph unicode="J" horiz-adv-x="384" d="M344 637q-27 -8 -42 -14.5t-22.5 -16t-10 -24t-3.5 -38.5q-1 -20 -1 -44v-51q0 -91 3 -186t3 -175q0 -53 -17 -99t-48.5 -84.5t-75.5 -69t-98 -52.5l-16 28q40 19 68 43.5t45.5 53.5t26.5 62t12 71q5 53 5.5 109.5t0.5 114.5v75q0 38 -1 75t-2 69.5t-3 56.5q-2 26 -6 41 t-14 25t-28 16t-49 14l3 26q39 -4 74 -5.5t68 -1.5t63 1.5t62 5.5z" />
<glyph unicode="K" horiz-adv-x="731" d="M723 -3q-32 2 -57.5 2.5t-42.5 1.5q-21 1 -36 1q-16 0 -37 -1q-18 -1 -43.5 -1.5t-57.5 -2.5l-3 27q30 5 40.5 12.5t10.5 12.5q0 7 -6 15q-8 13 -27 37l-44 53l-52 58l-49 54l-39 40q-17 17 -21 19t-14 2q-7 0 -14 -1t-12 -3q0 -119 3.5 -180t11.5 -80q5 -8 23 -21 t56 -15l-3 -30q-31 2 -55.5 2.5t-41.5 1.5q-20 1 -37 1q-16 0 -36 -1q-17 -1 -40.5 -1.5t-52.5 -2.5l-3 27q31 4 48.5 17t24.5 22q3 4 5.5 14t4 39t2.5 84.5t1 150.5q0 45 -1 87.5t-2.5 76.5t-3.5 56t-4 26q-5 8 -22 20.5t-57 19.5l3 26q23 -3 59.5 -4.5t71.5 -1.5 q32 0 69 1t62 4l3 -26q-35 -8 -51.5 -20t-22.5 -20q-5 -5 -7.5 -22.5t-4.5 -44t-2.5 -60t-0.5 -71.5v-37h8q7 2 17 6t20 10q25 16 57 45t61.5 61t53 61t32.5 44q4 8 4 14q0 9 -6 15q-6 4 -15 8q-8 3 -19.5 6t-28.5 5l3 26q49 -4 82.5 -5t47.5 -1q8 0 41 1t94 6l3 -26 q-14 -2 -28.5 -5.5t-25.5 -7.5q-13 -4 -26 -10q-11 -5 -31 -18t-40 -30q-36 -32 -67.5 -70t-67.5 -68q-6 -6 -14 -13l-17 -14l-21 -17v-9q5 -5 15 -14t21 -20l40 -44l48 -52l50 -55l49 -51l41 -43q18 -18 28 -26q15 -12 31 -22q14 -8 31 -15t36 -7z" />
<glyph unicode="L" horiz-adv-x="643" d="M592 2q-32 -2 -72.5 -3t-92.5 -1q-21 0 -51.5 0.5t-64 1.5t-67.5 1.5t-61 0.5q-36 0 -69 -1.5t-67 -3.5l-3 27q25 6 40.5 13t24 16.5t12 21.5t4.5 28q1 18 2 45t1.5 58.5t1 66.5t0.5 71v60l-2 60q0 29 -1.5 54.5t-2.5 44.5q-2 19 -5 30.5t-12 19t-25 13t-42 11.5l3 26 q29 -4 66 -5.5t75 -1.5t75 1.5t68 5.5l3 -26q-33 -8 -53 -14t-31 -13.5t-15 -18.5t-5 -27q-3 -34 -4.5 -94t-1.5 -127q0 -38 0.5 -75.5t1 -70.5t1.5 -59.5t3 -41.5q3 -30 26 -38q14 -5 44.5 -7t66.5 -2q61 0 97.5 3t59.5 18q22 15 45 43.5t57 84.5l29 -9z" />
<glyph unicode="M" horiz-adv-x="1006" d="M875 80q2 -13 10 -21.5t20.5 -15t28.5 -10.5l32 -8l-3 -27q-32 3 -68 4t-72 1t-69.5 -1t-62.5 -4l-3 28q40 5 56.5 17.5t21.5 19.5q5 8 6 25.5t1 49.5q0 40 -1 95.5t-3 112.5l-4 112q-2 54 -4 93l-6 2l-268 -564l-27 -1l-252 567l-7 -1l-5 -95l-6 -119q-3 -62 -5 -120.5 t-2 -97.5q0 -21 1 -36.5t7 -24.5t25.5 -20.5t58.5 -14.5l-3 -28q-20 2 -51 3.5t-64 1.5q-36 0 -69 -1.5t-53 -3.5l-3 27q20 2 34 10t24 16q11 10 19 21q3 5 6.5 31.5t6.5 66.5l8 88l8 99q5 66 8 123.5t3 88.5q0 12 -1.5 21t-10.5 17.5t-28 15.5t-53 14l3 26q23 -2 55 -3.5 t66 -1.5q26 0 50 0.5t44 2.5q14 -41 43 -112l67 -162l109 -252h10l33 71l42 92l46 103l44 102l40 90l27 66q17 -1 37.5 -1.5t43.5 -0.5q59 0 121 6l3 -27q-36 -6 -56 -16.5t-25 -18.5t-5.5 -17.5t-0.5 -29.5q0 -28 1 -70t3 -90l4 -98q2 -49 4.5 -92.5t5 -76.5t4.5 -47z" />
<glyph unicode="N" horiz-adv-x="848" d="M37 662q25 -2 52 -3.5t54 -1.5q41 0 76 3l441 -512l8 2v193q0 89 -0.5 140t-2.5 77q-2 20 -6.5 32.5t-15 20t-29 11.5t-46.5 8l3 30q29 -2 60 -3.5t63 -1.5t62 1.5t57 3.5l3 -27q-24 -6 -39.5 -12t-24.5 -14t-13.5 -20.5t-5.5 -30.5q-2 -21 -3.5 -60.5t-3 -105.5 t-2.5 -163.5t-1 -234.5l-48 -8l-479 555l-7 -3q-1 -48 -1 -88v-74q0 -69 0.5 -118.5t1.5 -83.5t2 -54t3 -32q2 -16 7.5 -25.5t16.5 -16t28 -10t42 -7.5l-3 -30q-31 2 -61 3t-60 1q-32 0 -63 -1t-59 -3l-3 27q23 6 37.5 11t23.5 11.5t13.5 16.5t6.5 25q3 20 5 51.5t3 69 t1.5 79.5t0.5 83q0 38 -0.5 73t-1.5 63.5t-2.5 48.5t-3.5 28q-6 24 -31.5 34t-57.5 15z" />
<glyph unicode="O" horiz-adv-x="791" d="M32 336q0 78 27.5 143t76 111t116.5 71.5t149 25.5q79 0 144 -25t111.5 -70.5t72.5 -109.5t26 -141q0 -79 -28 -146t-77 -116t-114.5 -76.5t-141.5 -27.5q-71 0 -136.5 27t-115.5 75t-80 114t-30 145zM240 594q-47 -37 -73.5 -97.5t-26.5 -140.5q0 -76 21.5 -138 t58.5 -105.5t86 -67t104 -23.5q53 0 98 21.5t77.5 61t50.5 94.5t18 122q0 95 -35 166.5t-93 110.5q-32 21 -68 32.5t-75 11.5q-83 0 -143 -48z" />
<glyph unicode="P" horiz-adv-x="587" d="M262 310q6 -2 12 -2h14q29 0 57 5t53 21q33 21 48.5 59.5t15.5 85.5q0 28 -9 57.5t-30 50.5q-20 20 -47 33.5t-63 13.5q-23 0 -48 -2.5t-36 -4.5q-2 -11 -4 -45t-3.5 -82t-2.5 -105t-1 -113v-77q0 -37 1 -66t3.5 -49.5t6.5 -27.5q5 -9 24 -20t68 -14l-4 -30 q-25 2 -58.5 4t-69.5 2q-39 0 -77 -2l-69 -5l-3 27q38 5 53 15t22 19q4 5 6.5 34t4 70.5t2 90.5t0.5 94q0 73 -1 134t-4 93q-2 28 -18 39t-65 19l2 26l121 8l77 4q30 1 48 1h33q70 0 116.5 -18t74 -45t38.5 -58.5t11 -58.5q0 -56 -22.5 -96.5t-57.5 -67.5t-76.5 -40 t-79.5 -13q-16 0 -36 3t-31 8z" />
<glyph unicode="Q" horiz-adv-x="815" d="M1047 -124q-26 -15 -52 -22.5t-46 -11.5q-24 -4 -46 -5q-45 0 -86 8t-78 27l-49 25l-73 35l-72 35l-47 22q-51 -14 -104 -14q-71 0 -136.5 27t-115.5 75t-80 114t-30 145q0 78 27 143t75.5 111t116 71.5t148.5 25.5t146.5 -24.5t112 -70t72 -109.5t25.5 -142 q0 -100 -43.5 -179.5t-116.5 -127.5l1 -7q12 -2 19 -4t18 -6q16 -6 67 -28l153 -68q48 -22 85 -25.5t51 -3.5q12 0 25.5 1t25.5 5zM408 22q54 0 99 21.5t77.5 60.5t51 94t18.5 123q0 74 -21.5 133.5t-58.5 101t-86.5 64t-104.5 22.5q-53 0 -98 -20.5t-77.5 -58.5 t-50.5 -91.5t-18 -119.5q0 -79 23.5 -143.5t70.5 -111.5q35 -35 79.5 -55t95.5 -20z" />
<glyph unicode="R" horiz-adv-x="744" d="M449 488q0 34 -13 66t-42 52q-16 11 -37.5 16t-44.5 5t-47.5 -2t-35.5 -4q-2 -6 -4 -35t-3.5 -71t-2 -93t-0.5 -102h28q17 0 35.5 0.5t37 1.5t31.5 2q40 21 68.5 63.5t29.5 100.5zM759 -1q-12 -4 -27 -6t-29 -3q-16 -1 -32 -1q-21 0 -44 3t-48.5 13.5t-52.5 30t-55 51.5 l-35 41l-44 52l-41 48l-22 26q-17 20 -35 24.5t-35 4.5q-11 0 -22 -0.5t-18 -2.5q0 -39 0.5 -75.5t1.5 -66t3 -50t6 -27.5q5 -8 23.5 -20t60.5 -14l-4 -30q-31 2 -64 3.5t-66 1.5q-35 0 -69 -1.5t-66 -3.5l-3 27q35 5 52.5 16t22.5 19q3 5 5.5 34.5t3.5 73t1.5 96t0.5 103.5 q0 63 -1.5 118.5t-3.5 86.5q-1 16 -4.5 25.5t-12 15.5t-24.5 10l-42 10l1 26q72 4 121.5 6t82.5 3t51 1h30q35 0 73 -5.5t64 -19.5q86 -47 86 -139q0 -30 -14.5 -58.5t-37 -54t-49.5 -46t-52 -34.5v-6q20 -14 33 -25.5t26 -26.5l19 -23l34 -40l36 -42q16 -20 23 -27 q29 -33 53 -52t46 -29t44 -13t49 -3v-25z" />
<glyph unicode="S" horiz-adv-x="501" d="M434 518l-29 -3q-6 33 -19 57t-32 39t-42.5 22t-49.5 7q-51 0 -85 -27t-34 -75q0 -56 44 -90q35 -27 82 -52t89 -55q33 -23 53 -45.5t31.5 -45t15 -44t3.5 -43.5q0 -29 -13.5 -61t-40.5 -59.5t-68.5 -45.5t-97.5 -18q-24 0 -52 4q-24 3 -55 10t-66 21q-5 14 -10 36 q-5 19 -10 47.5t-10 70.5l32 7q8 -28 22.5 -55t36.5 -48.5t53 -35t73 -13.5q26 0 48.5 8t39 22.5t26 33.5t9.5 41q0 31 -14.5 61.5t-57.5 62.5q-17 13 -37 26l-41 26l-39 24q-19 11 -34 21q-47 33 -65.5 74.5t-18.5 81.5q0 29 11 60.5t35 57t62.5 42t94.5 16.5q45 0 81.5 -7 t65.5 -15z" />
<glyph unicode="T" horiz-adv-x="690" d="M392 612q-2 -20 -2.5 -49t-1.5 -64t-1 -74v-79v-80q0 -40 1 -74.5t1.5 -62t2.5 -43.5q1 -12 5 -21.5t14.5 -17t28.5 -12.5t47 -8l-3 -30q-40 3 -75 4.5t-69 1.5q-36 0 -71.5 -1.5t-74.5 -4.5l-3 27q31 4 49.5 10.5t28.5 14.5t13.5 18.5t4.5 22.5q2 20 3.5 54t2 76t1 89.5 t0.5 94.5q0 65 -1 122t-2 89q-63 0 -109 -3t-68 -17q-20 -14 -35 -43.5t-29 -68.5l-28 6q11 41 18 74t11 56q4 27 6 49l12 2l79 -11h455l39 3l8 -5v-176l-29 -2q-6 38 -11 63t-16.5 40.5t-33 22t-60.5 8.5q-29 2 -60 2h-44z" />
<glyph unicode="U" horiz-adv-x="788" d="M109 212q-1 12 -1 24v27q0 39 1.5 86.5t1.5 92.5q0 29 -0.5 56t-2 48t-3 35t-4.5 18q-5 8 -21.5 19t-55.5 18l3 26q28 -3 63 -4.5t72 -1.5q35 0 69.5 1.5t63.5 4.5l3 -26q-40 -7 -58 -19.5t-23 -20.5q-4 -7 -6.5 -32t-3.5 -61.5t-1.5 -80.5t-0.5 -89q0 -27 0.5 -54 t2.5 -57q2 -35 12.5 -69t33 -60.5t59 -42.5t91.5 -16q89 0 142 38q35 25 53 61t24 74q5 35 6 75t1 72q0 29 -1 68.5t-3.5 77t-7.5 66.5t-13 37t-26.5 17.5t-57.5 11.5l3 30q29 -2 61 -3.5t65 -1.5q31 0 61 2t56 4l1 -27q-28 -3 -45.5 -13.5t-25.5 -22.5q-6 -9 -9 -34 t-4.5 -58.5t-1.5 -73.5l-2 -79v-75q-1 -36 -3 -61q-2 -23 -5.5 -47.5t-14.5 -47.5q-20 -42 -57.5 -79.5t-99.5 -56.5q-22 -7 -49 -10.5t-54 -3.5q-45 0 -78.5 6t-59.5 15q-44 16 -72.5 41.5t-45 55.5t-23.5 61t-9 59z" />
<glyph unicode="V" horiz-adv-x="723" d="M375 -21h-40l-72 179l-57 140l-45 107l-33 77q-33 74 -47 102q-9 14 -20 25q-11 10 -26 17.5t-35 8.5l3 28q32 -4 68.5 -5.5t74.5 -1.5q73 0 147 6l2 -28q-29 -5 -46 -10.5t-25.5 -12.5t-11 -15t-2.5 -17q0 -11 3 -28t11.5 -44.5t22.5 -67t36 -95.5l5 -14l14 -35l18 -49 l22 -53l19 -49q9 -22 15 -35l8 1l16 35q11 22 22 49l22 52l22 49l14 35l6 14q24 54 39 93.5t23.5 66.5t11.5 44.5t3 28.5q0 10 -2.5 18.5t-11 16t-25 13t-44.5 9.5l3 28q64 -6 122 -6q32 0 62.5 1.5t61.5 5.5l2 -29q-20 -2 -35 -10t-26 -18q-12 -11 -21 -25 q-16 -28 -50 -102l-35 -77l-48 -105l-63 -140l-78 -179v1z" />
<glyph unicode="W" horiz-adv-x="1052" d="M1058 662q0 -6 1 -11q0 -5 0.5 -10t0.5 -8q-15 -2 -25.5 -4.5t-19.5 -8t-17.5 -14t-17.5 -21.5q-5 -7 -16 -34l-28 -67l-37 -91l-41 -102l-40 -103l-35 -92l-27 -72q-11 -29 -15 -38h-44l-67 189l-52 144l-46 125h-8l-197 -458h-53l-71 234l-51 164q-21 67 -35 107 l-23 63q-8 22 -12.5 31.5t-7.5 13.5q-7 9 -22.5 20t-51.5 14l5 29q28 -3 52 -4t42 -2q21 -1 39 -1t40 1q19 1 45 2t58 4l1 -28q-26 -5 -40.5 -10.5t-22.5 -13.5t-10 -18.5t-2 -23.5q0 -11 2 -27.5t7.5 -41t14.5 -59t23 -82.5q13 -42 25 -85l23 -80l23 -80h9l82 187l48 112 l28 70q2 6 3.5 14.5t1.5 15.5q0 12 -4 26.5t-10 28t-12 24t-10 15.5q-8 8 -23.5 16t-41.5 11l2 28q29 -2 53 -3t42 -2q21 -1 39 -1t40 1q19 1 45.5 2t58.5 3l3 -28q-30 -4 -47 -9.5t-26 -12.5t-11.5 -15.5t-2.5 -17.5q0 -11 3 -27.5t11 -40.5l18 -60l29 -85l30 -92l28 -81 l27 -75h10l34 94l30 83l29 82q57 160 57 212q0 6 -2.5 12.5t-11 13t-25.5 12t-46 7.5l3 28q45 -3 71.5 -4t48.5 -1q24 0 57 1.5t65 4.5z" />
<glyph unicode="X" horiz-adv-x="691" d="M687 -3q-29 2 -53.5 3.5t-43.5 2.5q-22 1 -40 1t-43 -1l-52 -3l-69 -3l-2 28q24 2 38 6.5t21.5 10t9.5 10t2 7.5q0 12 -9.5 34.5t-25.5 51.5t-38 63l-47 72h-9l-56 -77q-26 -36 -45 -65t-30 -49t-11 -29q0 -8 13.5 -20t54.5 -15l-2 -28q-32 3 -62.5 5t-62.5 2 q-28 0 -55.5 -1.5t-59.5 -5.5l-4 28q20 3 36.5 11t29.5 16q15 10 28 21q16 16 42 47l54 66l56 70l47 62v9l-39 60l-44 69l-48 70q-24 33 -45 57q-20 20 -43 35t-61 18l4 29q26 -3 50 -4t42 -2q21 -1 39 -1t43 1q21 1 51.5 2t69.5 4l2 -28q-23 -2 -37 -6.5t-21.5 -10t-10 -11 t-2.5 -8.5q0 -12 8 -32t23 -46.5t35 -58.5t44 -67h11l53 71q24 34 41 60.5t26.5 45.5t9.5 28q0 2 -1.5 6.5t-8 10t-20 10.5t-36.5 8l3 28q25 -3 48 -4t40 -2q20 -1 38 -1t36 1q16 1 35 2t36 4l3 -29q-19 -3 -35.5 -11t-28.5 -16q-15 -10 -27 -21q-14 -14 -38 -42l-49 -61 l-53 -67l-46 -62v-6l35 -57l47 -74q26 -39 54 -77t53 -66q4 -5 13 -13t22.5 -16t31 -14.5t39.5 -7.5z" />
<glyph unicode="Y" horiz-adv-x="713" d="M611 657q19 0 37 1q16 1 34.5 2t35.5 4l3 -28q-20 -3 -35.5 -12t-27.5 -18q-14 -11 -25 -24q-17 -21 -46 -62l-61 -88l-62 -92l-52 -79q0 -86 1 -138.5t6 -61.5q7 -11 29.5 -20t57.5 -12l-3 -30q-33 2 -59 2.5t-44 1.5q-21 1 -37 1t-36 -1q-17 -1 -41.5 -1.5t-54.5 -2.5 l-3 27q38 2 57 13.5t26 21.5q3 4 4.5 19.5t2.5 39.5t1 54v64l-27 43l-40 60l-44 69l-46 70l-42 60l-31 45q-11 13 -24 24q-12 9 -28.5 17t-36.5 10l4 28q31 -3 57 -4t46 -2q23 -1 41 -1t41 1q20 1 46 2t58 4l2 -28q-36 -5 -58.5 -15t-22.5 -22q0 -28 43 -100q19 -33 49 -81 l77 -115h8q64 97 98.5 155t49.5 88q8 17 13 29t5 21q0 13 -19.5 23t-61.5 17l3 28q26 -3 50 -4t42 -2q21 -1 40 -1z" />
<glyph unicode="Z" horiz-adv-x="674" d="M120 664l53 -4h444l4 -19l-439 -585q0 -2 0.5 -5.5t2.5 -5.5q57 0 109.5 0.5t95 2t72.5 3.5t44 6q15 4 30.5 17.5t29.5 33t25.5 43.5t19.5 50l31 -7q-14 -104 -24 -149t-10 -44h-556l-7 24l435 583l-2 10q-45 0 -90 -1t-83.5 -2.5t-68 -4t-42.5 -6.5q-29 -8 -54 -39.5 t-48 -79.5l-28 8l47 168z" />
<glyph unicode="[" horiz-adv-x="289" d="M153 -138q6 -8 20 -13q12 -5 35 -9t61 -4v-28h-197v891h197v-31q-40 -2 -62.5 -6t-34.5 -9q-14 -6 -19 -13q-5 -48 -9.5 -147t-4.5 -225q0 -63 2 -124.5t4 -115.5t4.5 -97.5t3.5 -68.5z" />
<glyph unicode="\" horiz-adv-x="382" d="M382 -218l-20 48l-54 125l-77 177l-89 203l-92 203l-83 177l9 13h57l398 -927z" />
<glyph unicode="]" horiz-adv-x="289" d="M136 -138q1 25 3.5 68.5t4.5 97.5t4 115.5t2 124.5q0 126 -4.5 225t-9.5 147q-5 7 -19 13q-12 5 -35 9t-62 6v31h197v-891h-197v28q38 0 61 4t35 9q14 5 20 13z" />
<glyph unicode="^" horiz-adv-x="369" d="M177 555l-109 -162l-13 7l124 262h20l124 -262l-12 -10z" />
<glyph unicode="_" horiz-adv-x="650" d="M599 58l-6 -58q-42 2 -99 2.5t-122 0.5q-81 0 -166 -1.5t-158 -4.5l-5 14l19 48z" />
<glyph unicode="`" d="M238 479l-128 142q12 15 28.5 23t31.5 12q18 4 35 5l71 -172z" />
<glyph unicode="a" horiz-adv-x="412" d="M253 214q-2 2 -5 2q-12 -11 -29 -20l-35 -17l-32.5 -18t-24.5 -21q-7 -9 -9 -17.5t-2 -17.5q0 -27 13 -45t41 -18q14 0 27 5.5t23.5 14.5t19 19.5t13.5 20.5q1 11 1.5 27t0.5 32q0 11 -0.5 19.5t-0.5 16.5v16zM317 375q9 -14 11 -31t2 -37q0 -35 -1 -72t-1 -84 q0 -31 1.5 -55.5t4.5 -32.5q7 -20 26 -20q18 0 37 22l13 -23q-23 -28 -50 -39t-44 -11q-20 0 -37 18t-25 47h-5q-8 -9 -22.5 -21t-31.5 -22t-34.5 -17t-32.5 -7t-31 6.5t-29 19.5t-21.5 31.5t-8.5 42.5q0 17 6 37t30 38q12 9 32 17l44 16l47.5 19t45.5 24q6 5 8 9t2 9 q0 15 -1 30.5t-3 31.5q-3 26 -24 45.5t-56 19.5q-29 0 -42 -13q-8 -7 -11.5 -16.5t-6.5 -18.5t-7 -15t-11 -6q-20 0 -35 14t-15 28q0 9 21 21t50 22.5t59 17.5t48 7q28 0 56 -14.5t42 -37.5z" />
<glyph unicode="b" horiz-adv-x="498" d="M357 83q14 20 20.5 51.5t6.5 66.5q0 37 -8.5 68t-25 53.5t-40.5 35t-55 12.5q-28 0 -55.5 -10t-48.5 -29q0 -13 -0.5 -27t-1 -31.5t-0.5 -40.5v-52q0 -32 0.5 -54t4.5 -38q8 -32 35 -46t59 -14t61.5 14.5t47.5 40.5zM158 704q-3 -56 -4 -107t-1.5 -94t-1 -76.5 t-0.5 -54.5l6 -2q26 20 49 31t40.5 16t28.5 6t14 1q45 0 79.5 -18t57.5 -50q35 -49 35 -119q0 -44 -11.5 -80.5t-31 -65t-44.5 -49.5t-51 -33q-41 -19 -92 -19q-29 0 -59 7t-57 21l-39 -14l-7 7q2 33 4 77.5t3 94.5t1.5 102.5t0.5 101.5q0 45 -0.5 84.5t-1 70t-2 49.5 t-4.5 23q-5 7 -17.5 14t-41.5 15v20q40 10 65.5 18t40.5 14q18 7 27 13z" />
<glyph unicode="c" horiz-adv-x="396" d="M276 424q20 -1 37.5 -4t31.5 -9q20 -9 24.5 -13.5t4.5 -17.5q0 -17 -13 -32t-27 -15q-9 0 -16 4.5t-14 10.5l-14 15q-8 8 -19 14q-13 7 -32 7q-23 0 -48 -12t-45 -39q-17 -23 -24.5 -51t-7.5 -57q0 -44 15 -83.5t40 -60.5q21 -18 43 -25.5t42 -7.5q35 0 59.5 17t46.5 42 l16 -24q-36 -41 -73 -67.5t-90 -26.5q-38 0 -75.5 19t-65.5 59q-14 21 -24 52t-10 67q0 27 6 55t20 55.5t37 53t58 46.5q25 15 56 21.5t61 6.5z" />
<glyph unicode="d" horiz-adv-x="502" d="M352 176q0 5 0.5 17t0.5 27v32q0 18 -0.5 34.5t-0.5 30.5v23q-16 25 -46 37t-60 12q-57 0 -95 -44t-38 -123q0 -41 10.5 -73.5t27.5 -55t40 -34t49 -11.5t44 8.5t32 22.5q23 23 28.5 45t7.5 52zM428 92q3 -9 10 -17q6 -7 18 -13.5t32 -10.5v-19q-30 -5 -53 -12.5 t-40 -15.5q-19 -9 -33 -18l-12 5v79h-6q-10 -14 -26 -28.5t-35.5 -26t-40.5 -19t-41 -7.5q-24 0 -52 10.5t-53 34t-41.5 60.5t-16.5 91q0 63 21.5 108.5t54.5 74.5t72 43t74 14q23 0 45.5 -4.5t41.5 -11.5h5v73q0 25 -0.5 48t-1 41.5t-2.5 31t-5 15.5q-6 6 -21.5 14.5 t-44.5 15.5v19q38 8 65 15.5t44 13.5q19 7 32 13l12 -5q0 -6 -0.5 -30t-1 -61t-0.5 -83l-2 -95v-99q-1 -49 -1 -92q0 -60 0.5 -102t2.5 -50z" />
<glyph unicode="e" horiz-adv-x="426" d="M388 251q-25 -5 -55 -6t-56 -1q-36 0 -71.5 0.5t-85.5 2.5q-4 -1 -5.5 -4t-1.5 -14v-16q0 -8 1 -16q4 -34 17.5 -61t33 -45.5t43 -28.5t49.5 -10q21 1 42 7q18 5 39 16.5t41 33.5l12 -29q-19 -25 -43 -42.5t-48 -28.5t-46 -16t-37 -5q-33 0 -66 15t-59 41q-14 14 -24 32 t-16.5 37.5t-10 39t-3.5 37.5q0 29 4 56.5t15 52.5q24 57 72 92.5t109 35.5q30 0 54.5 -14t42 -33t28.5 -40t16 -34l17 -36zM116 277q11 0 40 0.5t60 2.5q36 1 79 3q11 3 11 15q0 5 -2.5 14t-5.5 16q-11 24 -31 43t-50 19q-32 0 -57 -22q-33 -29 -44 -91z" />
<glyph unicode="f" horiz-adv-x="337" d="M327 709q26 0 47 -7t21 -16q0 -11 -4 -22q-3 -9 -9.5 -19.5t-17.5 -19.5q-5 3 -15.5 8.5t-23.5 10.5t-26 9t-23 4q-23 0 -43.5 -17.5t-30.5 -65.5q-5 -20 -8 -63.5t-3 -98.5h131l-6 -56h-124v-88v-68q0 -33 0.5 -60.5t1.5 -47t2 -28.5q2 -10 12 -18q8 -7 25 -13t46 -8 l-3 -27q-63 6 -116 6q-30 0 -57.5 -2t-52.5 -5l-3 27q20 6 32.5 10.5t19.5 9t9.5 9.5t3.5 12q1 8 2 28.5t1.5 47t1 56.5t0.5 59q0 37 -0.5 65t-2.5 35h-85l-5 27l92 36q0 32 4 63t13 61q12 40 33 71t47 52t55.5 32t58.5 11z" />
<glyph unicode="g" horiz-adv-x="469" d="M463 413l1 -11l-7 -46l-88 14q-3 -2 -5 -5q-1 -2 -1 -3q5 -8 11 -26t6 -41q0 -29 -13 -54.5t-35 -45.5t-51.5 -31.5t-63.5 -11.5q-5 0 -10 0.5t-10 1.5q-29 -18 -46 -36t-17 -32q0 -15 17.5 -21t45.5 -8t62.5 -2.5t68.5 -3.5q55 -5 85.5 -27.5t30.5 -76.5 q0 -31 -17.5 -66.5t-50 -66t-78 -50.5t-101.5 -20q-38 0 -71 10.5t-58 29.5t-39.5 45.5t-14.5 58.5q0 15 8 31t22 31.5t31.5 29t37.5 21.5v6q-26 12 -46.5 30.5t-23.5 38.5q4 6 16 16t27.5 21t32 21.5t30.5 18.5q3 2 5 3.5t2 4.5q0 2 -5 4q-43 17 -70 52.5t-27 77.5 q0 29 13 54t35 43.5t51.5 29t63.5 10.5q61 0 100 -23zM384 -80q0 25 -14 44t-41 22q-11 1 -37.5 1.5t-56 1t-54.5 1.5t-32 4q-30 -8 -47.5 -33.5t-17.5 -50.5q0 -56 39.5 -89.5t102.5 -33.5q45 0 75.5 15t49 36t26 44t7.5 38zM303 286q0 51 -22 82t-63 31q-36 0 -59 -26.5 t-23 -71.5q0 -25 7 -46t19 -36.5t27.5 -24t33.5 -8.5q28 0 45 16q35 27 35 84z" />
<glyph unicode="h" horiz-adv-x="513" d="M500 -3q-54 5 -81 5.5t-27 1.5q0 -1 -25 -1.5t-70 -5.5l-3 27q26 3 37.5 11t16.5 13q6 6 9 22.5t5 38.5t2.5 47t0.5 48q0 42 -3 74q-4 40 -24 66t-59 26q-20 0 -40.5 -7.5t-37.5 -17t-28 -20t-13 -16.5v-33q0 -36 0.5 -75t1 -71.5t2.5 -55t5 -26.5q5 -7 18 -14.5t38 -9.5 l-3 -27l-84 6q-16 1 -27 1q-10 0 -23 -1l-28 -3l-38 -3l-3 25q24 5 38.5 12.5t19.5 12.5q2 2 3.5 15.5t2.5 34t1 44.5l2 48v45v33v136v53l-2 62q0 31 -2 55t-5 30q-4 6 -12 12q-7 5 -18.5 11t-29.5 11v20q39 11 65 20t41 16q18 8 28 14l13 -2q-2 -60 -3 -110.5t-1 -88.5v-42 v-37v-71l5 -2q35 26 60 40t42.5 21t28 8t16.5 1q48 0 81.5 -28.5t42.5 -76.5q2 -12 3 -25t1 -27q0 -41 -1.5 -82t-1.5 -77q0 -20 1.5 -38t6.5 -25t18.5 -13t39.5 -7z" />
<glyph unicode="i" horiz-adv-x="267" d="M185 427l-3 -140q-2 -59 -2 -100q0 -57 1.5 -90.5t7.5 -41.5q9 -12 27 -18.5t42 -11.5l-3 -28q-24 3 -54 5t-56 2q-27 0 -58.5 -2t-56.5 -5l-3 27q26 5 44 12t26 18t9 38.5t1 72.5q0 24 -0.5 48.5t-1.5 45t-2 35t-2 18.5q-2 7 -10 15q-7 6 -20 13.5t-35 13.5v21 q76 26 104.5 41.5t28.5 14.5zM85 592q0 24 16 40.5t39 16.5q25 0 41.5 -16.5t16.5 -40.5q0 -23 -16.5 -39t-41.5 -16q-23 0 -39 16t-16 39z" />
<glyph unicode="j" horiz-adv-x="237" d="M21 383l51 17l46 15l31 11l12 5l13 -3q-1 -17 -1.5 -57t-0.5 -91q0 -86 1.5 -148t1.5 -83q0 -37 -6.5 -74.5t-24.5 -75.5t-50.5 -75.5t-84.5 -73.5l-17 25q30 22 48.5 44.5t29 46t15 49t7.5 52.5t5 74.5t2 99.5q0 28 -1 60.5t-3 61t-5 49t-7 25.5q-11 11 -62 24v22z M79 595q0 21 15 36t36 15t36 -15t15 -36q0 -22 -15 -37t-36 -15t-36 15t-15 37z" />
<glyph unicode="k" horiz-adv-x="518" d="M268 411q23 -2 50.5 -3t52.5 -1q59 0 106 6l3 -28q-24 -3 -43.5 -10.5t-29.5 -12.5l-46 -28q-38 -24 -104 -81v-7q8 -7 17 -16.5t13 -14.5l39 -49l42 -53l38 -44q18 -19 26 -23q11 -6 29 -13.5t39 -8.5l-3 -29q-75 6 -108 6q-10 0 -16 -0.5t-11 -0.5h-8l-82 112l-48 60 q-16 20 -21 24l-5 5q0 4 -15 4q-5 0 -10.5 -1t-12.5 -5q1 -60 2.5 -101t3.5 -46q4 -6 11 -12q6 -5 17 -10.5t28 -7.5l-3 -25q-41 6 -99 6q-24 0 -48.5 -1.5t-47.5 -4.5l-3 27q19 3 30.5 8t18.5 10q8 5 12 12q1 3 2.5 23.5t2 52.5t1 72.5t0.5 84.5q0 53 -0.5 107t-1.5 98.5 t-2 74t-2 34.5q-2 7 -10 14q-7 6 -20 13.5t-35 13.5v19q36 10 61 18t41 15q18 7 31 14l15 -4q-2 -88 -2.5 -170.5t-1.5 -147.5q-1 -76 -1 -142q0 -1 1 -2l2 -2q1 -1 3 -2q12 2 19.5 5.5t7.5 2.5q5 3 19 14l29 24q16 14 32 29.5t26 27.5q10 11 10 21q0 17 -44 23z" />
<glyph unicode="l" horiz-adv-x="249" d="M170 705q-2 -17 -2.5 -51t-1 -79.5t-0.5 -98.5v-107q0 -86 0.5 -145.5t1.5 -97.5t3 -56.5t5 -21.5q8 -9 20 -14t41 -10l-5 -28q-22 3 -52 5.5t-53 2.5t-55 -2t-53 -5l-3 27q21 4 38.5 10t26.5 18q3 4 5 29t3 66t1.5 96.5t0.5 121.5q0 105 -2.5 167t-7.5 70 q-6 9 -17.5 18.5t-40.5 17.5v20q21 5 44.5 13.5t43.5 17t33 14.5l13 6z" />
<glyph unicode="m" horiz-adv-x="794" d="M726 50q3 -7 11 -12q6 -5 17.5 -9t29.5 -4l-3 -28q-51 5 -77.5 5.5t-26.5 1.5q0 -1 -25.5 -1.5t-71.5 -5.5l-3 27q18 3 29 8t18 10q8 5 12 12t6.5 22t4.5 35t3 43t1 46t-1 43t-3 37q-4 38 -25 64t-61 26q-18 0 -37 -6.5t-34.5 -15.5t-26 -19.5t-11.5 -18.5 q-1 -48 -1.5 -102t-0.5 -106q0 -20 0.5 -34t2.5 -20q3 -7 11 -12q6 -5 17.5 -9t29.5 -4l-3 -26q-51 5 -77.5 5.5t-26.5 1.5q0 -1 -24.5 -1.5t-66.5 -5.5l-3 25q16 3 26 8t16 10q7 5 11 12q3 7 6 23.5t4.5 37.5t2.5 45.5t1 48.5q0 23 -1 43t-3 37q-5 35 -24 59.5t-57 24.5 q-17 0 -33.5 -5t-31.5 -12.5t-27 -16.5t-20 -17q-4 -4 -5.5 -11.5t-1.5 -12.5v-129q0 -45 1 -77t3 -39q4 -7 12 -12q7 -5 19 -9.5t32 -6.5l-3 -26q-51 5 -74 6q-15 1 -26 1q-10 0 -25 -1q-28 -2 -73 -6l-3 25q17 5 28 10t17 10q7 5 11 11q3 6 4.5 38.5t1.5 72.5 q0 24 -0.5 49t-1.5 45.5t-2 35t-2 18.5q-2 8 -9 15q-6 6 -17 13t-30 12v20q37 13 61 23.5t38.5 17.5t20.5 11l6 3l14 -4q-1 -10 -1.5 -21.5t-0.5 -21.5q-1 -11 -1 -23l6 -3q30 24 54 38t42 21t30.5 9t18.5 2q41 0 70.5 -19t44.5 -53l7 -2q28 24 52.5 38.5t44 22.5t33 10.5 t19.5 2.5q51 0 83 -28.5t42 -68.5q3 -14 4 -28.5t1 -31.5q0 -41 -1.5 -82t-1.5 -77q0 -20 1 -36t3 -22z" />
<glyph unicode="n" horiz-adv-x="527" d="M308 24q38 8 48.5 18.5t13.5 27.5q5 22 7 58.5t2 74.5q0 43 -3 76q-5 44 -26.5 66.5t-56.5 22.5q-26 0 -53.5 -11t-53.5 -31q-8 -6 -10 -13t-2 -17q-1 -26 -1 -63v-67v-58q0 -27 2 -43q1 -19 13.5 -27.5t53.5 -14.5l-3 -26q-31 4 -57 5.5t-51 1.5t-47 -1.5t-45 -5.5 l-3 25q36 10 46 19.5t12 23.5q2 15 3 41.5t1 57.5q0 24 -0.5 48.5t-1.5 45t-2 35t-2 19.5q-2 8 -9 15q-6 6 -17 13t-30 12v20q37 14 61 24.5t38 18t19 11.5l6 3l12 -2v-71l5 -3q35 26 60.5 40.5t43 21t28.5 7.5t17 1q50 0 84 -30t42 -81q2 -11 2 -22v-23q0 -42 -1.5 -83 t-1.5 -77q0 -25 1.5 -40t7.5 -23t19.5 -12t37.5 -7l-3 -28q-59 6 -103 6q-26 0 -50 -1.5t-50 -4.5z" />
<glyph unicode="o" d="M462 218q0 -49 -16.5 -91t-45.5 -73t-67.5 -49t-83.5 -18q-42 0 -80 16.5t-67.5 46t-46.5 70t-17 89.5q0 48 16.5 88.5t46 70t69.5 45.5t88 16q44 0 81.5 -15t64.5 -42.5t42.5 -66.5t15.5 -87zM378 204q0 88 -36 138.5t-97 50.5q-54 0 -87.5 -46.5t-33.5 -122.5 q0 -51 15.5 -96.5t41.5 -71.5q35 -33 79 -33q26 0 48 13.5t37.5 37.5t24 57.5t8.5 72.5z" />
<glyph unicode="p" horiz-adv-x="522" d="M172 445v-79l8 -2q43 32 73.5 46.5t56.5 14.5q29 0 60 -12t56.5 -36t42 -59t16.5 -81q0 -61 -20 -107t-52 -76.5t-71 -45.5t-76 -15q-26 0 -51.5 4t-44.5 11v-58q0 -30 1 -55.5t2 -46t3 -32.5q3 -14 15 -22t51 -15l-3 -25l-84 6q-16 1 -27 1q-10 0 -24 -1q-12 -1 -29 -2 t-40 -3l-3 24q32 7 42 14t15 15q3 4 4 27t2 54t1 65v64v119v52l-2 61q0 30 -2 54t-5 30q-4 6 -11 11t-18 10t-28 10v20q35 14 59 26l39 20q18 10 29 17zM376 79q16 23 25 58t9 73v12q0 5 -1 11q-3 28 -15 52.5t-30 41.5t-41.5 27t-48.5 10q-58 0 -102 -45q-1 -17 -1.5 -37 t-0.5 -40v-37v-33v-77q3 -16 14 -28.5t26 -21.5t32 -13.5t33 -4.5q29 0 56 13t45 39z" />
<glyph unicode="q" horiz-adv-x="503" d="M248 388q-26 0 -50 -12t-42.5 -34t-29.5 -53.5t-11 -70.5q0 -36 10 -67t27.5 -53t41 -34.5t50.5 -12.5q26 0 53 12t45 35q10 13 12 35.5t2 70.5q0 20 -0.5 45t-2.5 51q-2 23 -15.5 43.5t-30.5 29.5q-29 15 -59 15zM422 452l14 -4q-1 -24 -1 -51v-50q0 -26 -1 -52 q-1 -36 -2 -77v-81q-1 -41 -1 -81v-78q0 -68 1 -114t4 -52t10 -11q6 -5 17 -9.5t29 -7.5l-3 -29l-75 6q-15 1 -26 1t-28 -1q-14 -1 -36 -3l-55 -5l-3 27q27 4 43.5 10.5t25.5 11.5q11 6 15 13q1 3 2.5 24t2 54t1 75.5t0.5 89.5l-7 2q-13 -17 -30.5 -29.5t-36 -21t-38 -13 t-35.5 -4.5q-27 0 -57 11.5t-55.5 35.5t-42 60t-16.5 85q0 47 14.5 85.5t38.5 68t53.5 49.5t59.5 29t61 9q26 0 51.5 -4.5t51.5 -11.5z" />
<glyph unicode="r" horiz-adv-x="360" d="M180 322l16 28q8 14 17.5 27t19 24t17.5 17q6 5 9.5 6t10.5 1q13 0 28.5 -3t29 -7.5t23 -9t9.5 -7.5q0 -9 -4.5 -20t-10.5 -21.5t-13.5 -17.5t-13.5 -7q-14 0 -32.5 11t-37.5 11q-9 0 -18.5 -7t-18 -18.5t-15.5 -25t-12 -26.5q-3 -8 -4.5 -17t-2.5 -18q-2 -6 -2 -26v-43 q0 -19 0.5 -39t1.5 -37t2.5 -28.5t3.5 -13.5q4 -6 23 -17.5t60 -13.5l-3 -27l-56 3l-38 3q-18 1 -28 1q-11 0 -26 -1q-28 -2 -76 -6l-3 27q19 3 31 7.5t19 9.5q8 5 11 12q2 3 3.5 16t2 31.5t1 41.5t0.5 47q0 44 -1.5 81t-3.5 45q-3 8 -10 15q-6 6 -18 12.5t-32 10.5v22 q35 12 58.5 22t37.5 17q16 8 25 15l13 -3v-103z" />
<glyph unicode="s" horiz-adv-x="374" d="M252 229q39 -23 57.5 -53t18.5 -61q0 -20 -8.5 -43t-26.5 -42t-45.5 -31.5t-66.5 -12.5q-26 0 -44 5t-33 10q-12 5 -25 5q-4 0 -7 -0.5t-8 -1.5q-4 16 -8 35q-4 17 -7.5 40t-6.5 52l29 5q6 -23 16 -43t24.5 -35.5t33 -24.5t39.5 -9q31 0 53 17t22 49q0 17 -12 34.5 t-34 31.5l-82 49q-43 26 -57 55.5t-14 55.5q0 20 7.5 40.5t24 36.5t41.5 26t60 10q11 0 23 -1q11 -1 25 -3t31 -6l28 -2l15 -113l-29 -5q-4 16 -11.5 33t-19.5 31t-28.5 23t-37.5 9q-29 0 -45.5 -15.5t-17.5 -38.5q0 -17 10.5 -34t29.5 -28z" />
<glyph unicode="t" horiz-adv-x="314" d="M30 356l-3 28q22 8 39 17t32 24t29 38t31 60l21 -2q-1 -5 -2 -18t-2.5 -29t-2.5 -33t-1 -29h133l-7 -56h-129q-3 -45 -4.5 -87t-1.5 -79q0 -31 0.5 -55t2.5 -36q3 -22 12.5 -36.5t30.5 -14.5q8 0 30.5 6t50.5 32l13 -35q-38 -32 -72.5 -46t-63.5 -14q-38 0 -60.5 25.5 t-22.5 76.5q0 44 3 111.5t8 151.5h-64z" />
<glyph unicode="u" horiz-adv-x="516" d="M166 415q-1 -10 -3 -34.5t-3.5 -56.5t-3 -68t-1.5 -69q0 -24 1 -46t3 -35q5 -26 24 -43t53 -17q21 0 39.5 7t33.5 18t25.5 25t16.5 29q4 8 4.5 16t0.5 16v67q0 31 -0.5 55.5t-1.5 40.5t-2 22q-2 6 -10 13q-7 5 -20.5 11.5t-37.5 11.5v22q38 3 64 6.5t43 6.5q19 4 31 8 l14 -6q-2 -9 -3 -32t-2 -53t-1.5 -63.5t-0.5 -64.5q0 -51 1.5 -79.5t9.5 -36.5q7 -7 19 -13.5t35 -11.5v-19q-29 -8 -52.5 -16.5t-39.5 -16.5q-19 -10 -33 -19l-14 6v69l-8 3q-85 -79 -152 -79q-39 0 -72 23.5t-41 65.5q-3 14 -4 30.5t-1 33.5q0 13 0.5 34t1.5 44t1.5 46.5 t0.5 42.5q0 18 -1 29t-6.5 17.5t-17 10.5t-32.5 9v22q35 5 59 9l40 8q18 4 30 7z" />
<glyph unicode="v" horiz-adv-x="451" d="M283 413q20 -2 39.5 -3t39.5 -1q22 0 45 1.5t51 4.5l2 -23q-15 -6 -24 -11t-16 -10t-11.5 -11.5t-10.5 -16.5q-1 -1 -2.5 -3.5t-6.5 -13.5l-15 -33l-28 -61l-46 -99l-68 -147h-23l-144 345q-5 12 -9.5 20t-12 15t-19 13t-30.5 12l3 25q31 -4 64.5 -5.5t65.5 -1.5 q45 0 80 3l2 -26q-19 -3 -30.5 -6t-18 -6.5t-8.5 -8t-2 -10.5q0 -7 4 -22t9 -27l21 -61l23 -61l20 -53l14 -35h7l18 42l22 54l24 58l21 60q4 11 7.5 22.5t3.5 19.5q0 14 -16 21t-48 12z" />
<glyph unicode="w" horiz-adv-x="731" d="M396 418l8 -2q9 -33 24 -79t32 -93l34 -88q17 -40 28 -61h7q45 102 68.5 166t23.5 87q0 15 -14 23.5t-48 13.5l2 27q42 -3 82 -3q51 0 95 6l2 -26q-26 -8 -39.5 -18t-27.5 -36q-8 -15 -23 -46l-34 -76l-44 -101l-54 -123h-39l-107 266h-13l-127 -266h-36l-26 76l-36 97 l-36 98q-17 46 -29 73q-5 12 -11 20.5t-14 15t-19.5 11.5t-27.5 9l3 26q32 -3 61.5 -4t57.5 -1q56 0 100 3v-27q-35 -5 -46 -13.5t-11 -19.5q0 -9 6.5 -36t17.5 -63l24 -78q14 -42 29 -80h7q39 84 70.5 160t47.5 149z" />
<glyph unicode="x" horiz-adv-x="480" d="M229 385q-14 -2 -22 -5.5t-12 -8t-5 -8.5t-1 -7q0 -5 6 -16.5t15 -26.5l20 -31l19 -30h4l27 30q14 16 26 31.5t20 27.5t8 17q0 8 -8.5 15.5t-37.5 12.5l3 26q28 -3 63 -3q23 0 47.5 1t47.5 5l3 -28l-24 -10q-10 -4 -16.5 -8t-11.5 -8l-12 -10l-28 -27l-32 -34l-31 -36 l-25 -31q54 -79 85.5 -121t49.5 -54q8 -6 17 -10q8 -4 18 -7t21 -5l-3 -30q-54 6 -115 6q-49 0 -94 -3l-2 26q31 5 38 13.5t7 16.5q0 4 -6.5 18t-16.5 31l-21 36q-12 19 -22 33h-5l-29 -33l-28 -35q-14 -17 -23 -30.5t-9 -19.5q0 -7 6.5 -15t36.5 -15l-1 -26q-44 3 -73 3 q-23 0 -47 -1.5t-46 -3.5l-4 28q25 9 42.5 17.5t36.5 26t46 47.5l72 84l-27 40l-37 52q-19 26 -35.5 46.5t-23.5 25.5q-8 5 -17 9q-8 4 -18.5 7.5t-21.5 5.5l3 29q18 -3 36.5 -4t32.5 -2q17 -1 33 -1q8 -1 16 -0.5t17 0.5q14 0 32 1t35 3z" />
<glyph unicode="y" horiz-adv-x="477" d="M210 -11l-52 134l-40 98q-17 41 -29.5 67.5t-21.5 42.5q-8 15 -14.5 24t-14.5 14.5t-19 9.5t-27 9l6 29q19 -3 38 -4.5t34 -2.5q18 -1 34 -1t34 1q15 1 34.5 1.5t39.5 2.5l1 -26q-19 -3 -29.5 -7.5t-16 -9.5t-6.5 -9t-1 -7q0 -4 2 -17.5t11 -43.5t26.5 -80.5t49.5 -128.5 h7q12 27 24 58l24 61l20 56l15 45q2 7 4 16.5t2 19.5q0 9 -2.5 16t-9.5 12t-20 9t-34 9l2 27q18 -2 36 -2.5t33 -1.5q18 -1 34 -1q14 0 30 1q14 1 32 2t38 4l3 -28q-18 -4 -30 -8t-20.5 -10.5t-15.5 -16.5t-16 -26q-14 -27 -33 -68l-40 -87l-42 -95l-39 -89l-31 -72l-18 -41 q-20 -41 -40.5 -66t-38.5 -38t-32.5 -17t-20.5 -4q-19 0 -33 10.5t-14 32.5q0 5 2 11q2 5 5 11t10 12q42 0 68 14t37 25q6 6 12.5 14t14 22t17 35t21.5 52z" />
<glyph unicode="z" horiz-adv-x="441" d="M415 128q-14 -38 -21 -63l-11 -39q-4 -17 -5 -26q-28 2 -62 2h-71q-30 0 -59.5 -0.5t-56 -1t-49.5 -1t-39 -1.5l-7 24l254 350l-1 6q-10 1 -28 1h-36q-18 0 -35 -0.5t-30 -2.5q-30 -5 -54 -27.5t-44 -65.5l-24 9l48 135l67 -16l232 5l7 -29l-251 -343l2 -7q10 -1 29 -1 h42q18 0 35 0.5t29 2.5q39 4 64 25.5t49 71.5z" />
<glyph unicode="{" horiz-adv-x="272" d="M118 273q28 -13 45.5 -29t27 -32.5t12.5 -32.5t3 -28q0 -23 -7.5 -50.5t-16.5 -55.5t-16.5 -54t-7.5 -46q0 -14 4.5 -33.5t15 -37.5t27.5 -30.5t43 -12.5l-7 -29q-59 10 -93 31t-50.5 42.5t-20.5 40t-4 23.5q0 25 10.5 52.5t23 55.5t23 55t10.5 51q0 10 -3.5 25 t-12.5 30.5t-24.5 29t-39.5 21.5v15q29 8 45 25.5t24 37.5q9 22 10 49q0 25 -10.5 48.5t-23 47t-23 46.5t-10.5 48q0 5 4.5 22.5t21.5 38.5t50.5 41t92.5 29l4 -27q-27 -6 -43.5 -17.5t-26.5 -25t-13.5 -27.5t-3.5 -23q0 -19 7 -41l15 -47q9 -25 16 -51t7 -52 q-1 -22 -10 -42q-8 -18 -25.5 -37.5t-49.5 -34.5l1 -12z" />
<glyph unicode="|" horiz-adv-x="205" d="M128 -236l-40 -15l-13 2q5 117 8 244.5t3 262.5q0 125 -2 241.5t-7 205.5h51v-941z" />
<glyph unicode="}" horiz-adv-x="272" d="M154 261q-28 13 -45.5 27t-27 28t-12.5 27.5t-3 25.5q0 23 7.5 49t16.5 52t16.5 50.5t7.5 44.5q0 14 -4.5 33.5t-15 37.5t-28 30.5t-42.5 12.5l7 29q59 -8 93 -28.5t50.5 -43t20.5 -41.5t4 -24q0 -26 -10.5 -51.5t-23 -51.5t-23 -51.5t-10.5 -49.5q0 -10 3.5 -22.5 t12.5 -25.5t24.5 -25t39.5 -19v-15q-24 -12 -39.5 -25.5t-24.5 -28.5t-12 -31t-3 -32q0 -20 10.5 -46.5t23 -55t23 -56.5t10.5 -51q0 -6 -5.5 -24t-23.5 -39t-51.5 -40t-88.5 -28l-4 27q27 6 43.5 17.5t26.5 25t13.5 27.5t3.5 23q0 19 -7 45l-15 55q-9 29 -16 59t-7 56 q1 21 10 42q8 17 25 37t50 35l-1 12z" />
<glyph unicode="~" horiz-adv-x="600" d="M395 170q-23 0 -47 8l-47 17q-24 9 -48 17t-48 8q-35 0 -63.5 -17t-51.5 -44l-23 22q22 27 44.5 50t43 39.5t37.5 26t28 9.5q24 0 50.5 -7.5t53.5 -16.5t53 -16.5t49 -7.5q33 0 54.5 14t43.5 42l21 -22q-34 -63 -75 -92.5t-75 -29.5z" />
<glyph unicode="&#xa1;" horiz-adv-x="280" d="M160 -207q0 -14 -16 -28.5t-46 -14.5q-15 0 -26.5 5t-19 12t-11.5 14.5t-4 11.5l52 405h25zM104 434q24 0 41.5 -17t17.5 -42q0 -24 -17.5 -41t-41.5 -17t-41.5 17t-17.5 41q0 25 17.5 42t41.5 17z" />
<glyph unicode="&#xa2;" horiz-adv-x="460" d="M348 351q-11 0 -15 10t-12 21q-8 12 -19 22.5t-31 14.5l-33 -278q4 -1 8 -1h8q29 0 59.5 17t52.5 43l12 -25q-12 -14 -26.5 -28t-32 -26t-39 -20.5t-48.5 -9.5l-36 -296h-37l10 86q6 51 11 98l12 114q-27 5 -52 18.5t-44.5 34t-31.5 47.5t-12 60q0 39 12.5 72.5t35.5 60 t55 43.5t72 23q3 40 7 78q3 32 5 66.5t4 57.5l41 7l15 -6l-24 -201q20 0 40 -4t36.5 -10t26.5 -12.5t10 -12.5q0 -26 -14 -45t-26 -19zM198 147l6 65l8 71l6 71t6 64q-38 -6 -65 -39q-13 -17 -21.5 -41t-11.5 -62q0 -22 5 -42.5t14.5 -38t22.5 -30t30 -18.5z" />
<glyph unicode="&#xa3;" horiz-adv-x="550" d="M515 105q-21 -36 -40.5 -59.5t-35.5 -37t-28.5 -19t-20.5 -5.5q-26 0 -58 14.5t-64 32t-62 32t-51 14.5q-11 0 -17.5 -13t-11.5 -29q-6 -18 -13 -33t-18 -15q-12 0 -24.5 6t-22.5 16t-16 23.5t-6 27.5q0 11 23 21.5t53 18.5q10 12 20 30.5t16 44.5q10 43 14 83.5t6 77.5 t5 70.5t12 62.5q12 38 34 68.5t50 52t60 33t65 11.5q28 0 50 -7t37.5 -18t23.5 -25t8 -28q0 -18 -15 -30.5t-34 -12.5q-12 0 -24 6q-2 13 -6.5 26t-13 23.5t-22 17.5t-32.5 7q-44 0 -67 -28.5t-31 -70.5q-5 -23 -7.5 -55t-5.5 -65l-6 -66q-3 -32 -8 -55q-4 -19 -9.5 -35 t-14.5 -32t-23 -34t-34 -40l4 -5q23 5 42.5 7t27.5 2q21 0 47 -8t51 -18l46 -17q21 -8 34 -8q21 0 43.5 12t45.5 45zM206 301l-191 -9l-4 13l34 42q19 -2 36 -3.5t35.5 -2.5t40 -1.5t49.5 -0.5v-38zM218 339l207 7l3 -13l-34 -40q-38 5 -79 6.5t-97 1.5v38z" />
<glyph unicode="&#xa5;" horiz-adv-x="550" d="M330 188q0 -48 2 -84t14 -50q7 -8 24.5 -16t47.5 -10l-3 -31q-32 2 -56 2.5t-41 1.5q-19 1 -33 1t-32 -1q-16 -1 -38.5 -1.5t-50.5 -2.5l-3 28q29 5 47 11t26 20q8 16 10 50.5t2 77.5v79q0 7 -5.5 19.5t-15.5 24.5l-14 29l-29 48l-30 50l-30 47l-26 41q-15 22 -31.5 37.5 t-51.5 26.5l4 30q20 -3 39 -4t34 -2q17 -1 32 -1t34 1q16 1 38.5 2t48.5 4l-1 -29q-29 -6 -40 -15t-11 -20q0 -10 6 -26.5t18.5 -42t33 -62t50.5 -85.5h7l22 36l31 50l31 54q15 27 24 47q8 18 8 27q0 14 -12.5 21.5t-49.5 15.5l4 29q22 -3 41.5 -4t34.5 -2q18 -1 32 -1 q15 0 29 1q12 1 26 2t25 4l1 -30q-28 -11 -46 -26t-31 -32t-29 -40l-33 -48l-34 -52l-32 -52l-18 -47v-101zM453 297q-74 3 -154 3q-59 0 -119.5 -1.5t-108.5 -5.5l-3 12l23 39q29 -1 74 -1h92h66q33 0 63 0.5t56.5 1t45.5 1.5l1 -15zM443 176q-74 3 -151 3q-57 0 -115 -1.5 t-106 -5.5l-3 12l23 39q25 -1 58 -1h71h71q37 0 71.5 0.5t64.5 1t51 1.5l1 -15z" />
<glyph unicode="&#xa7;" horiz-adv-x="580" d="M508 51q0 -24 -7.5 -51.5t-21.5 -54t-34 -50t-44 -39.5q-8 -23 -24.5 -42t-38 -32.5t-46 -21t-47.5 -7.5q-22 0 -42 3t-36 8.5t-25 12t-9 12.5q0 12 7 22t17 18t21 12.5t19 4.5q7 0 10 -3q3 -8 7 -17t11 -17.5t18 -14t26 -5.5q18 0 31.5 7t22.5 18t13.5 24t4.5 26 q0 51 -34 95q-15 21 -46 53l-65 69l-62 71q-30 34 -43 59q-25 47 -34 85t-9 80q0 24 7.5 51.5t21.5 54t34 49.5t44 40q8 23 24.5 42t38 32.5t46 21t48.5 7.5q22 0 42 -3t35.5 -8.5t25 -12t9.5 -12.5q0 -12 -7.5 -22t-18 -18t-22 -12.5t-19.5 -4.5q-6 0 -9 3q-3 7 -7 15.5 t-10.5 15.5t-16.5 12t-25 5q-34 0 -52.5 -20.5t-18.5 -47.5q0 -49 33 -92q15 -20 45 -53l64 -70l62 -73q30 -35 43 -60q25 -47 34 -85t9 -80zM462 26q0 40 -12.5 71t-35.5 64q-17 26 -50 63l-68 74l-64 68q-29 30 -39 43q-31 39 -40 91q-1 8 -6 8q-3 0 -11.5 -6t-17.5 -19 t-16.5 -33.5t-7.5 -48.5q0 -40 13 -71t35 -64q17 -26 50 -64l68 -74l64 -68q30 -30 39 -42q15 -20 25 -41t15 -47q1 -9 8 -9q4 0 12.5 6.5t17 20t15 33t6.5 45.5z" />
<glyph unicode="&#xa8;" d="M154 615q21 0 35.5 -14.5t14.5 -35.5q0 -20 -14.5 -34.5t-35.5 -14.5q-22 0 -36.5 14.5t-14.5 34.5q0 21 14.5 35.5t36.5 14.5zM337 615q21 0 35.5 -14.5t14.5 -35.5q0 -20 -14.5 -34.5t-35.5 -14.5q-22 0 -36.5 14.5t-14.5 34.5q0 21 14.5 35.5t36.5 14.5z" />
<glyph unicode="&#xa9;" horiz-adv-x="830" d="M411 683q77 0 142 -25.5t112.5 -72t74 -112t26.5 -146.5q0 -74 -28 -138.5t-76 -112.5t-113 -76t-138 -28q-74 0 -138.5 28t-112.5 76t-76 113t-28 139q0 81 28 146.5t76 112t112.5 71.5t138.5 25zM113 334q0 -68 24.5 -127t65.5 -102.5t96 -68.5t116 -25q45 0 87.5 13 t76.5 36q63 42 96.5 109.5t33.5 148.5q0 71 -19.5 131t-57 103.5t-91.5 68t-122 24.5q-69 0 -125.5 -24t-96.5 -66t-62 -99t-22 -122zM552 521q10 -29 15 -48.5t8 -32.5q3 -15 4 -24l-25 -5q-8 18 -17 34.5t-23 28.5t-35.5 19.5t-54.5 7.5q-27 0 -49 -11.5t-38 -32t-25 -50 t-9 -65.5q0 -82 38 -132.5t104 -50.5q42 0 67 25.5t42 68.5l27 -7l-25 -93q-17 -13 -38 -19.5t-40 -9.5q-22 -4 -44 -4q-38 0 -77 13t-71 40t-52 68.5t-20 98.5q0 51 20.5 88.5t52.5 63t72 38t79 12.5q19 0 39 -3q17 -2 37 -6t38 -12z" />
<glyph unicode="&#xaa;" horiz-adv-x="350" d="M334 415q-13 -14 -26.5 -21.5t-24.5 -10.5q-13 -4 -25 -4q-11 0 -24.5 12t-18.5 31h-5q-5 -5 -16 -12.5t-24.5 -14.5t-27.5 -12t-24 -5q-23 0 -44 17t-21 51q0 18 8 34t25 27q7 4 20.5 9.5l29.5 11.5l34 12q17 6 32 13q9 4 9 9q0 18 -3 39q-2 16 -15.5 27t-37.5 11 q-16 0 -23 -8.5t-11 -19t-6.5 -19t-8.5 -8.5q-20 0 -32 12t-12 26q0 6 14 15t34 17.5t42 14t38 5.5q20 0 40 -10t31 -25q8 -11 10 -24.5t2 -27.5q0 -16 -1.5 -46t-1.5 -53q0 -18 1 -33.5t3 -20.5q6 -12 21 -14q2 0 9 2t20 10zM209 523q0 3 -4 3q-3 0 -14 -4.5t-23.5 -11.5 t-24 -15t-16.5 -14q-8 -7 -8 -23q0 -19 10.5 -27.5t24.5 -8.5q16 0 30 9t22 18q3 4 3 12v62z" />
<glyph unicode="&#xab;" horiz-adv-x="432" d="M208 85l-15 -20l-173 174v17l173 172l15 -21l-98 -145zM402 85l-15 -20l-173 174v17l173 172l15 -21l-98 -145z" />
<glyph unicode="&#xad;" horiz-adv-x="322" d="M278 233l-223 -19l-7 8l7 66l223 9v-64z" />
<glyph unicode="&#xae;" horiz-adv-x="441" d="M236 713q43 0 79 -14t62 -39.5t40.5 -61.5t14.5 -81q0 -41 -15.5 -76.5t-42 -62t-62.5 -42t-76 -15.5q-41 0 -76.5 15.5t-62 42t-42 62t-15.5 76.5q0 45 15.5 81t42 61.5t62 39.5t76.5 14zM254 347q29 3 54 16t45 34l-1 3q-15 1 -32 6.5t-32 23.5l-10 14l-14 16t-12.5 15 t-6.5 9q-8 10 -20 10q-7 0 -10 -1q0 -27 0.5 -39.5t2.5 -16.5q1 -3 5 -7q3 -3 9 -5.5t15 -3.5l-2 -19q-11 1 -22.5 1.5t-23.5 0.5q-14 0 -28.5 -0.5t-26.5 -1.5l-3 19q7 0 12.5 2.5t8.5 5.5q4 4 6 7t2.5 22t0.5 44v32q0 16 -0.5 29t-1 22t-1.5 11q0 3 -4 6q-3 2 -9 4.5 t-16 4.5l2 19q28 2 48 2t33 1q15 0 25 1q13 0 30.5 -2t28.5 -7q31 -17 31 -48q0 -21 -15.5 -37.5t-33.5 -27.5l-1 -4q11 -11 25 -31t25 -34q8 -10 16.5 -16t13.5 -8q2 0 3 2q13 20 20 43t7 49q0 37 -11.5 69t-32 56t-50 37.5t-65.5 13.5t-65.5 -13t-51.5 -35.5t-34 -53 t-12 -66.5t12.5 -68t34.5 -55.5t51.5 -37.5t63.5 -14h9q3 0 8 1zM286 568q0 15 -8 27.5t-29 14.5q-7 0 -17.5 -0.5t-13.5 -2.5q-2 -4 -2.5 -31t-0.5 -59q3 0 6 -0.5t8 -0.5q17 0 28 3q12 6 20.5 19t8.5 30z" />
<glyph unicode="&#xaf;" horiz-adv-x="788" d="M573 601l-5 -49l-321 -11l-6 14l29 46h303z" />
<glyph unicode="&#xb0;" horiz-adv-x="283" d="M131 685q60 0 97 -34.5t37 -92.5q0 -29 -10.5 -54t-29 -43t-43.5 -28t-53 -10q-26 0 -50.5 9.5t-43.5 26.5t-30.5 41t-11.5 53t10.5 53t29 41.5t43.5 27.5t55 10zM128 651q-35 0 -58 -25t-23 -67q0 -46 25.5 -73.5t59.5 -27.5q35 0 57 26.5t22 67.5q0 46 -24.5 72.5 t-58.5 26.5z" />
<glyph unicode="&#xb1;" horiz-adv-x="650" d="M576 337l5 -11l-13 -41q-30 2 -64 3t-63 2q-34 1 -68 1v-170h-92q3 44 4.5 75.5t3.5 52.5q1 25 2 41q-34 0 -70 -1q-31 -1 -70 -2.5t-78 -3.5l-6 11l26 43h198q0 28 -1 60q-1 27 -3 60.5t-6 68.5l86 12l14 -4l-8 -197h203zM599 59l-6 -59q-42 2 -99 2.5t-122 0.5 q-81 0 -166 -1.5t-158 -4.5l-5 14l19 49z" />
<glyph unicode="&#xb2;" horiz-adv-x="460" d="M204 170q26 32 44.5 68.5t18.5 74.5q0 24 -8.5 41t-21.5 28.5t-29.5 17t-32.5 5.5q-30 0 -61.5 -19.5t-54.5 -52.5l-22 28q23 38 53 58.5t58 29.5q33 11 66 12q22 0 47.5 -7.5t46.5 -23t35 -39t14 -54.5q0 -30 -10 -57.5t-34 -58t-64 -66.5t-99 -81l1 -8q25 1 56 2l60 2 q29 1 51 2.5t29 2.5q10 2 20 10t18.5 19t15 24t10.5 24l24 -7q-11 -35 -17 -61l-10 -46q-4 -22 -6 -38q-44 3 -112 3q-61 0 -126 -2t-111 -5l-6 38q39 28 68 52.5t49 43.5q23 22 40 40z" />
<glyph unicode="&#xb3;" horiz-adv-x="428" d="M39 409q19 15 42.5 25t46 16t41.5 8.5t30 2.5q25 0 50 -6.5t44 -20.5t31 -36t12 -52q0 -19 -4.5 -35.5t-15 -33t-28 -34.5t-44.5 -39l3 -10q30 0 56 -10t45.5 -29t30.5 -45t11 -57q0 -44 -19 -82t-48 -68.5t-65 -54t-69 -36.5q-28 -11 -54 -15.5t-47 -4.5q-13 0 -26 4 t-23.5 10.5t-17.5 16t-7 21.5q0 20 14.5 35.5t29.5 15.5h5q8 -20 19.5 -30.5t23 -16t20 -6.5t11.5 -1q29 0 58.5 15.5t53 42.5t38 64t14.5 79q0 47 -26.5 71.5t-64.5 24.5q-9 0 -33 -5.5t-56 -28.5l-21 22q11 16 24 27t25 19q14 9 28 15q44 46 61 78.5t17 68.5q0 20 -7.5 36 t-19.5 27t-27 16.5t-30 5.5q-19 0 -37.5 -9t-33.5 -21.5t-26.5 -27t-15.5 -24.5l-11 1z" />
<glyph unicode="&#xb4;" d="M288 662q15 0 30 -4q12 -3 25 -10.5t21 -20.5l-127 -145l-25 7z" />
<glyph unicode="&#xb6;" horiz-adv-x="660" d="M438 168v182q0 75 -1 125.5t-3 80.5t-6 45t-10 19.5t-14 4.5q-7 0 -17 -0.5t-13 -5.5q-5 -7 -6.5 -69t-1.5 -195v-163q0 -75 0.5 -144t1.5 -136l2 -137l-16 -13l-46 -2q-20 -1 -44 -2.5t-46 -3.5l-1 29q46 7 71.5 20.5t29.5 52.5q3 31 5 60.5t2.5 62.5t1 72.5t0.5 92.5 v105h-53q-36 0 -80.5 11t-83.5 37t-65.5 68t-26.5 105q0 43 17.5 80.5t51 65.5t82 43.5t111.5 15.5q33 0 73 -1t82.5 -3t85 -4.5t79.5 -5.5l1 -27q-32 -2 -50.5 -7.5t-27.5 -12.5q-11 -8 -14 -18q-1 -4 -1.5 -26.5t-1.5 -58t-1.5 -82t-0.5 -98.5l-2 -107v-108 q0 -60 0.5 -113t2 -93.5t3.5 -65.5t5 -29q7 -10 20.5 -18.5t42.5 -12.5l-3 -26q-12 1 -30 2t-37 1.5t-38 0.5h-32l-5 11q2 4 3.5 22.5t2 62.5t1 118.5t0.5 191.5zM227 292q8 -2 17 -3t20 -1q20 0 39.5 2.5t22.5 5.5v72v95q0 40 -1 68.5t-2.5 47t-4.5 29.5q-5 17 -12.5 20 t-21.5 3q-40 0 -71.5 -14t-53 -37.5t-32.5 -53.5t-11 -62q0 -65 28.5 -111t82.5 -61z" />
<glyph unicode="&#xb7;" horiz-adv-x="244" d="M122 189q-26 0 -44.5 18.5t-18.5 44.5q0 27 18.5 45.5t44.5 18.5q27 0 45.5 -18.5t18.5 -45.5q0 -26 -18.5 -44.5t-45.5 -18.5z" />
<glyph unicode="&#xb8;" d="M262 6l-23 -49l3 -5q29 -2 45.5 -11t24.5 -20.5t10 -21.5t2 -13q0 -21 -10 -39t-25.5 -31.5t-35.5 -21t-41 -7.5q-14 0 -28 3q-12 2 -25.5 7t-24.5 15l9 21q16 -9 35.5 -12.5t31.5 -3.5q18 0 37.5 11t19.5 34q0 16 -12.5 26.5t-38.5 10.5q-12 0 -27 -3l-5 7l42 78l-7 19z " />
<glyph unicode="&#xb9;" horiz-adv-x="380" d="M279 457q-11 -19 -15.5 -39t-6.5 -60q-2 -39 -3 -81.5t-1 -84.5q0 -20 0.5 -41.5t1 -39.5t2 -30.5t4.5 -16.5q10 -14 38 -23t83 -14l-3 -30q-41 2 -84 5.5t-81 3.5t-80 -3.5t-93 -4.5l-3 27q58 8 87 19.5t39 21.5q3 3 6 18t4.5 36t2.5 45t1 47q0 24 -0.5 48.5t-1.5 45 t-2.5 34t-3.5 16.5q-9 11 -42 11h-17q-11 0 -23 -1h-26q-13 -1 -23 -2l-3 30q55 12 96.5 26t69.5 27q33 14 56 29z" />
<glyph unicode="&#xba;" horiz-adv-x="350" d="M187 671q67 0 105.5 -39t38.5 -103q0 -32 -11 -59.5t-30.5 -47.5t-46.5 -31.5t-58 -11.5q-30 0 -56.5 11t-47 31t-32.5 47t-12 59q0 64 41 104t109 40zM260 516q0 57 -20 91t-55 34q-32 0 -53 -28.5t-21 -74.5q0 -28 6 -51.5t16.5 -41t24.5 -27t31 -9.5q34 0 52.5 32 t18.5 75z" />
<glyph unicode="&#xbb;" horiz-adv-x="432" d="M224 407l15 21l173 -175v-17l-173 -171l-15 20l98 146zM30 407l15 21l173 -175v-17l-173 -171l-15 20l98 146z" />
<glyph unicode="&#xbc;" horiz-adv-x="1730" d="M1594 456v-390q31 0 50 1.5t30.5 6.5t18 16t12.5 31l23 -4q0 -7 -3 -23.5t-7 -34.5l-9 -33q-4 -15 -7 -20h-108v-209h-87l3 85q2 38 3 66q1 33 1 58h-267l-10 39l-1 22q74 115 143.5 213t141.5 183zM1292 68q9 -1 25 -1.5t37 -1t45 -0.5h50h67l2 80q1 41 1.5 78t1 68 t0.5 51v23l-9 1q-54 -63 -110 -138l-110 -150v-10zM1050 716l50 -10v-10l-260 -334l-273 -373l-54 14zM279 457q-11 -19 -15.5 -39t-6.5 -60q-2 -39 -3 -81.5t-1 -84.5q0 -20 0.5 -41.5t1 -39.5t2 -30.5t4.5 -16.5q10 -14 38 -23t83 -14l-3 -30q-41 2 -84 5.5t-81 3.5 t-80 -3.5t-93 -4.5l-3 27q58 8 87 19.5t39 21.5q3 3 6 18t4.5 36t2.5 45t1 47q0 24 -0.5 48.5t-1.5 45t-2.5 34t-3.5 16.5q-9 11 -42 11h-17q-11 0 -23 -1h-26q-13 -1 -23 -2l-3 30q55 12 96.5 26t69.5 27q33 14 56 29z" />
<glyph unicode="&#xbd;" horiz-adv-x="1690" d="M1434 170q26 32 44.5 68.5t18.5 74.5q0 24 -8.5 41t-21.5 28.5t-29.5 17t-32.5 5.5q-30 0 -61.5 -19.5t-54.5 -52.5l-22 28q23 38 53 58.5t58 29.5q33 11 66 12q22 0 47.5 -7.5t46.5 -23t35 -39t14 -54.5q0 -30 -10 -57.5t-34 -58t-64 -66.5t-99 -81l1 -8q25 1 56 2l60 2 q29 1 51 2.5t29 2.5q10 2 20 10t18.5 19t15 24t10.5 24l24 -7q-11 -35 -17 -61l-10 -46q-4 -22 -6 -38q-44 3 -112 3q-61 0 -126 -2t-111 -5l-6 38q39 28 68 52.5t49 43.5q23 22 40 40zM1050 716l50 -10v-10l-260 -334l-273 -373l-54 14zM279 457q-11 -19 -15.5 -39 t-6.5 -60q-2 -39 -3 -81.5t-1 -84.5q0 -20 0.5 -41.5t1 -39.5t2 -30.5t4.5 -16.5q10 -14 38 -23t83 -14l-3 -30q-41 2 -84 5.5t-81 3.5t-80 -3.5t-93 -4.5l-3 27q58 8 87 19.5t39 21.5q3 3 6 18t4.5 36t2.5 45t1 47q0 24 -0.5 48.5t-1.5 45t-2.5 34t-3.5 16.5q-9 11 -42 11 h-17q-11 0 -23 -1h-26q-13 -1 -23 -2l-3 30q55 12 96.5 26t69.5 27q33 14 56 29z" />
<glyph unicode="&#xbe;" horiz-adv-x="1778" d="M1642 456v-390q31 0 50 1.5t30.5 6.5t18 16t12.5 31l23 -4q0 -7 -3 -23.5t-7 -34.5l-9 -33q-4 -15 -7 -20h-108v-209h-87l3 85q2 38 3 66q1 33 1 58h-267l-10 39l-1 22q74 115 143.5 213t141.5 183zM1340 68q9 -1 25 -1.5t37 -1t45 -0.5h50h67l2 80q1 41 1.5 78t1 68 t0.5 51v23l-9 1q-54 -63 -110 -138l-110 -150v-10zM1098 716l50 -10v-10l-260 -334l-273 -373l-54 14zM39 409q19 15 42.5 25t46 16t41.5 8.5t30 2.5q25 0 50 -6.5t44 -20.5t31 -36t12 -52q0 -19 -4.5 -35.5t-15 -33t-28 -34.5t-44.5 -39l3 -10q30 0 56 -10t45.5 -29 t30.5 -45t11 -57q0 -44 -19 -82t-48 -68.5t-65 -54t-69 -36.5q-28 -11 -54 -15.5t-47 -4.5q-13 0 -26 4t-23.5 10.5t-17.5 16t-7 21.5q0 20 14.5 35.5t29.5 15.5h5q8 -20 19.5 -30.5t23 -16t20 -6.5t11.5 -1q29 0 58.5 15.5t53 42.5t38 64t14.5 79q0 47 -26.5 71.5 t-64.5 24.5q-9 0 -33 -5.5t-56 -28.5l-21 22q11 16 24 27t25 19q14 9 28 15q44 46 61 78.5t17 68.5q0 20 -7.5 36t-19.5 27t-27 16.5t-30 5.5q-19 0 -37.5 -9t-33.5 -21.5t-26.5 -27t-15.5 -24.5l-11 1z" />
<glyph unicode="&#xbf;" horiz-adv-x="340" d="M224 -250q-37 0 -76 14.5t-71.5 41.5t-53.5 64.5t-21 83.5q0 48 16 75.5t40.5 45t54.5 30.5t59 33l7 9q3 5 5.5 12.5t2.5 18.5q0 15 -6 36l26 5q25 -57 31 -80q4 -14 4 -21q0 -9 -10 -22t-29 -23q-8 -5 -30 -13t-47 -18t-47 -21t-31 -21q-7 -8 -7 -28q0 -25 13 -48.5 t35.5 -42t52 -30t61.5 -11.5q20 0 35 4.5t30 13.5q8 -2 11.5 -10.5t3.5 -20.5t-4 -25.5t-11.5 -25t-18.5 -19t-25 -7.5zM193 433q24 0 41.5 -17t17.5 -41q0 -25 -17.5 -42t-41.5 -17t-41.5 17t-17.5 42q0 24 17.5 41t41.5 17z" />
<glyph unicode="&#xc0;" horiz-adv-x="696" d="M322 713l-119 116q12 14 29.5 21.5t34.5 11.5q19 4 40 5l58 -144zM236 -3q-29 2 -53.5 3.5t-43.5 2.5q-22 1 -41 1q-18 0 -36 -1q-15 -1 -32 -2.5t-30 -3.5l-4 29q11 2 20.5 6t17.5 8q9 4 17 9q14 9 28.5 30t26.5 48q5 12 16 43l34 92l54 156l81 239l109 8l64 -183 l52 -142l38 -104l29 -74q28 -70 40 -91q9 -11 20 -20q10 -8 23 -15.5t30 -9.5l-4 -29q-29 2 -53.5 3.5t-43.5 2.5q-22 1 -41 1t-40 -1q-18 -1 -41 -2.5t-48 -3.5l-2 28q27 4 44 9.5t26.5 12t12.5 13.5t3 14q0 8 -3 20.5t-9.5 32.5l-16.5 49l-26 70q-23 2 -59.5 3t-74.5 1 q-40 0 -73.5 -1t-50.5 -3l-25 -70q-10 -30 -15.5 -50.5t-8 -33t-2.5 -19.5q0 -5 2.5 -12t12.5 -13.5t28 -12.5t50 -10zM222 304q14 -1 30 -1.5t31 -0.5h35h36q16 0 36 0.5t40 1.5v1l2 6l-102 265h-11l-38 -95l-32 -85q-17 -45 -30 -85z" />
<glyph unicode="&#xc1;" horiz-adv-x="696" d="M411 858q20 0 38 -4q15 -3 29 -9t20 -17l-169 -123l-31 9zM236 -3q-29 2 -53.5 3.5t-43.5 2.5q-22 1 -41 1q-18 0 -36 -1q-15 -1 -32 -2.5t-30 -3.5l-4 29q11 2 20.5 6t17.5 8q9 4 17 9q14 9 28.5 30t26.5 48q5 12 16 43l34 92l54 156l81 239l109 8l64 -183l52 -142 l38 -104l29 -74q28 -70 40 -91q9 -11 20 -20q10 -8 23 -15.5t30 -9.5l-4 -29q-29 2 -53.5 3.5t-43.5 2.5q-22 1 -41 1t-40 -1q-18 -1 -41 -2.5t-48 -3.5l-2 28q27 4 44 9.5t26.5 12t12.5 13.5t3 14q0 8 -3 20.5t-9.5 32.5l-16.5 49l-26 70q-23 2 -59.5 3t-74.5 1 q-40 0 -73.5 -1t-50.5 -3l-25 -70q-10 -30 -15.5 -50.5t-8 -33t-2.5 -19.5q0 -5 2.5 -12t12.5 -13.5t28 -12.5t50 -10zM222 304q14 -1 30 -1.5t31 -0.5h35h36q16 0 36 0.5t40 1.5v1l2 6l-102 265h-11l-38 -95l-32 -85q-17 -45 -30 -85z" />
<glyph unicode="&#xc2;" horiz-adv-x="696" d="M326 784l-107 -76l-15 7l129 146h16l129 -146l-17 -9zM236 -3q-29 2 -53.5 3.5t-43.5 2.5q-22 1 -41 1q-18 0 -36 -1q-15 -1 -32 -2.5t-30 -3.5l-4 29q11 2 20.5 6t17.5 8q9 4 17 9q14 9 28.5 30t26.5 48q5 12 16 43l34 92l54 156l81 239l109 8l64 -183l52 -142l38 -104 l29 -74q28 -70 40 -91q9 -11 20 -20q10 -8 23 -15.5t30 -9.5l-4 -29q-29 2 -53.5 3.5t-43.5 2.5q-22 1 -41 1t-40 -1q-18 -1 -41 -2.5t-48 -3.5l-2 28q27 4 44 9.5t26.5 12t12.5 13.5t3 14q0 8 -3 20.5t-9.5 32.5l-16.5 49l-26 70q-23 2 -59.5 3t-74.5 1q-40 0 -73.5 -1 t-50.5 -3l-25 -70q-10 -30 -15.5 -50.5t-8 -33t-2.5 -19.5q0 -5 2.5 -12t12.5 -13.5t28 -12.5t50 -10zM222 304q14 -1 30 -1.5t31 -0.5h35h36q16 0 36 0.5t40 1.5v1l2 6l-102 265h-11l-38 -95l-32 -85q-17 -45 -30 -85z" />
<glyph unicode="&#xc3;" horiz-adv-x="696" d="M236 -3q-29 2 -53.5 3.5t-43.5 2.5q-22 1 -41 1q-18 0 -36 -1q-15 -1 -32 -2.5t-30 -3.5l-4 29q11 2 20.5 6t17.5 8q9 4 17 9q14 9 28.5 30t26.5 48q5 12 17 43.5t33 93.5l56 162l84 246l97 13l66 -190l52 -146l41 -108l29 -76q29 -73 42 -94q9 -11 20 -20 q10 -8 23 -15.5t30 -9.5l-4 -29q-29 2 -53.5 3.5t-43.5 2.5q-22 1 -41 1t-40 -1q-18 -1 -41 -2.5t-48 -3.5l-2 28q27 4 44 9.5t26.5 12t12.5 13.5t3 14q0 8 -3 20.5t-9.5 32.5l-16.5 49l-26 70q-23 2 -59.5 3t-74.5 1q-40 0 -73.5 -1t-50.5 -3l-25 -70q-10 -30 -15.5 -50.5 t-8 -33t-2.5 -19.5q0 -5 2.5 -12t12.5 -13.5t28 -12.5t50 -10zM222 304q14 -1 30 -1.5t31 -0.5h35h36q16 0 36 0.5t40 1.5v1l2 6l-102 265h-11l-38 -95l-32 -85q-17 -45 -30 -85zM183 733q33 46 63.5 73.5t50.5 27.5q14 0 33 -5l40 -11l39 -10q18 -5 29 -5q26 0 45.5 10.5 t35.5 33.5l18 -19q-30 -50 -60.5 -72.5t-50.5 -22.5q-17 0 -34 5l-34 10q-17 6 -34.5 11t-35.5 5q-52 0 -84 -50z" />
<glyph unicode="&#xc4;" horiz-adv-x="696" d="M236 -3q-29 2 -53.5 3.5t-43.5 2.5q-22 1 -41 1q-18 0 -36 -1q-15 -1 -32 -2.5t-30 -3.5l-4 29q11 2 20.5 6t17.5 8q9 4 17 9q14 9 28.5 30t26.5 48q5 12 17 43.5t33 93.5l56 162l84 246l97 13l66 -190l52 -146l41 -108l29 -76q29 -73 42 -94q9 -11 20 -20 q10 -8 23 -15.5t30 -9.5l-4 -29q-29 2 -53.5 3.5t-43.5 2.5q-22 1 -41 1t-40 -1q-18 -1 -41 -2.5t-48 -3.5l-2 28q27 4 44 9.5t26.5 12t12.5 13.5t3 14q0 8 -3 20.5t-9.5 32.5l-16.5 49l-26 70q-23 2 -59.5 3t-74.5 1q-40 0 -73.5 -1t-50.5 -3l-25 -70q-10 -30 -15.5 -50.5 t-8 -33t-2.5 -19.5q0 -5 2.5 -12t12.5 -13.5t28 -12.5t50 -10zM222 304q14 -1 30 -1.5t31 -0.5h35h36q16 0 36 0.5t40 1.5v1l2 6l-102 265h-11l-38 -95l-32 -85q-17 -45 -30 -85zM219 825q20 0 34.5 -14.5t14.5 -34.5t-14.5 -34.5t-34.5 -14.5t-34.5 14.5t-14.5 34.5 t14.5 34.5t34.5 14.5zM486 825q20 0 34.5 -14.5t14.5 -34.5t-14.5 -34.5t-34.5 -14.5t-34.5 14.5t-14.5 34.5t14.5 34.5t34.5 14.5z" />
<glyph unicode="&#xc5;" horiz-adv-x="696" d="M236 -3q-29 2 -53.5 3.5t-43.5 2.5q-22 1 -41 1q-18 0 -36 -1q-15 -1 -32 -2.5t-30 -3.5l-4 29q11 2 20.5 6t17.5 8q9 4 17 9q14 9 28.5 30t26.5 48q5 12 16 43l34 92l54 156l81 239l109 8l64 -183l52 -142l38 -104l29 -74q28 -70 40 -91q9 -11 20 -20q10 -8 23 -15.5 t30 -9.5l-4 -29q-29 2 -53.5 3.5t-43.5 2.5q-22 1 -41 1t-40 -1q-18 -1 -41 -2.5t-48 -3.5l-2 28q27 4 44 9.5t26.5 12t12.5 13.5t3 14q0 8 -3 20.5t-9.5 32.5l-16.5 49l-26 70q-23 2 -59.5 3t-74.5 1q-40 0 -73.5 -1t-50.5 -3l-25 -70q-10 -30 -15.5 -50.5t-8 -33 t-2.5 -19.5q0 -5 2.5 -12t12.5 -13.5t28 -12.5t50 -10zM222 304q14 -1 30 -1.5t31 -0.5h35h36q16 0 36 0.5t40 1.5v1l2 6l-102 265h-11l-38 -95l-32 -85q-17 -45 -30 -85zM339 825q41 0 69.5 -26t28.5 -64q0 -18 -7.5 -34.5t-21 -28.5t-31.5 -19t-38 -7q-21 0 -39 7 t-31.5 19t-21 28.5t-7.5 34.5q0 38 28.5 64t70.5 26zM344 677q21 2 35.5 18t14.5 39q0 27 -17 43t-38 16q-26 0 -40.5 -16.5t-14.5 -39.5q0 -29 17.5 -44.5t42.5 -15.5z" />
<glyph unicode="&#xc6;" horiz-adv-x="951" d="M915 166q-5 -38 -10.5 -67.5t-10.5 -51.5q-6 -26 -12 -45q-22 -2 -48.5 -3t-63.5 -1q-69 0 -118.5 2t-98.5 2q-26 0 -55 -1.5t-63 -3.5l-2 28q48 10 61.5 23.5t13.5 32.5q0 8 -2.5 23.5t-9 41.5l-16.5 64l-26 92q-37 -2 -71.5 -3.5t-64 -3t-51 -3t-32.5 -2.5l-47 -106 q-16 -40 -24 -62.5t-9.5 -33.5t-1.5 -21q0 -4 3 -10t11 -12t23.5 -11.5t40.5 -8.5l-5 -28q-29 2 -53.5 3.5t-42.5 2.5q-21 1 -39 1q-17 0 -34 -1q-14 -1 -30 -2.5t-30 -3.5l-2 28q22 4 41 15t37 37q9 11 27 45l42 80l48 100l49 102l41 90l29 62q8 19 11.5 31t3.5 27 q0 5 -7 11.5t-37 12.5l2 26q28 -2 53 -2.5t44 -1.5q22 -1 41 -1q54 0 108.5 0.5t100 0.5t76.5 0.5t38 0.5h27q13 0 27 -2l35 -143l-27 -4q-5 16 -14 33t-23.5 32t-35.5 25.5t-49 13.5q-20 2 -47.5 3t-57.5 1q-21 0 -41.5 -0.5t-37.5 -1.5t-29.5 -1.5t-16.5 -1.5l35 -123 l43 -147l88 3q36 2 59 4.5t36 5t20 5.5q9 5 20.5 16.5t14.5 34.5h24q-2 -17 -2 -32v-29q0 -33 3.5 -63.5t12.5 -60.5l-25 -3q-9 28 -18 44.5t-26.5 24.5t-46.5 10t-79 2q-6 0 -17.5 -0.5t-23.5 -0.5q-14 -1 -29 -1q29 -101 50 -165.5t34 -77.5q14 -14 43.5 -17.5t66.5 -3.5 q28 0 48.5 3.5t37.5 16.5t32.5 39t33.5 71zM257 340q23 0 73.5 0.5t112.5 2.5l-21 74l-22 75l-26 88h-8q-14 -27 -33 -68l-36 -79z" />
<glyph unicode="&#xc7;" horiz-adv-x="738" d="M647 497q-12 70 -76 107t-160 37q-41 0 -78.5 -10.5t-70 -30.5t-57.5 -50t-41 -70q-11 -29 -16 -60t-5 -63q0 -78 27.5 -150.5t79.5 -117.5q36 -31 82 -47.5t103 -16.5q33 0 64 5.5t58.5 22t50.5 46.5t40 79l25 -7q-8 -44 -13.5 -71t-9 -42t-5.5 -20l-2 -5 q-48 -28 -103.5 -42t-114.5 -14q-74 0 -145.5 23t-128.5 73q-54 46 -86.5 113t-32.5 160q0 54 17 101.5t46 87.5t67 70t81 48t92 25.5t94 7.5q34 0 72 -4q32 -3 73.5 -10t85.5 -20q9 -79 12 -115q2 -22 2 -36zM450 -8l-21 -46l3 -5q29 -1 45 -9.5t24 -19.5t10 -21.5t2 -13.5 q0 -21 -10 -38t-25.5 -29.5t-35.5 -19.5t-41 -7q-14 0 -28 3q-12 2 -25.5 7t-24.5 15l9 21q16 -9 35.5 -12.5t31.5 -3.5q9 0 19 2.5t18.5 7.5t14 13t5.5 19q0 34 -52 34q-12 0 -27 -3l-5 7l38 72l-10 27h50z" />
<glyph unicode="&#xc8;" horiz-adv-x="644" d="M468 238q-3 22 -10.5 37.5t-17.5 25t-21 14.5t-23 7q-23 3 -58 3.5t-67 0.5h-51v-78q0 -38 1 -71t2 -59t3 -41q2 -17 14.5 -21t29.5 -6q23 -3 53.5 -4.5t60.5 -1.5q32 0 58.5 2t35.5 6q31 14 58 45.5t42 73.5l30 -5v1q-9 -48 -17 -79l-13 -50q-7 -23 -12 -36 q-25 -2 -52.5 -3t-62.5 -1q-20 0 -55 0.5t-74 1.5t-77.5 1.5t-66.5 0.5q-12 0 -30 -0.5t-37 -1.5t-36 -1.5t-27 -1.5q-1 6 -2 11t-1 9v7q23 6 37.5 12.5t23.5 14t12.5 16.5t5.5 22q1 15 2.5 39.5t2 55t1 66t0.5 72.5v74q0 36 -0.5 68.5t-1.5 59t-2 43.5q-1 15 -4.5 25.5 t-12.5 18.5t-25.5 14t-43.5 11l3 26q19 -2 58.5 -3t78.5 -1q29 0 66 0.5t73.5 1.5t68 1.5t49.5 0.5q57 0 122 -3l17 -156l-27 -3q-12 45 -33.5 77.5t-58.5 36.5q-20 2 -48.5 2.5t-57.5 0.5q-21 0 -41.5 -0.5t-37.5 -1t-29 -1t-16 -1.5q-2 -7 -3 -26.5t-2 -47t-1.5 -62 t-0.5 -70.5v-44h14q13 0 33 0.5t44.5 1t46.5 1.5t38.5 2.5t22.5 3.5q9 3 16 6.5t13 10.5t11.5 18.5t12.5 30.5l24 -3q-5 -27 -7.5 -52.5t-2.5 -50.5q0 -22 2 -44.5t6 -46.5zM342 700l-119 116q12 14 29.5 21.5t34.5 11.5q19 4 40 5l58 -144z" />
<glyph unicode="&#xc9;" horiz-adv-x="644" d="M468 238q-3 22 -10.5 37.5t-17.5 25t-21 14.5t-23 7q-23 3 -58 3.5t-67 0.5h-51v-78q0 -38 1 -71t2 -59t3 -41q2 -17 14.5 -21t29.5 -6q23 -3 53.5 -4.5t60.5 -1.5q32 0 58.5 2t35.5 6q31 14 58 45.5t42 73.5l30 -5v1q-9 -48 -17 -79l-13 -50q-7 -23 -12 -36 q-25 -2 -52.5 -3t-62.5 -1q-20 0 -55 0.5t-74 1.5t-77.5 1.5t-66.5 0.5q-12 0 -30 -0.5t-37 -1.5t-36 -1.5t-27 -1.5q-1 6 -2 11t-1 9v7q23 6 37.5 12.5t23.5 14t12.5 16.5t5.5 22q1 15 2.5 39.5t2 55t1 66t0.5 72.5v74q0 36 -0.5 68.5t-1.5 59t-2 43.5q-1 15 -4.5 25.5 t-12.5 18.5t-25.5 14t-43.5 11l3 26q19 -2 58.5 -3t78.5 -1q29 0 66 0.5t73.5 1.5t68 1.5t49.5 0.5q57 0 122 -3l17 -156l-27 -3q-12 45 -33.5 77.5t-58.5 36.5q-20 2 -48.5 2.5t-57.5 0.5q-21 0 -41.5 -0.5t-37.5 -1t-29 -1t-16 -1.5q-2 -7 -3 -26.5t-2 -47t-1.5 -62 t-0.5 -70.5v-44h14q13 0 33 0.5t44.5 1t46.5 1.5t38.5 2.5t22.5 3.5q9 3 16 6.5t13 10.5t11.5 18.5t12.5 30.5l24 -3q-5 -27 -7.5 -52.5t-2.5 -50.5q0 -22 2 -44.5t6 -46.5zM403 858q20 0 38 -4q15 -3 29 -9t20 -17l-169 -123l-31 9z" />
<glyph unicode="&#xca;" horiz-adv-x="644" d="M468 238q-3 22 -10.5 37.5t-17.5 25t-21 14.5t-23 7q-23 3 -58 3.5t-67 0.5h-51v-78q0 -38 1 -71t2 -59t3 -41q2 -17 14.5 -21t29.5 -6q23 -3 53.5 -4.5t60.5 -1.5q32 0 58.5 2t35.5 6q31 14 58 45.5t42 73.5l30 -5v1q-9 -48 -17 -79l-13 -50q-7 -23 -12 -36 q-25 -2 -52.5 -3t-62.5 -1q-20 0 -55 0.5t-74 1.5t-77.5 1.5t-66.5 0.5q-12 0 -30 -0.5t-37 -1.5t-36 -1.5t-27 -1.5q-1 6 -2 11t-1 9v7q23 6 37.5 12.5t23.5 14t12.5 16.5t5.5 22q1 15 2.5 39.5t2 55t1 66t0.5 72.5v74q0 36 -0.5 68.5t-1.5 59t-2 43.5q-1 15 -4.5 25.5 t-12.5 18.5t-25.5 14t-43.5 11l3 26q19 -2 58.5 -3t78.5 -1q29 0 66 0.5t73.5 1.5t68 1.5t49.5 0.5q57 0 122 -3l17 -156l-27 -3q-12 45 -33.5 77.5t-58.5 36.5q-20 2 -48.5 2.5t-57.5 0.5q-21 0 -41.5 -0.5t-37.5 -1t-29 -1t-16 -1.5q-2 -7 -3 -26.5t-2 -47t-1.5 -62 t-0.5 -70.5v-44h14q13 0 33 0.5t44.5 1t46.5 1.5t38.5 2.5t22.5 3.5q9 3 16 6.5t13 10.5t11.5 18.5t12.5 30.5l24 -3q-5 -27 -7.5 -52.5t-2.5 -50.5q0 -22 2 -44.5t6 -46.5zM326 784l-107 -76l-15 7l129 146h16l129 -146l-17 -9z" />
<glyph unicode="&#xcb;" horiz-adv-x="644" d="M468 238q-3 22 -10.5 37.5t-17.5 25t-21 14.5t-23 7q-23 3 -58 3.5t-67 0.5h-51v-78q0 -38 1 -71t2 -59t3 -41q2 -17 14.5 -21t29.5 -6q23 -3 53.5 -4.5t60.5 -1.5q32 0 58.5 2t35.5 6q31 14 58 45.5t42 73.5l30 -5v1q-9 -48 -17 -79l-13 -50q-7 -23 -12 -36 q-25 -2 -52.5 -3t-62.5 -1q-20 0 -55 0.5t-74 1.5t-77.5 1.5t-66.5 0.5q-12 0 -30 -0.5t-37 -1.5t-36 -1.5t-27 -1.5q-1 6 -2 11t-1 9v7q23 6 37.5 12.5t23.5 14t12.5 16.5t5.5 22q1 15 2.5 39.5t2 55t1 66t0.5 72.5v74q0 36 -0.5 68.5t-1.5 59t-2 43.5q-1 15 -4.5 25.5 t-12.5 18.5t-25.5 14t-43.5 11l3 26q19 -2 58.5 -3t78.5 -1q29 0 66 0.5t73.5 1.5t68 1.5t49.5 0.5q57 0 122 -3l17 -156l-27 -3q-12 45 -33.5 77.5t-58.5 36.5q-20 2 -48.5 2.5t-57.5 0.5q-21 0 -41.5 -0.5t-37.5 -1t-29 -1t-16 -1.5q-2 -7 -3 -26.5t-2 -47t-1.5 -62 t-0.5 -70.5v-44h14q13 0 33 0.5t44.5 1t46.5 1.5t38.5 2.5t22.5 3.5q9 3 16 6.5t13 10.5t11.5 18.5t12.5 30.5l24 -3q-5 -27 -7.5 -52.5t-2.5 -50.5q0 -22 2 -44.5t6 -46.5zM443 825q20 0 34.5 -14.5t14.5 -34.5t-14.5 -34.5t-34.5 -14.5t-34.5 14.5t-14.5 34.5t14.5 34.5 t34.5 14.5zM248 825q20 0 34.5 -14.5t14.5 -34.5t-14.5 -34.5t-34.5 -14.5t-34.5 14.5t-14.5 34.5t14.5 34.5t34.5 14.5z" />
<glyph unicode="&#xcc;" horiz-adv-x="354" d="M309 -2q-38 2 -73.5 3t-70.5 1q-32 0 -62 -1t-59 -3l-3 27q26 4 41.5 10.5t24 15t11.5 18t4 20.5l2 43q2 27 2.5 60t1 70.5t0.5 75.5q0 72 -1 133.5t-4 96.5q-1 16 -4.5 26.5t-12.5 18t-25 13t-41 11.5l3 26q38 -4 68.5 -5t60.5 -1t61.5 1t73.5 5l3 -27q-26 -5 -42 -11 t-24.5 -13.5t-12 -18t-4.5 -23.5q-2 -18 -3 -46.5t-1.5 -63.5t-1 -74.5t-0.5 -79.5q0 -69 1.5 -128t3.5 -90q1 -15 4.5 -24.5t12.5 -16t25.5 -11t43.5 -8.5zM176 704l-119 116q12 14 29.5 21.5t34.5 11.5q19 4 40 5l58 -144z" />
<glyph unicode="&#xcd;" horiz-adv-x="354" d="M309 -2q-38 2 -73.5 3t-70.5 1q-32 0 -62 -1t-59 -3l-3 27q26 4 41.5 10.5t24 15t11.5 18t4 20.5l2 43q2 27 2.5 60t1 70.5t0.5 75.5q0 72 -1 133.5t-4 96.5q-1 16 -4.5 26.5t-12.5 18t-25 13t-41 11.5l3 26q38 -4 68.5 -5t60.5 -1t61.5 1t73.5 5l3 -27q-26 -5 -42 -11 t-24.5 -13.5t-12 -18t-4.5 -23.5q-2 -18 -3 -46.5t-1.5 -63.5t-1 -74.5t-0.5 -79.5q0 -69 1.5 -128t3.5 -90q1 -15 4.5 -24.5t12.5 -16t25.5 -11t43.5 -8.5zM255 858q20 0 38 -4q15 -3 29 -9t20 -17l-169 -123l-31 9z" />
<glyph unicode="&#xce;" horiz-adv-x="354" d="M309 -2q-38 2 -73.5 3t-70.5 1q-32 0 -62 -1t-59 -3l-3 27q26 4 41.5 10.5t24 15t11.5 18t4 20.5l2 43q2 27 2.5 60t1 70.5t0.5 75.5q0 72 -1 133.5t-4 96.5q-1 16 -4.5 26.5t-12.5 18t-25 13t-41 11.5l3 26q38 -4 68.5 -5t60.5 -1t61.5 1t73.5 5l3 -27q-26 -5 -42 -11 t-24.5 -13.5t-12 -18t-4.5 -23.5q-2 -18 -3 -46.5t-1.5 -63.5t-1 -74.5t-0.5 -79.5q0 -69 1.5 -128t3.5 -90q1 -15 4.5 -24.5t12.5 -16t25.5 -11t43.5 -8.5zM154 784l-107 -76l-15 7l129 146h16l129 -146l-17 -9z" />
<glyph unicode="&#xcf;" horiz-adv-x="354" d="M309 -2q-38 2 -73.5 3t-70.5 1q-32 0 -62 -1t-59 -3l-3 27q26 4 41.5 10.5t24 15t11.5 18t4 20.5l2 43q2 27 2.5 60t1 70.5t0.5 75.5q0 72 -1 133.5t-4 96.5q-1 16 -4.5 26.5t-12.5 18t-25 13t-41 11.5l3 26q38 -4 68.5 -5t60.5 -1t61.5 1t73.5 5l3 -27q-26 -5 -42 -11 t-24.5 -13.5t-12 -18t-4.5 -23.5q-2 -18 -3 -46.5t-1.5 -63.5t-1 -74.5t-0.5 -79.5q0 -69 1.5 -128t3.5 -90q1 -15 4.5 -24.5t12.5 -16t25.5 -11t43.5 -8.5zM288 825q20 0 34.5 -14.5t14.5 -34.5t-14.5 -34.5t-34.5 -14.5t-34.5 14.5t-14.5 34.5t14.5 34.5t34.5 14.5z M58 825q20 0 34.5 -14.5t14.5 -34.5t-14.5 -34.5t-34.5 -14.5t-34.5 14.5t-14.5 34.5t14.5 34.5t34.5 14.5z" />
<glyph unicode="&#xd1;" horiz-adv-x="848" d="M37 662q25 -2 52 -3.5t54 -1.5q41 0 76 3l441 -512l8 2v193q0 89 -0.5 140t-2.5 77q-2 20 -6.5 32.5t-15 20t-29 11.5t-46.5 8l3 30q29 -2 60 -3.5t63 -1.5t62 1.5t57 3.5l3 -27q-24 -6 -39.5 -12t-24.5 -14t-13.5 -20.5t-5.5 -30.5q-2 -21 -3.5 -60.5t-3 -105.5 t-2.5 -163.5t-1 -234.5l-48 -8l-479 555l-7 -3q-1 -48 -1 -88v-74q0 -69 0.5 -118.5t1.5 -83.5t2 -54t3 -32q2 -16 7.5 -25.5t16.5 -16t28 -10t42 -7.5l-3 -30q-31 2 -61 3t-60 1q-32 0 -63 -1t-59 -3l-3 27q23 6 37.5 11t23.5 11.5t13.5 16.5t6.5 25q3 20 5 51.5t3 69 t1.5 79.5t0.5 83q0 38 -0.5 73t-1.5 63.5t-2.5 48.5t-3.5 28q-6 24 -31.5 34t-57.5 15zM264 733q33 46 63.5 73.5t50.5 27.5q14 0 34 -5l40 -11l38 -10q18 -5 29 -5q26 0 45.5 10.5t35.5 33.5l18 -19q-30 -50 -60.5 -72.5t-50.5 -22.5q-17 0 -34 5l-34 10q-17 6 -34.5 11 t-35.5 5q-52 0 -84 -50z" />
<glyph unicode="&#xd2;" horiz-adv-x="791" d="M32 336q0 78 27.5 143t76 111t116.5 71.5t149 25.5q79 0 144 -25t111.5 -70.5t72.5 -109.5t26 -141q0 -79 -28 -146t-77 -116t-114.5 -76.5t-141.5 -27.5q-71 0 -136.5 27t-115.5 75t-80 114t-30 145zM240 594q-47 -37 -73.5 -97.5t-26.5 -140.5q0 -76 21.5 -138 t58.5 -105.5t86 -67t104 -23.5q53 0 98 21.5t77.5 61t50.5 94.5t18 122q0 95 -35 166.5t-93 110.5q-32 21 -68 32.5t-75 11.5q-83 0 -143 -48zM382 714l-119 116q12 14 29.5 21.5t34.5 11.5q19 4 40 5l58 -144z" />
<glyph unicode="&#xd3;" horiz-adv-x="791" d="M32 336q0 78 27.5 143t76 111t116.5 71.5t149 25.5q79 0 144 -25t111.5 -70.5t72.5 -109.5t26 -141q0 -79 -28 -146t-77 -116t-114.5 -76.5t-141.5 -27.5q-71 0 -136.5 27t-115.5 75t-80 114t-30 145zM240 594q-47 -37 -73.5 -97.5t-26.5 -140.5q0 -76 21.5 -138 t58.5 -105.5t86 -67t104 -23.5q53 0 98 21.5t77.5 61t50.5 94.5t18 122q0 95 -35 166.5t-93 110.5q-32 21 -68 32.5t-75 11.5q-83 0 -143 -48zM467 868q20 0 38 -4q15 -3 29 -9t20 -17l-169 -123l-31 9z" />
<glyph unicode="&#xd4;" horiz-adv-x="791" d="M32 336q0 78 27.5 143t76 111t116.5 71.5t149 25.5q79 0 144 -25t111.5 -70.5t72.5 -109.5t26 -141q0 -79 -28 -146t-77 -116t-114.5 -76.5t-141.5 -27.5q-71 0 -136.5 27t-115.5 75t-80 114t-30 145zM240 594q-47 -37 -73.5 -97.5t-26.5 -140.5q0 -76 21.5 -138 t58.5 -105.5t86 -67t104 -23.5q53 0 98 21.5t77.5 61t50.5 94.5t18 122q0 95 -35 166.5t-93 110.5q-32 21 -68 32.5t-75 11.5q-83 0 -143 -48zM388 794l-107 -76l-15 7l129 146h16l129 -146l-17 -9z" />
<glyph unicode="&#xd5;" horiz-adv-x="791" d="M32 336q0 78 27.5 143t76 111t116.5 71.5t149 25.5q79 0 144 -25t111.5 -70.5t72.5 -109.5t26 -141q0 -79 -28 -146t-77 -116t-114.5 -76.5t-141.5 -27.5q-71 0 -136.5 27t-115.5 75t-80 114t-30 145zM240 594q-47 -37 -73.5 -97.5t-26.5 -140.5q0 -76 21.5 -138 t58.5 -105.5t86 -67t104 -23.5q53 0 98 21.5t77.5 61t50.5 94.5t18 122q0 95 -35 166.5t-93 110.5q-32 21 -68 32.5t-75 11.5q-83 0 -143 -48zM234 743q33 46 63.5 73.5t50.5 27.5q14 0 34 -5l40 -11l38 -10q18 -5 29 -5q26 0 45.5 10.5t35.5 33.5l18 -19 q-30 -50 -60.5 -72.5t-50.5 -22.5q-17 0 -34 5l-34 10q-17 6 -34.5 11t-35.5 5q-52 0 -84 -50z" />
<glyph unicode="&#xd6;" horiz-adv-x="791" d="M32 336q0 78 27.5 143t76 111t116.5 71.5t149 25.5q79 0 144 -25t111.5 -70.5t72.5 -109.5t26 -141q0 -79 -28 -146t-77 -116t-114.5 -76.5t-141.5 -27.5q-71 0 -136.5 27t-115.5 75t-80 114t-30 145zM240 594q-47 -37 -73.5 -97.5t-26.5 -140.5q0 -76 21.5 -138 t58.5 -105.5t86 -67t104 -23.5q53 0 98 21.5t77.5 61t50.5 94.5t18 122q0 95 -35 166.5t-93 110.5q-32 21 -68 32.5t-75 11.5q-83 0 -143 -48zM535 825q20 0 34.5 -14.5t14.5 -34.5t-14.5 -34.5t-34.5 -14.5t-34.5 14.5t-14.5 34.5t14.5 34.5t34.5 14.5zM268 825 q20 0 34.5 -14.5t14.5 -34.5t-14.5 -34.5t-34.5 -14.5t-34.5 14.5t-14.5 34.5t14.5 34.5t34.5 14.5z" />
<glyph unicode="&#xd8;" horiz-adv-x="788" d="M581 639q80 -44 125.5 -121.5t45.5 -176.5q0 -78 -28.5 -144.5t-78 -114.5t-116 -75.5t-141.5 -27.5q-87 0 -162 40q-17 -29 -35.5 -66.5t-33.5 -74.5h-61l-6 12q22 29 40 56l32 48q16 25 28 48q-69 48 -113.5 124t-44.5 170q0 76 27.5 139.5t76 110t116 72.5t147.5 26 q40 0 76.5 -7t68.5 -19q15 27 30 58.5t28 63.5h60l7 -13q-18 -23 -34 -46l-28 -41q-14 -21 -26 -41zM507 609q-28 16 -59.5 24.5t-65.5 8.5q-88 0 -151.5 -53.5t-84.5 -147.5q-9 -41 -9 -86q0 -76 24 -144.5t66 -111.5zM262 69q32 -23 67 -35t76 -12q38 0 68.5 9.5 t55.5 25.5q57 36 89.5 104.5t32.5 159.5q0 87 -28.5 154t-77.5 109z" />
<glyph unicode="&#xd9;" horiz-adv-x="788" d="M109 212q-1 12 -1 24v27q0 39 1.5 86.5t1.5 92.5q0 29 -0.5 56t-2 48t-3 35t-4.5 18q-5 8 -21.5 19t-55.5 18l3 26q28 -3 63 -4.5t72 -1.5q35 0 69.5 1.5t63.5 4.5l3 -26q-40 -7 -58 -19.5t-23 -20.5q-4 -7 -6.5 -32t-3.5 -61.5t-1.5 -80.5t-0.5 -89q0 -27 0.5 -54 t2.5 -57q2 -35 12.5 -69t33 -60.5t59 -42.5t91.5 -16q89 0 142 38q35 25 53 61t24 74q5 35 6 75t1 72q0 29 -1 68.5t-3.5 77t-7.5 66.5t-13 37t-26.5 17.5t-57.5 11.5l3 30q29 -2 61 -3.5t65 -1.5q31 0 61 2t56 4l1 -27q-28 -3 -45.5 -13.5t-25.5 -22.5q-6 -9 -9 -34 t-4.5 -58.5t-1.5 -73.5l-2 -79v-75q-1 -36 -3 -61q-2 -23 -5.5 -47.5t-14.5 -47.5q-20 -42 -57.5 -79.5t-99.5 -56.5q-22 -7 -49 -10.5t-54 -3.5q-45 0 -78.5 6t-59.5 15q-44 16 -72.5 41.5t-45 55.5t-23.5 61t-9 59zM402 704l-119 116q12 14 29.5 21.5t34.5 11.5q19 4 40 5 l58 -144z" />
<glyph unicode="&#xda;" horiz-adv-x="788" d="M109 212q-1 12 -1 24v27q0 39 1.5 86.5t1.5 92.5q0 29 -0.5 56t-2 48t-3 35t-4.5 18q-5 8 -21.5 19t-55.5 18l3 26q28 -3 63 -4.5t72 -1.5q35 0 69.5 1.5t63.5 4.5l3 -26q-40 -7 -58 -19.5t-23 -20.5q-4 -7 -6.5 -32t-3.5 -61.5t-1.5 -80.5t-0.5 -89q0 -27 0.5 -54 t2.5 -57q2 -35 12.5 -69t33 -60.5t59 -42.5t91.5 -16q89 0 142 38q35 25 53 61t24 74q5 35 6 75t1 72q0 29 -1 68.5t-3.5 77t-7.5 66.5t-13 37t-26.5 17.5t-57.5 11.5l3 30q29 -2 61 -3.5t65 -1.5q31 0 61 2t56 4l1 -27q-28 -3 -45.5 -13.5t-25.5 -22.5q-6 -9 -9 -34 t-4.5 -58.5t-1.5 -73.5l-2 -79v-75q-1 -36 -3 -61q-2 -23 -5.5 -47.5t-14.5 -47.5q-20 -42 -57.5 -79.5t-99.5 -56.5q-22 -7 -49 -10.5t-54 -3.5q-45 0 -78.5 6t-59.5 15q-44 16 -72.5 41.5t-45 55.5t-23.5 61t-9 59zM487 858q20 0 38 -4q15 -3 29 -9t20 -17l-169 -123 l-31 9z" />
<glyph unicode="&#xdb;" horiz-adv-x="788" d="M109 212q-1 12 -1 24v27q0 39 1.5 86.5t1.5 92.5q0 29 -0.5 56t-2 48t-3 35t-4.5 18q-5 8 -21.5 19t-55.5 18l3 26q28 -3 63 -4.5t72 -1.5q35 0 69.5 1.5t63.5 4.5l3 -26q-40 -7 -58 -19.5t-23 -20.5q-4 -7 -6.5 -32t-3.5 -61.5t-1.5 -80.5t-0.5 -89q0 -27 0.5 -54 t2.5 -57q2 -35 12.5 -69t33 -60.5t59 -42.5t91.5 -16q89 0 142 38q35 25 53 61t24 74q5 35 6 75t1 72q0 29 -1 68.5t-3.5 77t-7.5 66.5t-13 37t-26.5 17.5t-57.5 11.5l3 30q29 -2 61 -3.5t65 -1.5q31 0 61 2t56 4l1 -27q-28 -3 -45.5 -13.5t-25.5 -22.5q-6 -9 -9 -34 t-4.5 -58.5t-1.5 -73.5l-2 -79v-75q-1 -36 -3 -61q-2 -23 -5.5 -47.5t-14.5 -47.5q-20 -42 -57.5 -79.5t-99.5 -56.5q-22 -7 -49 -10.5t-54 -3.5q-45 0 -78.5 6t-59.5 15q-44 16 -72.5 41.5t-45 55.5t-23.5 61t-9 59zM386 784l-107 -76l-15 7l129 146h16l129 -146l-17 -9z " />
<glyph unicode="&#xdc;" horiz-adv-x="788" d="M109 212q-1 12 -1 24v27q0 39 1.5 86.5t1.5 92.5q0 29 -0.5 56t-2 48t-3 35t-4.5 18q-5 8 -21.5 19t-55.5 18l3 26q28 -3 63 -4.5t72 -1.5q35 0 69.5 1.5t63.5 4.5l3 -26q-40 -7 -58 -19.5t-23 -20.5q-4 -7 -6.5 -32t-3.5 -61.5t-1.5 -80.5t-0.5 -89q0 -27 0.5 -54 t2.5 -57q2 -35 12.5 -69t33 -60.5t59 -42.5t91.5 -16q89 0 142 38q35 25 53 61t24 74q5 35 6 75t1 72q0 29 -1 68.5t-3.5 77t-7.5 66.5t-13 37t-26.5 17.5t-57.5 11.5l3 30q29 -2 61 -3.5t65 -1.5q31 0 61 2t56 4l1 -27q-28 -3 -45.5 -13.5t-25.5 -22.5q-6 -9 -9 -34 t-4.5 -58.5t-1.5 -73.5l-2 -79v-75q-1 -36 -3 -61q-2 -23 -5.5 -47.5t-14.5 -47.5q-20 -42 -57.5 -79.5t-99.5 -56.5q-22 -7 -49 -10.5t-54 -3.5q-45 0 -78.5 6t-59.5 15q-44 16 -72.5 41.5t-45 55.5t-23.5 61t-9 59zM517 825q20 0 34.5 -14.5t14.5 -34.5t-14.5 -34.5 t-34.5 -14.5t-34.5 14.5t-14.5 34.5t14.5 34.5t34.5 14.5zM298 825q20 0 34.5 -14.5t14.5 -34.5t-14.5 -34.5t-34.5 -14.5t-34.5 14.5t-14.5 34.5t14.5 34.5t34.5 14.5z" />
<glyph unicode="&#xdd;" horiz-adv-x="713" d="M424 927q15 0 30 -4q12 -3 25 -10.5t21 -20.5l-127 -145l-25 7zM611 657q19 0 37 1q16 1 34.5 2t35.5 4l3 -28q-20 -3 -35.5 -12t-27.5 -18q-14 -11 -25 -24q-17 -21 -46 -62l-61 -88l-62 -92l-52 -79q0 -86 1 -138.5t6 -61.5q7 -11 29.5 -20t57.5 -12l-3 -30 q-33 2 -59 2.5t-44 1.5q-21 1 -37 1t-36 -1q-17 -1 -41.5 -1.5t-54.5 -2.5l-3 27q38 2 57 13.5t26 21.5q3 4 4.5 19.5t2.5 39.5t1 54v64l-27 43l-40 60l-44 69l-46 70l-42 60l-31 45q-11 13 -24 24q-12 9 -28.5 17t-36.5 10l4 28q31 -3 57 -4t46 -2q23 -1 41 -1t41 1 q20 1 46 2t58 4l2 -28q-36 -5 -58.5 -15t-22.5 -22q0 -28 43 -100q19 -33 49 -81l77 -115h8q64 97 98.5 155t49.5 88q8 17 13 29t5 21q0 13 -19.5 23t-61.5 17l3 28q26 -3 50 -4t42 -2q21 -1 40 -1z" />
<glyph unicode="&#xdf;" horiz-adv-x="540" d="M178 281q0 -37 0.5 -71t1.5 -61.5t2 -47.5t2 -29q0 -10 11 -25.5t39 -22.5l-3 -25q-23 2 -41 3t-30 2q-14 1 -25 1t-25 -1l-30 -2l-40 -4l-2 26q38 8 50 17.5t14 29.5q2 16 2.5 42.5t0.5 56.5q0 39 -1 76.5t-3 59.5q-1 11 -3.5 19.5t-9.5 16t-20 13.5t-34 12v20 q27 6 47 13l20 7q2 54 9 99t30 88q17 32 39 53.5t45.5 35t46.5 19t42 5.5q33 0 60 -10t46.5 -27.5t30.5 -41.5t11 -51q0 -30 -16.5 -54t-37 -45.5t-37 -41t-16.5 -40.5q0 -17 8.5 -32.5t26.5 -35.5l62 -66q32 -35 46 -67.5t14 -70.5q0 -56 -33 -92q-24 -26 -52.5 -37 t-55.5 -11q-19 0 -36 4t-30 10.5t-20.5 14.5t-7.5 15q0 10 3.5 20.5t9.5 18.5t13.5 13.5t14.5 5.5q4 0 10 -10.5t15 -23t21 -23t29 -10.5q25 0 40 19.5t15 48.5q0 39 -30 85q-6 9 -16 22l-21 27l-22 29l-20 27q-19 26 -31 49.5t-12 46.5q0 27 22 52q10 12 22.5 25t23 29 t17.5 36t7 47q0 46 -27.5 76.5t-72.5 30.5q-34 0 -55.5 -19t-32.5 -51q-14 -37 -17.5 -92t-3.5 -114v-112z" />
<glyph unicode="&#xe0;" horiz-adv-x="412" d="M253 214q-2 2 -5 2q-12 -11 -29 -20l-35 -17l-32.5 -18t-24.5 -21q-7 -9 -9 -17.5t-2 -17.5q0 -27 13 -45t41 -18q14 0 27 5.5t23.5 14.5t19 19.5t13.5 20.5q1 11 1.5 27t0.5 32q0 11 -0.5 19.5t-0.5 16.5v16zM317 375q9 -14 11 -31t2 -37q0 -35 -1 -72t-1 -84 q0 -31 1.5 -55.5t4.5 -32.5q7 -20 26 -20q18 0 37 22l13 -23q-23 -28 -50 -39t-44 -11q-20 0 -37 18t-25 47h-5q-8 -9 -22.5 -21t-31.5 -22t-34.5 -17t-32.5 -7t-31 6.5t-29 19.5t-21.5 31.5t-8.5 42.5q0 17 6 37t30 38q12 9 32 17l44 16l47.5 19t45.5 24q6 5 8 9t2 9 q0 15 -1 30.5t-3 31.5q-3 26 -24 45.5t-56 19.5q-29 0 -42 -13q-8 -7 -11.5 -16.5t-6.5 -18.5t-7 -15t-11 -6q-20 0 -35 14t-15 28q0 9 21 21t50 22.5t59 17.5t48 7q28 0 56 -14.5t42 -37.5zM206 479l-128 142q12 15 28.5 23t31.5 12q18 4 35 5l71 -172z" />
<glyph unicode="&#xe1;" horiz-adv-x="412" d="M253 214q-2 2 -5 2q-12 -11 -29 -20l-35 -17l-32.5 -18t-24.5 -21q-7 -9 -9 -17.5t-2 -17.5q0 -27 13 -45t41 -18q14 0 27 5.5t23.5 14.5t19 19.5t13.5 20.5q1 11 1.5 27t0.5 32q0 11 -0.5 19.5t-0.5 16.5v16zM317 375q9 -14 11 -31t2 -37q0 -35 -1 -72t-1 -84 q0 -31 1.5 -55.5t4.5 -32.5q7 -20 26 -20q18 0 37 22l13 -23q-23 -28 -50 -39t-44 -11q-20 0 -37 18t-25 47h-5q-8 -9 -22.5 -21t-31.5 -22t-34.5 -17t-32.5 -7t-31 6.5t-29 19.5t-21.5 31.5t-8.5 42.5q0 17 6 37t30 38q12 9 32 17l44 16l47.5 19t45.5 24q6 5 8 9t2 9 q0 15 -1 30.5t-3 31.5q-3 26 -24 45.5t-56 19.5q-29 0 -42 -13q-8 -7 -11.5 -16.5t-6.5 -18.5t-7 -15t-11 -6q-20 0 -35 14t-15 28q0 9 21 21t50 22.5t59 17.5t48 7q28 0 56 -14.5t42 -37.5zM249 662q15 0 30 -4q12 -3 25 -10.5t21 -20.5l-127 -145l-25 7z" />
<glyph unicode="&#xe2;" horiz-adv-x="412" d="M253 214q-2 2 -5 2q-12 -11 -29 -20l-35 -17l-32.5 -18t-24.5 -21q-7 -9 -9 -17.5t-2 -17.5q0 -27 13 -45t41 -18q14 0 27 5.5t23.5 14.5t19 19.5t13.5 20.5q1 11 1.5 27t0.5 32q0 11 -0.5 19.5t-0.5 16.5v16zM317 375q9 -14 11 -31t2 -37q0 -35 -1 -72t-1 -84 q0 -31 1.5 -55.5t4.5 -32.5q7 -20 26 -20q18 0 37 22l13 -23q-23 -28 -50 -39t-44 -11q-20 0 -37 18t-25 47h-5q-8 -9 -22.5 -21t-31.5 -22t-34.5 -17t-32.5 -7t-31 6.5t-29 19.5t-21.5 31.5t-8.5 42.5q0 17 6 37t30 38q12 9 32 17l44 16l47.5 19t45.5 24q6 5 8 9t2 9 q0 15 -1 30.5t-3 31.5q-3 26 -24 45.5t-56 19.5q-29 0 -42 -13q-8 -7 -11.5 -16.5t-6.5 -18.5t-7 -15t-11 -6q-20 0 -35 14t-15 28q0 9 21 21t50 22.5t59 17.5t48 7q28 0 56 -14.5t42 -37.5zM186 580l-100 -98l-15 8l121 183h15l117 -184l-20 -12z" />
<glyph unicode="&#xe3;" horiz-adv-x="412" d="M253 214q-2 2 -5 2q-12 -11 -29 -20l-35 -17l-32.5 -18t-24.5 -21q-7 -9 -9 -17.5t-2 -17.5q0 -27 13 -45t41 -18q14 0 27 5.5t23.5 14.5t19 19.5t13.5 20.5q1 11 1.5 27t0.5 32q0 11 -0.5 19.5t-0.5 16.5v16zM317 375q9 -14 11 -31t2 -37q0 -35 -1 -72t-1 -84 q0 -31 1.5 -55.5t4.5 -32.5q7 -20 26 -20q18 0 37 22l13 -23q-23 -28 -50 -39t-44 -11q-20 0 -37 18t-25 47h-5q-8 -9 -22.5 -21t-31.5 -22t-34.5 -17t-32.5 -7t-31 6.5t-29 19.5t-21.5 31.5t-8.5 42.5q0 17 6 37t30 38q12 9 32 17l44 16l47.5 19t45.5 24q6 5 8 9t2 9 q0 15 -1 30.5t-3 31.5q-3 26 -24 45.5t-56 19.5q-29 0 -42 -13q-8 -7 -11.5 -16.5t-6.5 -18.5t-7 -15t-11 -6q-20 0 -35 14t-15 28q0 9 21 21t50 22.5t59 17.5t48 7q28 0 56 -14.5t42 -37.5zM29 528q33 46 63.5 73.5t50.5 27.5q14 0 33.5 -5t39.5 -11t38.5 -11t31.5 -5 q50 0 79 45l18 -19q-30 -51 -60.5 -73t-50.5 -22q-17 0 -33 5l-34 11l-34 10q-17 5 -35 5q-52 0 -86 -50z" />
<glyph unicode="&#xe4;" horiz-adv-x="412" d="M253 214q-2 2 -5 2q-12 -11 -29 -20l-35 -17l-32.5 -18t-24.5 -21q-7 -9 -9 -17.5t-2 -17.5q0 -27 13 -45t41 -18q14 0 27 5.5t23.5 14.5t19 19.5t13.5 20.5q1 11 1.5 27t0.5 32q0 11 -0.5 19.5t-0.5 16.5v16zM317 375q9 -14 11 -31t2 -37q0 -35 -1 -72t-1 -84 q0 -31 1.5 -55.5t4.5 -32.5q7 -20 26 -20q18 0 37 22l13 -23q-23 -28 -50 -39t-44 -11q-20 0 -37 18t-25 47h-5q-8 -9 -22.5 -21t-31.5 -22t-34.5 -17t-32.5 -7t-31 6.5t-29 19.5t-21.5 31.5t-8.5 42.5q0 17 6 37t30 38q12 9 32 17l44 16l47.5 19t45.5 24q6 5 8 9t2 9 q0 15 -1 30.5t-3 31.5q-3 26 -24 45.5t-56 19.5q-29 0 -42 -13q-8 -7 -11.5 -16.5t-6.5 -18.5t-7 -15t-11 -6q-20 0 -35 14t-15 28q0 9 21 21t50 22.5t59 17.5t48 7q28 0 56 -14.5t42 -37.5zM105 615q21 0 35.5 -14.5t14.5 -35.5q0 -20 -14.5 -34.5t-35.5 -14.5 q-22 0 -36.5 14.5t-14.5 34.5q0 21 14.5 35.5t36.5 14.5zM288 615q21 0 35.5 -14.5t14.5 -35.5q0 -20 -14.5 -34.5t-35.5 -14.5q-22 0 -36.5 14.5t-14.5 34.5q0 21 14.5 35.5t36.5 14.5z" />
<glyph unicode="&#xe5;" horiz-adv-x="412" d="M253 214q-2 2 -5 2q-12 -11 -29 -20l-35 -17l-32.5 -18t-24.5 -21q-7 -9 -9 -17.5t-2 -17.5q0 -27 13 -45t41 -18q14 0 27 5.5t23.5 14.5t19 19.5t13.5 20.5q1 11 1.5 27t0.5 32q0 11 -0.5 19.5t-0.5 16.5v16zM317 375q9 -14 11 -31t2 -37q0 -35 -1 -72t-1 -84 q0 -31 1.5 -55.5t4.5 -32.5q7 -20 26 -20q18 0 37 22l13 -23q-23 -28 -50 -39t-44 -11q-20 0 -37 18t-25 47h-5q-8 -9 -22.5 -21t-31.5 -22t-34.5 -17t-32.5 -7t-31 6.5t-29 19.5t-21.5 31.5t-8.5 42.5q0 17 6 37t30 38q12 9 32 17l44 16l47.5 19t45.5 24q6 5 8 9t2 9 q0 15 -1 30.5t-3 31.5q-3 26 -24 45.5t-56 19.5q-29 0 -42 -13q-8 -7 -11.5 -16.5t-6.5 -18.5t-7 -15t-11 -6q-20 0 -35 14t-15 28q0 9 21 21t50 22.5t59 17.5t48 7q28 0 56 -14.5t42 -37.5zM194 666q41 0 69.5 -26t28.5 -64q0 -18 -7.5 -34.5t-21 -28.5t-31.5 -19t-38 -7 q-21 0 -39 7t-31.5 19t-21 28.5t-7.5 34.5q0 38 28.5 64t70.5 26zM199 518q21 2 35.5 18t14.5 39q0 27 -17 43t-38 16q-26 0 -40.5 -16.5t-14.5 -39.5q0 -29 17.5 -44.5t42.5 -15.5z" />
<glyph unicode="&#xe6;" horiz-adv-x="637" d="M607 259l-9 -19q-26 -5 -60 -6t-70 -1.5t-71.5 -1.5t-63.5 -5l1 -22q2 -21 5 -39.5t10 -35.5q17 -37 46 -57.5t65 -20.5q21 1 42 6q18 5 39 15t40 30l14 -25q-25 -33 -53.5 -51t-52.5 -26q-28 -10 -56 -11q-38 0 -77.5 20.5t-70.5 64.5h-8q-32 -40 -70.5 -62t-76.5 -22 q-15 0 -31.5 4.5t-30 15t-22 28t-8.5 42.5q0 61 52 101q31 23 70 38.5t81 22.5q1 0 4 1q2 1 5.5 1t8.5 2q0 14 -1 27t-2 24q-2 12 -3 25q-2 26 -24.5 44.5t-57.5 18.5q-12 0 -25.5 -3.5t-20.5 -12.5q-6 -8 -9 -17l-6 -16q-2 -8 -5.5 -13.5t-10.5 -5.5q-19 0 -35 13.5 t-16 32.5q0 9 20.5 20.5t48.5 21t58 16t49 6.5q28 0 55 -14.5t42 -37.5q2 -2 2.5 -4.5t2.5 -6.5q33 32 68.5 47t68.5 15q28 0 50 -14t39 -34t28.5 -43.5t18.5 -41.5zM333 254q24 3 51.5 5.5t53 4.5t46 4t30.5 6q4 1 6 8q1 3 1 6q-5 43 -26 71.5t-53 28.5q-46 0 -75.5 -32 t-32.5 -86zM256 122q3 18 4 35t1 31q0 9 -0.5 16.5t-0.5 13.5q-67 -17 -105 -44.5t-38 -76.5q0 -22 12.5 -38.5t38.5 -16.5q19 0 34.5 7t26.5 18.5t18 25.5t9 29z" />
<glyph unicode="&#xe7;" horiz-adv-x="396" d="M276 424q20 -1 37.5 -4t31.5 -9q20 -9 24.5 -13.5t4.5 -17.5q0 -17 -13 -32t-27 -15q-9 0 -16 4.5t-14 10.5l-14 15q-8 8 -19 14q-13 7 -32 7q-23 0 -48 -12t-45 -39q-17 -23 -24.5 -51t-7.5 -57q0 -44 15 -83.5t40 -60.5q21 -18 43 -25.5t42 -7.5q35 0 59.5 17t46.5 42 l16 -24q-36 -41 -73 -67.5t-90 -26.5q-38 0 -75.5 19t-65.5 59q-14 21 -24 52t-10 67q0 27 6 55t20 55.5t37 53t58 46.5q25 15 56 21.5t61 6.5zM262 6l-23 -49l3 -5q29 -2 45.5 -11t24.5 -20.5t10 -21.5t2 -13q0 -21 -10 -39t-25.5 -31.5t-35.5 -21t-41 -7.5q-14 0 -28 3 q-12 2 -25.5 7t-24.5 15l9 21q16 -9 35.5 -12.5t31.5 -3.5q18 0 37.5 11t19.5 34q0 16 -12.5 26.5t-38.5 10.5q-12 0 -27 -3l-5 7l42 78l-7 19z" />
<glyph unicode="&#xe8;" horiz-adv-x="426" d="M388 251q-25 -5 -55 -6t-56 -1q-36 0 -71.5 0.5t-85.5 2.5q-4 -1 -5.5 -4t-1.5 -14v-16q0 -8 1 -16q4 -34 17.5 -61t33 -45.5t43 -28.5t49.5 -10q21 1 42 7q18 5 39 16.5t41 33.5l12 -29q-19 -25 -43 -42.5t-48 -28.5t-46 -16t-37 -5q-33 0 -66 15t-59 41q-14 14 -24 32 t-16.5 37.5t-10 39t-3.5 37.5q0 29 4 56.5t15 52.5q24 57 72 92.5t109 35.5q30 0 54.5 -14t42 -33t28.5 -40t16 -34l17 -36zM116 277q11 0 40 0.5t60 2.5q36 1 79 3q11 3 11 15q0 5 -2.5 14t-5.5 16q-11 24 -31 43t-50 19q-32 0 -57 -22q-33 -29 -44 -91zM222 479l-128 142 q12 15 28.5 23t31.5 12q18 4 35 5l71 -172z" />
<glyph unicode="&#xe9;" horiz-adv-x="426" d="M388 251q-25 -5 -55 -6t-56 -1q-36 0 -71.5 0.5t-85.5 2.5q-4 -1 -5.5 -4t-1.5 -14v-16q0 -8 1 -16q4 -34 17.5 -61t33 -45.5t43 -28.5t49.5 -10q21 1 42 7q18 5 39 16.5t41 33.5l12 -29q-19 -25 -43 -42.5t-48 -28.5t-46 -16t-37 -5q-33 0 -66 15t-59 41q-14 14 -24 32 t-16.5 37.5t-10 39t-3.5 37.5q0 29 4 56.5t15 52.5q24 57 72 92.5t109 35.5q30 0 54.5 -14t42 -33t28.5 -40t16 -34l17 -36zM116 277q11 0 40 0.5t60 2.5q36 1 79 3q11 3 11 15q0 5 -2.5 14t-5.5 16q-11 24 -31 43t-50 19q-32 0 -57 -22q-33 -29 -44 -91zM266 662 q15 0 30 -4q12 -3 25 -10.5t21 -20.5l-127 -145l-25 7z" />
<glyph unicode="&#xea;" horiz-adv-x="426" d="M388 251q-25 -5 -55 -6t-56 -1q-36 0 -71.5 0.5t-85.5 2.5q-4 -1 -5.5 -4t-1.5 -14v-16q0 -8 1 -16q4 -34 17.5 -61t33 -45.5t43 -28.5t49.5 -10q21 1 42 7q18 5 39 16.5t41 33.5l12 -29q-19 -25 -43 -42.5t-48 -28.5t-46 -16t-37 -5q-33 0 -66 15t-59 41q-14 14 -24 32 t-16.5 37.5t-10 39t-3.5 37.5q0 29 4 56.5t15 52.5q24 57 72 92.5t109 35.5q30 0 54.5 -14t42 -33t28.5 -40t16 -34l17 -36zM116 277q11 0 40 0.5t60 2.5q36 1 79 3q11 3 11 15q0 5 -2.5 14t-5.5 16q-11 24 -31 43t-50 19q-32 0 -57 -22q-33 -29 -44 -91zM217 580l-100 -98 l-15 8l121 183h15l117 -184l-20 -12z" />
<glyph unicode="&#xeb;" horiz-adv-x="426" d="M388 251q-25 -5 -55 -6t-56 -1q-36 0 -71.5 0.5t-85.5 2.5q-4 -1 -5.5 -4t-1.5 -14v-16q0 -8 1 -16q4 -34 17.5 -61t33 -45.5t43 -28.5t49.5 -10q21 1 42 7q18 5 39 16.5t41 33.5l12 -29q-19 -25 -43 -42.5t-48 -28.5t-46 -16t-37 -5q-33 0 -66 15t-59 41q-14 14 -24 32 t-16.5 37.5t-10 39t-3.5 37.5q0 29 4 56.5t15 52.5q24 57 72 92.5t109 35.5q30 0 54.5 -14t42 -33t28.5 -40t16 -34l17 -36zM116 277q11 0 40 0.5t60 2.5q36 1 79 3q11 3 11 15q0 5 -2.5 14t-5.5 16q-11 24 -31 43t-50 19q-32 0 -57 -22q-33 -29 -44 -91zM130 615 q21 0 35.5 -14.5t14.5 -35.5q0 -20 -14.5 -34.5t-35.5 -14.5q-22 0 -36.5 14.5t-14.5 34.5q0 21 14.5 35.5t36.5 14.5zM323 615q21 0 35.5 -14.5t14.5 -35.5q0 -20 -14.5 -34.5t-35.5 -14.5q-22 0 -36.5 14.5t-14.5 34.5q0 21 14.5 35.5t36.5 14.5z" />
<glyph unicode="&#xec;" horiz-adv-x="267" d="M185 427l-3 -140q-2 -59 -2 -100q0 -57 1.5 -90.5t7.5 -41.5q9 -12 27 -18.5t42 -11.5l-3 -28q-24 3 -54 5t-56 2q-27 0 -58.5 -2t-56.5 -5l-3 27q26 5 44 12t26 18t9 38.5t1 72.5q0 24 -0.5 48.5t-1.5 45t-2 35t-2 18.5q-2 7 -10 15q-7 6 -20 13.5t-35 13.5v21 q76 26 104.5 41.5t28.5 14.5zM119 479l-128 142q12 15 28.5 23t31.5 12q18 4 35 5l71 -172z" />
<glyph unicode="&#xed;" horiz-adv-x="267" d="M185 427l-3 -140q-2 -59 -2 -100q0 -57 1.5 -90.5t7.5 -41.5q9 -12 27 -18.5t42 -11.5l-3 -28q-24 3 -54 5t-56 2q-27 0 -58.5 -2t-56.5 -5l-3 27q26 5 44 12t26 18t9 38.5t1 72.5q0 24 -0.5 48.5t-1.5 45t-2 35t-2 18.5q-2 7 -10 15q-7 6 -20 13.5t-35 13.5v21 q76 26 104.5 41.5t28.5 14.5zM159 662q15 0 30 -4q12 -3 25 -10.5t21 -20.5l-127 -145l-25 7z" />
<glyph unicode="&#xee;" horiz-adv-x="267" d="M185 427l-3 -140q-2 -59 -2 -100q0 -57 1.5 -90.5t7.5 -41.5q9 -12 27 -18.5t42 -11.5l-3 -28q-24 3 -54 5t-56 2q-27 0 -58.5 -2t-56.5 -5l-3 27q26 5 44 12t26 18t9 38.5t1 72.5q0 24 -0.5 48.5t-1.5 45t-2 35t-2 18.5q-2 7 -10 15q-7 6 -20 13.5t-35 13.5v21 q76 26 104.5 41.5t28.5 14.5zM113 583l-92 -102l-15 8l114 193h13l106 -193l-19 -9z" />
<glyph unicode="&#xef;" horiz-adv-x="267" d="M185 427l-3 -140q-2 -59 -2 -100q0 -57 1.5 -90.5t7.5 -41.5q9 -12 27 -18.5t42 -11.5l-3 -28q-24 3 -54 5t-56 2q-27 0 -58.5 -2t-56.5 -5l-3 27q26 5 44 12t26 18t9 38.5t1 72.5q0 24 -0.5 48.5t-1.5 45t-2 35t-2 18.5q-2 7 -10 15q-7 6 -20 13.5t-35 13.5v21 q76 26 104.5 41.5t28.5 14.5zM38 615q21 0 35.5 -14.5t14.5 -35.5q0 -20 -14.5 -34.5t-35.5 -14.5q-22 0 -36.5 14.5t-14.5 34.5q0 21 14.5 35.5t36.5 14.5zM222 615q21 0 35.5 -14.5t14.5 -35.5q0 -20 -14.5 -34.5t-35.5 -14.5q-22 0 -36.5 14.5t-14.5 34.5q0 21 14.5 35.5 t36.5 14.5z" />
<glyph unicode="&#xf1;" horiz-adv-x="527" d="M308 24q38 8 48.5 18.5t13.5 27.5q5 22 7 58.5t2 74.5q0 43 -3 76q-5 44 -26.5 66.5t-56.5 22.5q-26 0 -53.5 -11t-53.5 -31q-8 -6 -10 -13t-2 -17q-1 -26 -1 -63v-67v-58q0 -27 2 -43q1 -19 13.5 -27.5t53.5 -14.5l-3 -26q-31 4 -57 5.5t-51 1.5t-47 -1.5t-45 -5.5 l-3 25q36 10 46 19.5t12 23.5q2 15 3 41.5t1 57.5q0 24 -0.5 48.5t-1.5 45t-2 35t-2 19.5q-2 8 -9 15q-6 6 -17 13t-30 12v20q37 14 61 24.5t38 18t19 11.5l6 3l12 -2v-71l5 -3q35 26 60.5 40.5t43 21t28.5 7.5t17 1q50 0 84 -30t42 -81q2 -11 2 -22v-23q0 -42 -1.5 -83 t-1.5 -77q0 -25 1.5 -40t7.5 -23t19.5 -12t37.5 -7l-3 -28q-59 6 -103 6q-26 0 -50 -1.5t-50 -4.5zM100 528q33 46 63.5 73.5t50.5 27.5q14 0 33.5 -5t39.5 -11t38.5 -11t31.5 -5q50 0 79 45l18 -19q-30 -51 -60.5 -73t-50.5 -22q-17 0 -33 5l-34 11l-34 10q-17 5 -35 5 q-52 0 -86 -50z" />
<glyph unicode="&#xf2;" d="M462 218q0 -49 -16.5 -91t-45.5 -73t-67.5 -49t-83.5 -18q-42 0 -80 16.5t-67.5 46t-46.5 70t-17 89.5q0 48 16.5 88.5t46 70t69.5 45.5t88 16q44 0 81.5 -15t64.5 -42.5t42.5 -66.5t15.5 -87zM378 204q0 88 -36 138.5t-97 50.5q-54 0 -87.5 -46.5t-33.5 -122.5 q0 -51 15.5 -96.5t41.5 -71.5q35 -33 79 -33q26 0 48 13.5t37.5 37.5t24 57.5t8.5 72.5zM267 479l-128 142q12 15 28.5 23t31.5 12q18 4 35 5l71 -172z" />
<glyph unicode="&#xf3;" d="M462 218q0 -49 -16.5 -91t-45.5 -73t-67.5 -49t-83.5 -18q-42 0 -80 16.5t-67.5 46t-46.5 70t-17 89.5q0 48 16.5 88.5t46 70t69.5 45.5t88 16q44 0 81.5 -15t64.5 -42.5t42.5 -66.5t15.5 -87zM378 204q0 88 -36 138.5t-97 50.5q-54 0 -87.5 -46.5t-33.5 -122.5 q0 -51 15.5 -96.5t41.5 -71.5q35 -33 79 -33q26 0 48 13.5t37.5 37.5t24 57.5t8.5 72.5zM288 662q15 0 30 -4q12 -3 25 -10.5t21 -20.5l-127 -145l-25 7z" />
<glyph unicode="&#xf4;" d="M462 218q0 -49 -16.5 -91t-45.5 -73t-67.5 -49t-83.5 -18q-42 0 -80 16.5t-67.5 46t-46.5 70t-17 89.5q0 48 16.5 88.5t46 70t69.5 45.5t88 16q44 0 81.5 -15t64.5 -42.5t42.5 -66.5t15.5 -87zM378 204q0 88 -36 138.5t-97 50.5q-54 0 -87.5 -46.5t-33.5 -122.5 q0 -51 15.5 -96.5t41.5 -71.5q35 -33 79 -33q26 0 48 13.5t37.5 37.5t24 57.5t8.5 72.5zM245 580l-100 -98l-15 8l121 183h15l117 -184l-20 -12z" />
<glyph unicode="&#xf5;" d="M82 528q33 46 63.5 73.5t50.5 27.5q14 0 33.5 -5t39.5 -11t38.5 -11t31.5 -5q50 0 79 45l18 -19q-30 -51 -60.5 -73t-50.5 -22q-17 0 -33 5l-34 11l-34 10q-17 5 -35 5q-52 0 -86 -50zM462 218q0 -49 -16.5 -91t-45.5 -73t-67.5 -49t-83.5 -18q-42 0 -80 16.5t-67.5 46 t-46.5 70t-17 89.5q0 48 16.5 88.5t46 70t69.5 45.5t88 16q44 0 81.5 -15t64.5 -42.5t42.5 -66.5t15.5 -87zM378 204q0 88 -36 138.5t-97 50.5q-54 0 -87.5 -46.5t-33.5 -122.5q0 -51 15.5 -96.5t41.5 -71.5q35 -33 79 -33q26 0 48 13.5t37.5 37.5t24 57.5t8.5 72.5z" />
<glyph unicode="&#xf6;" d="M462 218q0 -49 -16.5 -91t-45.5 -73t-67.5 -49t-83.5 -18q-42 0 -80 16.5t-67.5 46t-46.5 70t-17 89.5q0 48 16.5 88.5t46 70t69.5 45.5t88 16q44 0 81.5 -15t64.5 -42.5t42.5 -66.5t15.5 -87zM378 204q0 88 -36 138.5t-97 50.5q-54 0 -87.5 -46.5t-33.5 -122.5 q0 -51 15.5 -96.5t41.5 -71.5q35 -33 79 -33q26 0 48 13.5t37.5 37.5t24 57.5t8.5 72.5zM158 615q21 0 35.5 -14.5t14.5 -35.5q0 -20 -14.5 -34.5t-35.5 -14.5q-22 0 -36.5 14.5t-14.5 34.5q0 21 14.5 35.5t36.5 14.5zM341 615q21 0 35.5 -14.5t14.5 -35.5 q0 -20 -14.5 -34.5t-35.5 -14.5q-22 0 -36.5 14.5t-14.5 34.5q0 21 14.5 35.5t36.5 14.5z" />
<glyph unicode="&#xf7;" horiz-adv-x="650" d="M335 -9q-23 0 -39.5 16.5t-16.5 39.5t16.5 39.5t39.5 16.5t39.5 -16.5t16.5 -39.5t-16.5 -39.5t-39.5 -16.5zM335 391q-23 0 -39.5 16.5t-16.5 39.5t16.5 39.5t39.5 16.5t39.5 -16.5t16.5 -39.5t-16.5 -39.5t-39.5 -16.5zM604 276l-6 -59q-42 2 -99 2.5t-122 0.5 q-81 0 -166 -1.5t-158 -4.5l-5 14l19 49z" />
<glyph unicode="&#xf8;" d="M417 510l2 -13q-11 -17 -23 -41l-30 -56q54 -31 75 -77.5t21 -106.5q0 -48 -16 -89.5t-44.5 -71.5t-67 -47.5t-82.5 -17.5q-42 0 -79 15q-16 -35 -27.5 -63t-18.5 -48h-51l-5 12q8 13 25 43t39 73q-45 32 -70 79.5t-25 106.5q0 48 16.5 88t45.5 69t69 45t87 16 q17 0 33.5 -2.5t32.5 -7.5q15 34 24.5 58.5t12.5 35.5h56zM192 48q30 -23 74 -23q26 0 47 14t36 39t23.5 58t8.5 72q0 18 -1.5 38t-6 39.5t-12.5 36t-21 28.5l-37 -74l-39 -77l-38 -77zM123 219q0 -41 9.5 -77.5t29.5 -65.5l37 75l38 78l37 77l32 71q-26 16 -64 16 q-26 0 -48 -13t-37.5 -36.5t-24.5 -55.5t-9 -69z" />
<glyph unicode="&#xf9;" horiz-adv-x="516" d="M166 415q-1 -10 -3 -34.5t-3.5 -56.5t-3 -68t-1.5 -69q0 -24 1 -46t3 -35q5 -26 24 -43t53 -17q21 0 39.5 7t33.5 18t25.5 25t16.5 29q4 8 4.5 16t0.5 16v67q0 31 -0.5 55.5t-1.5 40.5t-2 22q-2 6 -10 13q-7 5 -20.5 11.5t-37.5 11.5v22q38 3 64 6.5t43 6.5q19 4 31 8 l14 -6q-2 -9 -3 -32t-2 -53t-1.5 -63.5t-0.5 -64.5q0 -51 1.5 -79.5t9.5 -36.5q7 -7 19 -13.5t35 -11.5v-19q-29 -8 -52.5 -16.5t-39.5 -16.5q-19 -10 -33 -19l-14 6v69l-8 3q-85 -79 -152 -79q-39 0 -72 23.5t-41 65.5q-3 14 -4 30.5t-1 33.5q0 13 0.5 34t1.5 44t1.5 46.5 t0.5 42.5q0 18 -1 29t-6.5 17.5t-17 10.5t-32.5 9v22q35 5 59 9l40 8q18 4 30 7zM252 479l-128 142q12 15 28.5 23t31.5 12q18 4 35 5l71 -172z" />
<glyph unicode="&#xfa;" horiz-adv-x="516" d="M166 415q-1 -10 -3 -34.5t-3.5 -56.5t-3 -68t-1.5 -69q0 -24 1 -46t3 -35q5 -26 24 -43t53 -17q21 0 39.5 7t33.5 18t25.5 25t16.5 29q4 8 4.5 16t0.5 16v67q0 31 -0.5 55.5t-1.5 40.5t-2 22q-2 6 -10 13q-7 5 -20.5 11.5t-37.5 11.5v22q38 3 64 6.5t43 6.5q19 4 31 8 l14 -6q-2 -9 -3 -32t-2 -53t-1.5 -63.5t-0.5 -64.5q0 -51 1.5 -79.5t9.5 -36.5q7 -7 19 -13.5t35 -11.5v-19q-29 -8 -52.5 -16.5t-39.5 -16.5q-19 -10 -33 -19l-14 6v69l-8 3q-85 -79 -152 -79q-39 0 -72 23.5t-41 65.5q-3 14 -4 30.5t-1 33.5q0 13 0.5 34t1.5 44t1.5 46.5 t0.5 42.5q0 18 -1 29t-6.5 17.5t-17 10.5t-32.5 9v22q35 5 59 9l40 8q18 4 30 7zM292 662q15 0 30 -4q12 -3 25 -10.5t21 -20.5l-127 -145l-25 7z" />
<glyph unicode="&#xfb;" horiz-adv-x="516" d="M166 415q-1 -10 -3 -34.5t-3.5 -56.5t-3 -68t-1.5 -69q0 -24 1 -46t3 -35q5 -26 24 -43t53 -17q21 0 39.5 7t33.5 18t25.5 25t16.5 29q4 8 4.5 16t0.5 16v67q0 31 -0.5 55.5t-1.5 40.5t-2 22q-2 6 -10 13q-7 5 -20.5 11.5t-37.5 11.5v22q38 3 64 6.5t43 6.5q19 4 31 8 l14 -6q-2 -9 -3 -32t-2 -53t-1.5 -63.5t-0.5 -64.5q0 -51 1.5 -79.5t9.5 -36.5q7 -7 19 -13.5t35 -11.5v-19q-29 -8 -52.5 -16.5t-39.5 -16.5q-19 -10 -33 -19l-14 6v69l-8 3q-85 -79 -152 -79q-39 0 -72 23.5t-41 65.5q-3 14 -4 30.5t-1 33.5q0 13 0.5 34t1.5 44t1.5 46.5 t0.5 42.5q0 18 -1 29t-6.5 17.5t-17 10.5t-32.5 9v22q35 5 59 9l40 8q18 4 30 7zM241 580l-100 -98l-15 8l121 183h15l117 -184l-20 -12z" />
<glyph unicode="&#xfc;" horiz-adv-x="516" d="M166 415q-1 -10 -3 -34.5t-3.5 -56.5t-3 -68t-1.5 -69q0 -24 1 -46t3 -35q5 -26 24 -43t53 -17q21 0 39.5 7t33.5 18t25.5 25t16.5 29q4 8 4.5 16t0.5 16v67q0 31 -0.5 55.5t-1.5 40.5t-2 22q-2 6 -10 13q-7 5 -20.5 11.5t-37.5 11.5v22q38 3 64 6.5t43 6.5q19 4 31 8 l14 -6q-2 -9 -3 -32t-2 -53t-1.5 -63.5t-0.5 -64.5q0 -51 1.5 -79.5t9.5 -36.5q7 -7 19 -13.5t35 -11.5v-19q-29 -8 -52.5 -16.5t-39.5 -16.5q-19 -10 -33 -19l-14 6v69l-8 3q-85 -79 -152 -79q-39 0 -72 23.5t-41 65.5q-3 14 -4 30.5t-1 33.5q0 13 0.5 34t1.5 44t1.5 46.5 t0.5 42.5q0 18 -1 29t-6.5 17.5t-17 10.5t-32.5 9v22q35 5 59 9l40 8q18 4 30 7zM154 615q21 0 35.5 -14.5t14.5 -35.5q0 -20 -14.5 -34.5t-35.5 -14.5q-22 0 -36.5 14.5t-14.5 34.5q0 21 14.5 35.5t36.5 14.5zM337 615q21 0 35.5 -14.5t14.5 -35.5q0 -20 -14.5 -34.5 t-35.5 -14.5q-22 0 -36.5 14.5t-14.5 34.5q0 21 14.5 35.5t36.5 14.5z" />
<glyph unicode="&#xfd;" horiz-adv-x="477" d="M62 669q15 0 30 -4q12 -3 25 -10.5t21 -20.5l-127 -145l-25 7zM210 -11l-52 134l-40 98q-17 41 -29.5 67.5t-21.5 42.5q-8 15 -14.5 24t-14.5 14.5t-19 9.5t-27 9l6 29q19 -3 38 -4.5t34 -2.5q18 -1 34 -1t34 1q15 1 34.5 1.5t39.5 2.5l1 -26q-19 -3 -29.5 -7.5t-16 -9.5 t-6.5 -9t-1 -7q0 -4 2 -17.5t11 -43.5t26.5 -80.5t49.5 -128.5h7q12 27 24 58l24 61l20 56l15 45q2 7 4 16.5t2 19.5q0 9 -2.5 16t-9.5 12t-20 9t-34 9l2 27q18 -2 36 -2.5t33 -1.5q18 -1 34 -1q14 0 30 1q14 1 32 2t38 4l3 -28q-18 -4 -30 -8t-20.5 -10.5t-15.5 -16.5 t-16 -26q-14 -27 -33 -68l-40 -87l-42 -95l-39 -89l-31 -72l-18 -41q-20 -41 -40.5 -66t-38.5 -38t-32.5 -17t-20.5 -4q-19 0 -33 10.5t-14 32.5q0 5 2 11q2 5 5 11t10 12q42 0 68 14t37 25q6 6 12.5 14t14 22t17 35t21.5 52z" />
<glyph unicode="&#xff;" horiz-adv-x="477" d="M210 -11l-52 134l-40 98q-17 41 -29.5 67.5t-21.5 42.5q-8 15 -14.5 24t-14.5 14.5t-19 9.5t-27 9l6 29q19 -3 38 -4.5t34 -2.5q18 -1 34 -1t34 1q15 1 34.5 1.5t39.5 2.5l1 -26q-19 -3 -29.5 -7.5t-16 -9.5t-6.5 -9t-1 -7q0 -4 2 -17.5t11 -43.5t26.5 -80.5t49.5 -128.5 h7q12 27 24 58l24 61l20 56l15 45q2 7 4 16.5t2 19.5q0 9 -2.5 16t-9.5 12t-20 9t-34 9l2 27q18 -2 36 -2.5t33 -1.5q18 -1 34 -1q14 0 30 1q14 1 32 2t38 4l3 -28q-18 -4 -30 -8t-20.5 -10.5t-15.5 -16.5t-16 -26q-14 -27 -33 -68l-40 -87l-42 -95l-39 -89l-31 -72l-18 -41 q-20 -41 -40.5 -66t-38.5 -38t-32.5 -17t-20.5 -4q-19 0 -33 10.5t-14 32.5q0 5 2 11q2 5 5 11t10 12q42 0 68 14t37 25q6 6 12.5 14t14 22t17 35t21.5 52zM150 615q21 0 35.5 -14.5t14.5 -35.5q0 -20 -14.5 -34.5t-35.5 -14.5q-22 0 -36.5 14.5t-14.5 34.5q0 21 14.5 35.5 t36.5 14.5zM344 615q21 0 35.5 -14.5t14.5 -35.5q0 -20 -14.5 -34.5t-35.5 -14.5q-22 0 -36.5 14.5t-14.5 34.5q0 21 14.5 35.5t36.5 14.5z" />
<glyph unicode="&#x131;" horiz-adv-x="267" d="M185 427l-3 -140q-2 -59 -2 -100q0 -57 1.5 -90.5t7.5 -41.5q9 -12 27 -18.5t42 -11.5l-3 -28q-24 3 -54 5t-56 2q-27 0 -58.5 -2t-56.5 -5l-3 27q26 5 44 12t26 18t9 38.5t1 72.5q0 24 -0.5 48.5t-1.5 45t-2 35t-2 18.5q-2 7 -10 15q-7 6 -20 13.5t-35 13.5v21 q76 26 104.5 41.5t28.5 14.5z" />
<glyph unicode="&#x152;" horiz-adv-x="1038" d="M544 332q0 93 -2 158.5t-7 85.5q-5 17 -15.5 27t-23.5 15q-14 5 -33 7.5t-47 2.5q-79 0 -131.5 -22.5t-83.5 -60.5t-44 -88.5t-13 -106.5q0 -68 17 -125.5t52.5 -98.5t90 -64t129.5 -23q11 0 27 1t36 4q25 4 33 10.5t10 28.5q2 33 3.5 89.5t1.5 119.5v40zM662 660 q59 0 106 1t83 1q57 0 122 -3l17 -156l-27 -3q-12 45 -33.5 77.5t-58.5 36.5q-20 2 -48.5 2.5t-57.5 0.5q-21 0 -41.5 -0.5t-37.5 -1t-29 -1t-16 -1.5q-2 -7 -3 -26.5t-2 -47t-1.5 -62t-0.5 -70.5v-44h14q13 0 33 0.5t44.5 1t46.5 1.5t38.5 2.5t22.5 3.5q9 3 16 6.5t13 10.5 t11.5 18.5t12.5 30.5l24 -3q-5 -27 -7.5 -52.5t-2.5 -50.5q0 -22 2 -44.5t6 -46.5l-26 -3q-3 22 -10.5 37.5t-17.5 25t-21 14.5t-23 7q-23 3 -58 3.5t-67 0.5h-51v-78q0 -38 1 -71t2 -59t3 -41q2 -17 14.5 -21t29.5 -6q23 -3 43.5 -4.5t50.5 -1.5q32 0 58.5 2t35.5 6 q31 14 58 45.5t42 73.5l30 -5v1q-9 -48 -17 -79l-13 -50q-7 -23 -12 -36q-25 -2 -52.5 -3t-62.5 -1q-41 0 -98 2t-113 2q-44 0 -88 -3.5t-102 -3.5q-42 0 -79.5 2.5t-66.5 8.5q-66 13 -115.5 46t-83 77t-50.5 96t-17 104q0 85 29 149t79.5 106.5t117 63.5t141.5 21 q21 0 52 -1.5t67 -3.5l72 -2q38 -2 72 -2z" />
<glyph unicode="&#x153;" horiz-adv-x="739" d="M704 80q-29 -35 -58.5 -54t-54.5 -27q-29 -11 -57 -11q-40 0 -76 21t-58 60h-7q-26 -38 -62.5 -59t-81.5 -21q-42 0 -80 16t-67.5 45t-46.5 69.5t-17 89.5q0 48 16.5 88.5t46 70t69.5 45.5t88 16t85.5 -21.5t60.5 -60.5h7q25 35 61 57.5t80 22.5q30 0 54.5 -14t42 -33 t28.5 -40t15 -34l17 -36l-8 -19q-14 -3 -31 -4l-34 -2q-18 -1 -38 -1h-39q-38 0 -110 3l-6 -3l-1 -1q0 -91 33.5 -143.5t95.5 -52.5q20 1 41 8q18 6 39 18.5t41 35.5zM608 283q12 3 12 15t-6.5 27.5t-18 30t-27.5 24.5t-36 10q-27 0 -48 -18q-32 -28 -40 -95zM243 393 q-26 0 -48 -12t-37.5 -34t-24.5 -52t-9 -67q0 -45 11 -82.5t29 -64t42 -41.5t51 -15q48 0 73 43q14 23 21.5 57t7.5 76q0 90 -31.5 141t-84.5 51z" />
<glyph unicode="&#x178;" horiz-adv-x="713" d="M611 657q19 0 37 1q16 1 34.5 2t35.5 4l3 -28q-20 -3 -35.5 -12t-27.5 -18q-14 -11 -25 -24q-17 -21 -46 -62l-61 -88l-62 -92l-52 -79q0 -86 1 -138.5t6 -61.5q7 -11 29.5 -20t57.5 -12l-3 -30q-33 2 -59 2.5t-44 1.5q-21 1 -37 1t-36 -1q-17 -1 -41.5 -1.5t-54.5 -2.5 l-3 27q38 2 57 13.5t26 21.5q3 4 4.5 19.5t2.5 39.5t1 54v64l-27 43l-40 60l-44 69l-46 70l-42 60l-31 45q-11 13 -24 24q-12 9 -28.5 17t-36.5 10l4 28q31 -3 57 -4t46 -2q23 -1 41 -1t41 1q20 1 46 2t58 4l2 -28q-36 -5 -58.5 -15t-22.5 -22q0 -28 43 -100q19 -33 49 -81 l77 -115h8q64 97 98.5 155t49.5 88q8 17 13 29t5 21q0 13 -19.5 23t-61.5 17l3 28q26 -3 50 -4t42 -2q21 -1 40 -1zM277 825q20 0 34.5 -14.5t14.5 -34.5t-14.5 -34.5t-34.5 -14.5t-34.5 14.5t-14.5 34.5t14.5 34.5t34.5 14.5zM499 825q20 0 34.5 -14.5t14.5 -34.5 t-14.5 -34.5t-34.5 -14.5t-34.5 14.5t-14.5 34.5t14.5 34.5t34.5 14.5z" />
<glyph unicode="&#x2c6;" d="M239 580l-100 -98l-15 8l121 183h15l117 -184l-20 -12z" />
<glyph unicode="&#x2da;" horiz-adv-x="412" d="M194 666q41 0 69.5 -26t28.5 -64q0 -18 -7.5 -34.5t-21 -28.5t-31.5 -19t-38 -7q-21 0 -39 7t-31.5 19t-21 28.5t-7.5 34.5q0 38 28.5 64t70.5 26zM199 518q21 2 35.5 18t14.5 39q0 27 -17 43t-38 16q-26 0 -40.5 -16.5t-14.5 -39.5q0 -29 17.5 -44.5t42.5 -15.5z" />
<glyph unicode="&#x2dc;" d="M72 528q33 46 63.5 73.5t50.5 27.5q14 0 33.5 -5t39.5 -11t38.5 -11t31.5 -5q50 0 79 45l18 -19q-30 -51 -60.5 -73t-50.5 -22q-17 0 -33 5l-34 11l-34 10q-17 5 -35 5q-52 0 -86 -50z" />
<glyph unicode="&#x2000;" horiz-adv-x="463" />
<glyph unicode="&#x2001;" horiz-adv-x="927" />
<glyph unicode="&#x2002;" horiz-adv-x="463" />
<glyph unicode="&#x2003;" horiz-adv-x="927" />
<glyph unicode="&#x2004;" horiz-adv-x="309" />
<glyph unicode="&#x2005;" horiz-adv-x="231" />
<glyph unicode="&#x2006;" horiz-adv-x="154" />
<glyph unicode="&#x2007;" horiz-adv-x="154" />
<glyph unicode="&#x2008;" horiz-adv-x="115" />
<glyph unicode="&#x2009;" horiz-adv-x="185" />
<glyph unicode="&#x200a;" horiz-adv-x="51" />
<glyph unicode="&#x2010;" horiz-adv-x="322" d="M278 233l-223 -19l-7 8l7 66l223 9v-64z" />
<glyph unicode="&#x2011;" horiz-adv-x="322" d="M278 233l-223 -19l-7 8l7 66l223 9v-64z" />
<glyph unicode="&#x2013;" horiz-adv-x="650" d="M599 279l-6 -58q-42 2 -99 2.5t-122 0.5q-81 0 -166 -1.5t-158 -4.5l-5 14l19 48z" />
<glyph unicode="&#x2014;" horiz-adv-x="794" d="M736 279l-6 -58q-21 1 -55 1.5t-73 1t-78 0.5h-72h-94l-107 -2q-55 0 -106 -2l-87 -2l-5 14l19 48z" />
<glyph unicode="&#x2018;" horiz-adv-x="200" d="M95 434q-20 0 -34 11q-33 27 -33 74q0 29 13 60.5t39 58.5q18 19 39 34t42 23l20 -23q-29 -14 -51.5 -41.5t-22.5 -65.5q0 -20 13 -38t36 -25q0 -28 -19 -48t-42 -20z" />
<glyph unicode="&#x2019;" horiz-adv-x="200" d="M124 694q15 0 26.5 -8t19.5 -20t12.5 -26.5t4.5 -27.5q0 -30 -13 -58t-33.5 -51.5t-46.5 -42t-52 -28.5l-20 23q14 7 29.5 18.5t28 26t20.5 30t8 30.5q0 20 -12 39.5t-35 26.5q0 28 20 48t43 20z" />
<glyph unicode="&#x201a;" horiz-adv-x="200" d="M124 129q15 0 26.5 -8t19.5 -20t12.5 -26.5t4.5 -27.5q0 -30 -13 -58t-33.5 -51.5t-46.5 -42t-52 -28.5l-20 23q14 7 29.5 18.5t28 26t20.5 30t8 30.5q0 20 -12 39.5t-35 26.5q0 28 20 48t43 20z" />
<glyph unicode="&#x201c;" horiz-adv-x="360" d="M158 524q2 -8 2 -12q0 -22 -16 -41t-39 -19q-13 0 -26 6t-23.5 16.5t-17 26t-6.5 34.5q2 29 14 58q11 25 32 53.5t63 53.5l17 -21q-30 -21 -44.5 -45t-14.5 -47t15 -40.5t44 -22.5zM325 524q1 -3 1 -11q0 -22 -15.5 -41.5t-38.5 -19.5q-13 0 -26.5 6t-24 16.5t-17 26 t-6.5 34.5q2 29 14 58q11 25 32 53.5t63 53.5l17 -21q-30 -21 -44.5 -45t-14.5 -46q0 -24 15.5 -41.5t44.5 -22.5z" />
<glyph unicode="&#x201d;" horiz-adv-x="359" d="M28 627q-1 4 -1 11q0 22 15.5 41.5t38.5 19.5q13 0 26.5 -6t24 -16.5t17 -26t6.5 -34.5q-2 -29 -14 -58q-11 -25 -32.5 -53.5t-62.5 -53.5l-17 21q30 21 44.5 45t14.5 47t-15.5 40.5t-44.5 22.5zM202 627q-1 4 -1 12q0 22 15.5 41t38.5 19q13 0 26 -6t23.5 -16.5t17 -26 t6.5 -34.5q-2 -29 -14 -58q-11 -25 -32.5 -53.5t-62.5 -53.5l-17 21q31 21 45 45.5t14 46.5q0 23 -15 40.5t-44 22.5z" />
<glyph unicode="&#x201e;" horiz-adv-x="359" d="M29 60q-1 4 -1 11q0 22 15.5 41.5t38.5 19.5q13 0 26.5 -6t24 -16.5t17 -26t6.5 -34.5q-2 -29 -14 -58q-11 -25 -32.5 -53.5t-62.5 -53.5l-17 21q30 21 44.5 45t14.5 47t-15.5 40.5t-44.5 22.5zM203 60q-1 4 -1 12q0 22 15.5 41t38.5 19q13 0 26 -6t23.5 -16.5t17 -26 t6.5 -34.5q-2 -29 -14 -58q-11 -25 -32.5 -53.5t-62.5 -53.5l-17 21q31 21 45 45.5t14 46.5q0 23 -15 40.5t-44 22.5z" />
<glyph unicode="&#x2022;" horiz-adv-x="300" d="M148 168q-18 0 -34.5 8t-29 21.5t-19.5 31t-7 36.5t7 36.5t19.5 30t29 20t34.5 7.5q19 0 35.5 -7.5t29 -20t20 -30t7.5 -36.5t-7.5 -36.5t-20 -31t-29 -21.5t-35.5 -8z" />
<glyph unicode="&#x2026;" horiz-adv-x="682" d="M117 -4q-21 0 -35.5 14.5t-14.5 35.5q0 20 14.5 34.5t35.5 14.5q20 0 34.5 -14.5t14.5 -34.5q0 -21 -14.5 -35.5t-34.5 -14.5zM336 -4q-20 0 -34.5 14.5t-14.5 35.5q0 20 14.5 34.5t34.5 14.5q21 0 35.5 -14.5t14.5 -34.5q0 -21 -14.5 -35.5t-35.5 -14.5zM563 -4 q-20 0 -35 14.5t-15 35.5q0 20 15 34.5t35 14.5q21 0 35.5 -14.5t14.5 -34.5q0 -21 -14.5 -35.5t-35.5 -14.5z" />
<glyph unicode="&#x202f;" horiz-adv-x="185" />
<glyph unicode="&#x2039;" horiz-adv-x="250" d="M213 52q-14 15 -41 41l-62 59l-102 90v15q59 48 98 83l63 57q28 26 44 44l20 -19l-130 -162l130 -189z" />
<glyph unicode="&#x203a;" horiz-adv-x="250" d="M32 441q14 -15 41 -41l62 -57q39 -35 102 -86v-15l-99 -86l-62 -59q-28 -27 -44 -45l-20 19l130 162l-130 189z" />
<glyph unicode="&#x2044;" horiz-adv-x="850" d="M670 716l50 -10v-10l-260 -334l-273 -373l-54 14z" />
<glyph unicode="&#x205f;" horiz-adv-x="231" />
<glyph unicode="&#x20ac;" horiz-adv-x="550" d="M347 589q-25 0 -55.5 -13.5t-55.5 -43.5q-32 -39 -46 -93t-14 -117q0 -61 14.5 -121.5t44.5 -107.5q18 -29 45 -48t62 -19q32 0 53 16t26 39q3 13 3 24t1 19.5t6 13.5t19 5q20 0 32.5 -18.5t12.5 -40.5q0 -10 -7.5 -26.5t-25.5 -32.5t-47.5 -27.5t-74.5 -11.5 q-62 0 -110 26t-81 70t-50.5 103.5t-17.5 127.5q0 67 22 124t60 99t87.5 66t105.5 24q38 0 71.5 -8.5t55.5 -21.5q9 -6 15 -13t6 -14q0 -19 -4 -35t-10.5 -28t-14 -19t-14.5 -7q-13 0 -17.5 17t-12.5 37.5t-26 37.5t-58 17zM384 352q-74 3 -154 3q-59 0 -119.5 -1.5 t-108.5 -5.5l-3 12l23 39q29 -1 74 -1h92h66q33 0 63 0.5t56.5 1t45.5 1.5l1 -15zM374 231q-74 3 -151 3q-57 0 -115 -1.5t-106 -5.5l-3 12l23 39q25 -1 58 -1h71h71q37 0 71.5 0.5t64.5 1t51 1.5l1 -15z" />
<glyph unicode="&#x2122;" horiz-adv-x="890" d="M328 562q-5 23 -10.5 36.5t-14.5 20t-23 8.5t-36 2q-1 -14 -1.5 -35t-0.5 -45q0 -20 0.5 -39.5t1 -35t1.5 -26t2 -13.5q2 -7 8 -11q5 -4 14.5 -7.5t25.5 -3.5l-2 -25q-20 1 -34.5 2t-25.5 1h-21h-20q-10 0 -25 -1t-35 -2l-1 23q12 1 21 5t14 9q6 5 11 11q3 4 4 29.5 t1 61.5q0 29 -0.5 57t-1.5 45q-24 0 -38.5 -3t-23 -10.5t-14.5 -20.5t-13 -33l-21 4l14 99h24q22 -4 51 -5.5t45 -1.5q28 0 48 0.5t35.5 1t28 2t26.5 3.5l7 -2v-100zM796 431q3 -5 8 -9t12.5 -7t20.5 -5l-2 -23q-14 1 -25.5 2t-20.5 1h-20h-19q-10 0 -24 -1t-32 -2l-2 24 q9 1 15 4t10 7t7 9q3 4 3 43q0 27 -1 60.5t-2 61.5h-7l-105 -215l-22 -2l-101 225h-7q-2 -26 -3 -63t-1 -66q0 -40 3 -44q2 -6 7 -10q4 -4 11 -7t18 -3l-2 -24l-21 2q-11 1 -19 1h-18h-20q-9 0 -20 -1l-22 -2l-2 23q7 0 14.5 3t13.5 7t9 8l4 3q2 3 4 20t3.5 40t2.5 49t1 47 q0 25 -2 33q-4 5 -9 9q-5 3 -11.5 6t-16.5 4l2 25q31 -3 53 -3h22h8h15q10 0 27 1l17 -40l22 -50l22 -52l18 -41h9l23 47l24 50l21 49q10 23 17 37q20 -1 32 -1h19h12h19q18 0 38 3l2 -25q-11 -1 -19 -4t-13 -6q-6 -4 -9 -9q-1 -5 -1 -15v-25q0 -21 0.5 -46t2 -46.5 t3.5 -37.5t4 -19z" />
</font>
</defs>
</svg>
